<?xml version="1.0" encoding="UTF-8"?>
<svg width="33px" height="40px" viewBox="0 0 33 40" version="1.1" xmlns="http://www.w3.org/2000/svg" xmlns:xlink="http://www.w3.org/1999/xlink">
    <!-- Generator: Sketch 63.1 (92452) - https://sketch.com -->
    <title>Group 19</title>
    <desc>Created with Sketch.</desc>
    <defs>
        <polygon id="path-1" points="0 0 32.8112019 0 32.8112019 31.2 0 31.2"></polygon>
    </defs>
    <g id="Page-2" stroke="#4A4A4A" stroke-width="1" fill="none" fill-rule="evenodd">
        <g id="Product-Page_New_02" transform="translate(-575.000000, -52.000000)">
            <g id="Group-19" transform="translate(575.000000, 52.000000)">
                <g id="Group-3" transform="translate(0.000000, 8.800000)">
                    <mask id="mask-2" fill="#4A4A4A" >
                        <use xlink:href="#path-1"></use>
                    </mask>
                    <g id="Clip-2"></g>
                    <path d="M4.03567788,0 C3.52290865,0 3.06027404,0.358163265 3.00855288,0.870416327 L0.00460096154,30.4145878 C-0.0468028846,30.9268408 0.330793269,31.2 0.843879808,31.2 L15.4835048,31.2 L17.349274,31.2 L31.988899,31.2 C32.5023029,31.2 32.8687933,30.8978694 32.8037452,30.3872082 C32.2027737,25.7014783 31.7520451,22.1871808 31.4515594,19.8443159 C30.9090644,15.6145223 30.0953218,9.269832 29.0103317,0.810244898 C28.9449663,0.299265306 28.4718606,0 27.958774,0 L4.03567788,0 Z M27.6770048,1.48040816 L31.225774,29.9265306 L17.349274,29.9265306 L15.4835048,29.9265306 L1.56258173,29.9265306 L4.45166827,1.59183673 L27.7756875,1.59183673" id="Fill-1" fill="#4A4A4A" mask="url(#mask-2)"></path>
                </g>
                <path d="M24.2535405,14.4 C23.8890276,14.4 23.5825339,14.0950923 23.5585694,13.6980475 C23.5516323,13.5764644 22.7488208,1.49889182 16.0977201,1.49889182 C9.4466193,1.49889182 8.6434925,13.5761478 8.63624008,13.6983641 C8.61132959,14.1112401 8.27992548,14.4253298 7.89586248,14.3981003 C7.51211481,14.371504 7.22075668,14.0159367 7.24535185,13.6024274 C7.25386556,13.4665963 7.45598738,10.2294459 8.59367152,6.93878628 C10.1630324,2.39936675 12.7581378,-1.82076576e-13 16.0977201,-1.82076576e-13 C19.436987,-1.82076576e-13 22.0311465,2.39936675 23.601138,6.93878628 C24.7394528,10.2294459 24.9415746,13.4665963 24.949773,13.6024274 C24.9743681,14.0159367 24.6823794,14.3721372 24.2986317,14.3984169 C24.2838115,14.3993668 24.2683607,14.4 24.2535405,14.4" id="Fill-4" fill="#4A4A4A"></path>
                <path d="M27.3658537,14.4 C27.3658537,15.7253229 26.2848108,16.8 24.9512195,16.8 C23.6172892,16.8 22.5365854,15.7253229 22.5365854,14.4 C22.5365854,13.0746771 23.6172892,12 24.9512195,12 C26.2848108,12 27.3658537,13.0746771 27.3658537,14.4 L24.9512195,14.4" id="Fill-6" fill="#4A4A4A"></path>
                <path d="M10.4634146,14.4 C10.4634146,15.7253229 9.38237177,16.8 8.04878049,16.8 C6.71485021,16.8 5.63414634,15.7253229 5.63414634,14.4 C5.63414634,13.0746771 6.71485021,12 8.04878049,12 C9.38237177,12 10.4634146,13.0746771 10.4634146,14.4" id="Fill-8" fill="#4A4A4A"></path>
            </g>
        </g>
    </g>
</svg>