<?xml version="1.0" encoding="UTF-8"?>
<svg width="24px" height="27px" viewBox="0 0 24 27" version="1.1" xmlns="http://www.w3.org/2000/svg" xmlns:xlink="http://www.w3.org/1999/xlink">
    <!-- Generator: Sketch 63.1 (92452) - https://sketch.com -->
    <title>share-variant</title>
    <desc>Created with Sketch.</desc>
    <g id="Page-2" stroke="none" stroke-width="1" fill="none" fill-rule="evenodd">
        <g id="Product-Page_New_02" transform="translate(-434.000000, -62.000000)" fill="#000000" fill-rule="nonzero">
            <g id="share-variant" transform="translate(434.000000, 62.000000)">
                <path d="M20,19.0939227 C18.9866667,19.0939227 18.08,19.5007534 17.3866667,20.1381215 L7.88,14.5102963 C7.94666667,14.1983928 8,13.8864892 8,13.5610246 C8,13.23556 7.94666667,12.9236565 7.88,12.6117529 L17.28,7.03817177 C18,7.716223 18.9466667,8.13661477 20,8.13661477 C22.209139,8.13661477 24,6.31517151 24,4.06830738 C24,1.82144326 22.209139,0 20,0 C17.790861,0 16,1.82144326 16,4.06830738 C16,4.39377197 16.0533333,4.70567554 16.12,5.01757911 L6.72,10.5911602 C6,9.91310899 5.05333333,9.49271723 4,9.49271723 C1.790861,9.49271723 0,11.3141605 0,13.5610246 C0,15.8078887 1.790861,17.629332 4,17.629332 C5.05333333,17.629332 6,17.2089402 6.72,16.530889 L16.2133333,22.1587142 C16.1466667,22.4434957 16.1066667,22.7418383 16.1066667,23.0537418 C16.1066667,25.2370668 17.8533333,27 20,27 C22.1466667,27 23.8933333,25.2370668 23.8933333,23.0537418 C23.8933333,20.8667941 22.1502286,19.0939227 20,19.0939227 Z" id="Path"></path>
            </g>
        </g>
    </g>
</svg>