<?xml version="1.0" encoding="UTF-8"?>
<svg width="128px" height="19px" viewBox="0 0 128 19" version="1.1" xmlns="http://www.w3.org/2000/svg" xmlns:xlink="http://www.w3.org/1999/xlink">
    <!-- Generator: Sketch 63.1 (92452) - https://sketch.com -->
    <title>Group 11</title>
    <desc>Created with Sketch.</desc>
    <g id="Page-2" stroke="none" stroke-width="1" fill="none" fill-rule="evenodd">
        <g id="Product-Page_New_03" transform="translate(-214.000000, -8803.000000)" fill="#F5A623" fill-rule="nonzero">
            <g id="Group-12-Copy-3" transform="translate(214.000000, 8803.000000)">
                <g id="Group-11">
                    <g id="star-outline" transform="translate(108.000000, 0.000000)">
                        <path d="M10,13.39 L6.24,15.66 L7.23,11.38 L3.91,8.5 L8.29,8.13 L10,4.09 L11.71,8.13 L16.09,8.5 L12.77,11.38 L13.76,15.66 L10,13.39 Z M20,7.24 L12.81,6.63 L10,0 L7.19,6.63 L0,7.24 L5.45,11.97 L3.82,19 L10,15.27 L16.18,19 L14.54,11.97 L20,7.24 Z" id="Shape"></path>
                    </g>
                    <g id="star">
                        <polygon id="Path" points="10 15.27 16.18 19 14.54 11.97 20 7.24 12.81 6.62 10 0 7.19 6.62 0 7.24 5.45 11.97 3.82 19"></polygon>
                    </g>
                    <g id="star" transform="translate(27.000000, 0.000000)">
                        <polygon id="Path" points="10 15.27 16.18 19 14.54 11.97 20 7.24 12.81 6.62 10 0 7.19 6.62 0 7.24 5.45 11.97 3.82 19"></polygon>
                    </g>
                    <g id="star" transform="translate(54.000000, 0.000000)">
                        <polygon id="Path" points="10 15.27 16.18 19 14.54 11.97 20 7.24 12.81 6.62 10 0 7.19 6.62 0 7.24 5.45 11.97 3.82 19"></polygon>
                    </g>
                    <g id="star" transform="translate(81.000000, 0.000000)">
                        <polygon id="Path" points="10 15.27 16.18 19 14.54 11.97 20 7.24 12.81 6.62 10 0 7.19 6.62 0 7.24 5.45 11.97 3.82 19"></polygon>
                    </g>
                </g>
            </g>
        </g>
    </g>
</svg>