<?xml version="1.0" encoding="UTF-8"?>
<svg width="471px" height="152px" viewBox="0 0 471 152" version="1.1" xmlns="http://www.w3.org/2000/svg" xmlns:xlink="http://www.w3.org/1999/xlink">
    <!-- Generator: Sketch 63.1 (92452) - https://sketch.com -->
    <title>Group 30</title>
    <desc>Created with Sketch.</desc>
    <defs>
        <polygon id="path-1" points="0 0.637 114.3529 0.637 114.3529 114.9898 0 114.9898"></polygon>
    </defs>
    <g id="Page-1" stroke="none" stroke-width="1" fill="none" fill-rule="evenodd">
        <g id="Home_Q&amp;P" transform="translate(-770.000000, -2275.000000)">
            <g id="Group-30" transform="translate(770.000000, 2275.000000)">
                <g id="Group-26">
                    <g id="Group-23">
                        <g id="Group-20">
                            <g id="Group-7">
                                <text id="Authentic" font-family="RobotoCondensed-Regular, Roboto Condensed" font-size="12" font-style="condensed" font-weight="normal" letter-spacing="-0.0595428571" fill="#4A4A4A">
                                    <tspan x="35" y="137">A</tspan>
                                    <tspan x="41.7900665" y="137" letter-spacing="0.00285714286">uthentic</tspan>
                                </text>
                                <g id="Group-3">
                                    <mask id="mask-2" fill="white">
                                        <use xlink:href="#path-1"></use>
                                    </mask>
                                    <g id="Clip-2"></g>
                                    <path d="M114.3529,57.8138 C114.3529,89.3908 88.7539,114.9898 57.1759,114.9898 C25.5989,114.9898 -0.0001,89.3908 -0.0001,57.8138 C-0.0001,26.2358 25.5989,0.6368 57.1759,0.6368 C88.7539,0.6368 114.3529,26.2358 114.3529,57.8138" id="Fill-1" fill="#00A79D" mask="url(#mask-2)"></path>
                                </g>
                                <polygon id="Fill-4" fill="#FFFFFF" points="29.065 67.312 85.43 67.312 85.43 66.804 29.065 66.804"></polygon>
                                <polygon id="Fill-6" fill="#FFFFFF" points="32.873 70.867 81.875 70.867 81.875 70.359 32.873 70.359"></polygon>
                                <polygon id="Fill-7" fill="#FFFFFF" points="36.935 74.674 77.812 74.674 77.812 74.166 36.935 74.166"></polygon>
                                <polygon id="Fill-8" fill="#FFFFFF" points="57.4071 76.8958 56.5611 79.4988 53.8231 79.4988 56.0381 80.9758 55.1921 83.5138 57.4071 81.8718 59.6221 83.4648 58.7761 80.9838 60.9901 79.4988 58.2531 79.4988"></polygon>
                                <polygon id="Fill-9" fill="#FFFFFF" points="56.9222 17.0501 55.4412 21.6111 50.6452 21.6111 54.5252 24.2971 53.0422 28.7921 56.9222 25.9411 60.8012 28.7431 59.3202 24.3051 63.1992 21.6111 58.4032 21.6111"></polygon>
                                <polygon id="Fill-10" fill="#FFFFFF" points="45.4076 76.8958 44.5616 79.4988 41.8236 79.4988 44.0386 80.9758 43.1926 83.5138 45.4076 81.8718 47.6216 83.4648 46.7766 80.9838 48.9906 79.4988 46.2526 79.4988"></polygon>
                                <polygon id="Fill-11" fill="#FFFFFF" points="69.4071 76.8958 68.5611 79.4988 65.8231 79.4988 68.0381 80.9758 67.1921 83.5138 69.4071 81.8718 71.6211 83.4648 70.7761 80.9838 72.9901 79.4988 70.2521 79.4988"></polygon>
                                <path d="M95.1268,67.265 C95.8368,68.049 97.2218,67.725 99.6568,65.519 C102.0918,63.314 101.7148,61.429 101.7148,61.429 C101.7148,61.429 99.8768,60.868 97.4418,63.073 C96.5468,63.883 95.9028,64.558 95.4788,65.126 C95.8038,63.571 96.0348,61.982 96.1678,60.366 C96.2118,60.413 96.2608,60.459 96.3158,60.501 C97.1508,61.151 98.4588,60.59 100.4738,57.995 C102.4888,55.401 101.7898,53.61 101.7898,53.61 C101.7898,53.61 99.8818,53.376 97.8678,55.971 C97.1198,56.934 96.5988,57.716 96.2808,58.353 C96.2928,57.955 96.3008,57.558 96.3008,57.158 C96.3008,55.932 96.2368,54.715 96.1228,53.508 C96.1808,53.554 96.2418,53.597 96.3118,53.634 C97.2468,54.128 98.4378,53.349 99.9708,50.444 C101.5048,47.538 100.5058,45.896 100.5058,45.896 C100.5058,45.896 98.5868,45.997 97.0538,48.903 C96.4748,49.998 96.0938,50.869 95.8948,51.557 C95.6578,49.931 95.3148,48.331 94.8798,46.763 C94.9528,46.806 95.0288,46.844 95.1148,46.871 C96.1228,47.196 97.1598,46.222 98.1658,43.095 C99.1718,39.967 97.9028,38.523 97.9028,38.523 C97.9028,38.523 96.0298,38.956 95.0238,42.083 C94.6318,43.303 94.4088,44.246 94.3388,44.967 C93.8168,43.384 93.1938,41.839 92.4798,40.34 C92.5678,40.377 92.6608,40.406 92.7628,40.419 C93.8108,40.564 94.6628,39.425 95.1108,36.17 C95.5588,32.915 94.0578,31.714 94.0578,31.714 C94.0578,31.714 92.2888,32.466 91.8418,35.72 C91.6618,37.025 91.6078,38.011 91.6728,38.74 C90.8788,37.251 89.9898,35.816 89.0128,34.441 C89.1118,34.465 89.2158,34.478 89.3258,34.474 C90.3828,34.435 91.0248,33.164 90.8998,29.882 C90.7758,26.599 89.0898,25.676 89.0898,25.676 C89.0898,25.676 87.4788,26.723 87.6028,30.006 C87.6528,31.341 87.7738,32.33 87.9688,33.038 C86.9278,31.702 85.8008,30.433 84.5938,29.238 C84.6958,29.244 84.8008,29.24 84.9088,29.216 C85.9428,28.994 86.3548,27.631 85.6618,24.42 C84.9698,21.208 83.1478,20.592 83.1478,20.592 C83.1478,20.592 81.7428,21.904 82.4358,25.116 C82.7168,26.419 83.0068,27.372 83.3218,28.036 C81.3488,26.249 79.1858,24.654 76.8538,23.286 C77.1438,22.366 76.2528,21.258 73.4648,19.915 C70.5048,18.49 68.8998,19.549 68.8998,19.549 C68.8998,19.549 69.0718,21.463 72.0328,22.888 C74.7608,24.202 76.1068,24.383 76.6618,23.657 C78.8528,24.944 80.8948,26.431 82.7658,28.092 C82.1028,27.949 81.2468,27.85 80.1598,27.797 C76.8778,27.634 75.8128,29.234 75.8128,29.234 C75.8128,29.234 76.7158,30.93 79.9968,31.092 C83.0328,31.244 84.3508,30.717 84.5728,29.8 C85.5768,30.814 86.5228,31.88 87.4078,32.994 C86.7798,32.738 85.9548,32.493 84.8958,32.252 C81.6918,31.522 80.3648,32.912 80.3648,32.912 C80.3648,32.912 80.9598,34.74 84.1628,35.469 C87.1268,36.145 88.5158,35.856 88.8938,34.992 C89.7098,36.165 90.4638,37.383 91.1478,38.64 C90.5728,38.275 89.7968,37.887 88.7858,37.462 C85.7578,36.187 84.2098,37.325 84.2098,37.325 C84.2098,37.325 84.4778,39.228 87.5048,40.502 C90.3208,41.689 91.7398,41.639 92.2548,40.842 C92.8638,42.151 93.4038,43.494 93.8658,44.868 C93.3598,44.401 92.6538,43.875 91.7118,43.268 C88.9518,41.486 87.2288,42.338 87.2288,42.338 C87.2288,42.338 87.1628,44.259 89.9228,46.04 C92.5118,47.711 93.9208,47.899 94.5598,47.183 C94.9368,48.591 95.2388,50.024 95.4558,51.478 C95.0378,50.924 94.4258,50.272 93.5858,49.494 C91.1768,47.26 89.3328,47.8 89.3328,47.8 C89.3328,47.8 88.9338,49.68 91.3428,51.913 C93.6208,54.026 94.9788,54.444 95.7278,53.827 C95.8238,54.929 95.8778,56.039 95.8778,57.158 C95.8778,57.526 95.8718,57.893 95.8618,58.259 C95.5478,57.635 95.0528,56.877 94.3498,55.952 C92.3658,53.332 90.4558,53.544 90.4558,53.544 C90.4558,53.544 89.7358,55.327 91.7208,57.945 C93.6118,60.439 94.8808,61.077 95.7258,60.578 C95.5938,62.082 95.3788,63.564 95.0808,65.015 C94.8818,64.339 94.5228,63.495 93.9808,62.443 C92.4808,59.519 90.5638,59.396 90.5638,59.396 C90.5638,59.396 89.5448,61.026 91.0458,63.949 C92.4858,66.755 93.6308,67.594 94.5528,67.23 C94.1598,68.695 93.6848,70.126 93.1288,71.518 C93.0538,70.816 92.8448,69.914 92.4908,68.772 C91.5218,65.632 89.6538,65.177 89.6538,65.177 C89.6538,65.177 88.3688,66.607 89.3388,69.745 C90.2728,72.77 91.2588,73.791 92.2338,73.582 C91.5908,74.957 90.8698,76.287 90.0758,77.569 C90.1238,76.863 90.0748,75.936 89.9238,74.745 C89.5148,71.485 87.7538,70.713 87.7538,70.713 C87.7538,70.713 86.2398,71.897 86.6498,75.157 C87.0458,78.305 87.8428,79.48 88.8418,79.439 C87.9688,80.682 87.0248,81.871 86.0158,83.001 C86.1868,82.314 86.2998,81.389 86.3588,80.183 C86.5228,76.902 84.9228,75.835 84.9228,75.835 C84.9228,75.835 83.2258,76.739 83.0638,80.02 C82.9058,83.201 83.4918,84.494 84.4908,84.619 C83.4098,85.699 82.2658,86.715 81.0638,87.663 C81.3568,87.013 81.6328,86.112 81.9048,84.918 C82.6348,81.715 81.2438,80.388 81.2438,80.388 C81.2438,80.388 79.4168,80.983 78.6868,84.185 C77.9758,87.308 78.3348,88.682 79.3088,88.967 C78.0488,89.851 76.7348,90.661 75.3718,91.394 C75.7778,90.803 76.2118,89.955 76.6948,88.809 C77.9698,85.781 76.8318,84.232 76.8318,84.232 C76.8318,84.232 74.9278,84.5 73.6528,87.528 C72.4018,90.499 72.5268,91.914 73.4538,92.355 C72.0518,93.009 70.6048,93.582 69.1188,94.068 C69.6258,93.557 70.2058,92.793 70.8878,91.736 C72.6698,88.975 71.8178,87.252 71.8178,87.252 C71.8178,87.252 69.8968,87.186 68.1158,89.946 C66.3618,92.663 66.2438,94.079 67.0888,94.67 C63.8968,95.523 60.5428,95.98 57.0828,95.98 C53.6718,95.98 50.3638,95.536 47.2108,94.707 C47.2158,94.704 47.2208,94.702 47.2258,94.7 C48.1148,94.125 48.0188,92.706 46.2368,89.946 C44.4558,87.186 42.5348,87.252 42.5348,87.252 C42.5348,87.252 41.6828,88.975 43.4648,91.736 C44.1908,92.862 44.8018,93.653 45.3318,94.161 C43.7758,93.667 42.2628,93.077 40.7978,92.398 C40.8148,92.391 40.8318,92.388 40.8478,92.381 C41.8228,91.97 41.9748,90.556 40.6998,87.528 C39.4248,84.5 37.5218,84.232 37.5218,84.232 C37.5218,84.232 36.3828,85.781 37.6588,88.809 C38.1888,90.071 38.6618,90.967 39.1028,91.56 C37.6438,90.794 36.2378,89.94 34.8948,89.001 C34.9198,88.997 34.9438,88.995 34.9688,88.991 C36.0008,88.754 36.3958,87.388 35.6658,84.185 C34.9368,80.983 33.1078,80.388 33.1078,80.388 C33.1078,80.388 31.7188,81.715 32.4488,84.918 C32.7568,86.273 33.0708,87.248 33.4078,87.91 C32.0928,86.895 30.8418,85.799 29.6678,84.627 C29.7018,84.628 29.7338,84.632 29.7688,84.63 C30.8258,84.577 31.4518,83.3 31.2898,80.02 C31.1268,76.739 29.4298,75.835 29.4298,75.835 C29.4298,75.835 27.8308,76.902 27.9938,80.183 C28.0628,81.594 28.2068,82.622 28.4308,83.334 C27.2978,82.096 26.2458,80.785 25.2798,79.408 C25.3208,79.417 25.3608,79.428 25.4048,79.433 C26.4538,79.565 27.2928,78.416 27.7028,75.157 C28.1128,71.897 26.5978,70.713 26.5978,70.713 C26.5978,70.713 24.8378,71.485 24.4288,74.745 C24.2478,76.176 24.2118,77.229 24.3168,77.971 C23.4058,76.542 22.5868,75.049 21.8658,73.501 C21.9118,73.522 21.9588,73.542 22.0088,73.558 C23.0198,73.869 24.0448,72.884 25.0148,69.745 C25.9838,66.607 24.6988,65.177 24.6988,65.177 C24.6988,65.177 22.8308,65.632 21.8618,68.772 C21.4278,70.175 21.2098,71.216 21.1918,71.969 C20.5398,70.394 19.9878,68.767 19.5448,67.095 C19.5888,67.126 19.6348,67.156 19.6848,67.182 C20.6268,67.664 21.8078,66.871 23.3068,63.949 C24.8078,61.026 23.7898,59.396 23.7898,59.396 C23.7898,59.396 21.8708,59.519 20.3718,62.443 C19.6978,63.754 19.3028,64.744 19.1548,65.483 C18.7918,63.825 18.5338,62.127 18.3898,60.398 C18.4258,60.433 18.4618,60.467 18.5038,60.499 C19.3468,61.138 20.6478,60.562 22.6318,57.945 C24.6168,55.327 23.8978,53.544 23.8978,53.544 C23.8978,53.544 21.9868,53.332 20.0028,55.952 C19.1238,57.11 18.5648,58.007 18.2878,58.704 C18.2668,58.192 18.2538,57.676 18.2538,57.158 C18.2538,55.967 18.3148,54.786 18.4228,53.615 C18.4478,53.648 18.4718,53.681 18.5008,53.712 C19.2208,54.489 20.6018,54.147 23.0098,51.913 C25.4188,49.68 25.0208,47.8 25.0208,47.8 C25.0208,47.8 23.1758,47.26 20.7668,49.494 C19.7208,50.463 19.0208,51.24 18.6218,51.871 C18.8528,50.203 19.1928,48.56 19.6338,46.951 C19.6488,46.977 19.6598,47.003 19.6768,47.029 C20.2508,47.917 21.6698,47.822 24.4298,46.04 C27.1898,44.259 27.1238,42.338 27.1238,42.338 C27.1238,42.338 25.4008,41.486 22.6408,43.268 C21.4748,44.02 20.6668,44.647 20.1608,45.19 C20.6708,43.622 21.2798,42.093 21.9808,40.61 C21.9858,40.623 21.9888,40.637 21.9948,40.651 C22.4058,41.626 23.8198,41.778 26.8478,40.502 C29.8758,39.228 30.1438,37.325 30.1438,37.325 C30.1438,37.325 28.5948,36.187 25.5668,37.462 C24.3288,37.983 23.5048,38.447 22.9118,38.881 C23.6718,37.46 24.4938,36.087 25.5098,34.771 L25.5098,34.773 C25.5098,35.804 27.0498,36.199 30.2518,35.469 C33.4558,34.74 34.0198,32.912 34.0198,32.912 C34.0198,32.912 32.6768,31.522 29.4728,32.252 C28.1998,32.541 27.2558,32.836 26.5978,33.151 C27.5758,31.906 28.6268,30.72 29.7528,29.599 C29.8258,30.639 31.1058,31.254 34.3578,31.092 C37.6388,30.93 38.5418,29.234 38.5418,29.234 C38.5418,29.234 37.4758,27.634 34.1938,27.797 C32.9208,27.86 31.9618,27.983 31.2638,28.17 C33.0998,26.529 35.0998,25.053 37.2488,23.773 C37.8578,24.36 39.2028,24.127 41.7748,22.888 C44.7348,21.463 44.9078,19.549 44.9078,19.549 C44.9078,19.549 43.3028,18.49 40.3428,19.915 C37.4108,21.327 36.5778,22.479 37.0088,23.427 C34.9278,24.668 32.9818,26.091 31.1898,27.67 C31.4438,27.036 31.6838,26.197 31.9168,25.116 C32.6098,21.904 31.2048,20.592 31.2048,20.592 C31.2048,20.592 29.3828,21.208 28.6908,24.42 C27.9988,27.631 28.4098,28.994 29.4438,29.216 C29.4728,29.222 29.5008,29.224 29.5288,29.228 C28.4508,30.295 27.4338,31.419 26.4888,32.599 C26.6228,31.937 26.7098,31.084 26.7498,30.006 C26.8748,26.723 25.2628,25.676 25.2628,25.676 C25.2628,25.676 23.5768,26.599 23.4528,29.882 C23.3278,33.164 23.9698,34.435 25.0268,34.474 C25.0458,34.475 25.0638,34.472 25.0828,34.472 C24.2208,35.69 23.4248,36.953 22.7058,38.261 C22.7178,37.595 22.6538,36.758 22.5108,35.72 C22.0638,32.466 20.2948,31.714 20.2948,31.714 C20.2948,31.714 18.7938,32.915 19.2418,36.17 C19.6898,39.425 20.5418,40.564 21.5898,40.419 C21.5958,40.418 21.6018,40.416 21.6078,40.415 C20.9818,41.739 20.4278,43.097 19.9508,44.487 C19.8438,43.84 19.6388,43.047 19.3288,42.083 C18.3228,38.956 16.4498,38.523 16.4498,38.523 C16.4498,38.523 15.1818,39.967 16.1878,43.095 C17.1868,46.203 18.2168,47.182 19.2178,46.876 C18.8388,48.263 18.5348,49.675 18.3098,51.108 C18.0918,50.499 17.7588,49.774 17.2998,48.903 C15.7658,45.997 13.8468,45.896 13.8468,45.896 C13.8468,45.896 12.8478,47.538 14.3818,50.444 C15.8908,53.304 17.0678,54.1 17.9968,53.654 C17.8918,54.813 17.8328,55.981 17.8328,57.158 C17.8328,57.415 17.8368,57.673 17.8418,57.93 C17.5228,57.377 17.0768,56.732 16.4848,55.971 C14.4708,53.376 12.5628,53.61 12.5628,53.61 C12.5628,53.61 11.8638,55.401 13.8788,57.995 C15.8488,60.531 17.1408,61.12 17.9778,60.54 C18.0988,61.962 18.2948,63.363 18.5628,64.738 C18.1538,64.256 17.6108,63.707 16.9108,63.073 C14.4768,60.868 12.6378,61.429 12.6378,61.429 C12.6378,61.429 12.2608,63.314 14.6958,65.519 C17.0588,67.659 18.4308,68.025 19.1588,67.328 C19.5218,68.693 19.9558,70.027 20.4578,71.328 C19.9748,70.929 19.3518,70.489 18.5638,69.994 C15.7828,68.244 14.0698,69.116 14.0698,69.116 C14.0698,69.116 14.0258,71.037 16.8068,72.786 C19.4968,74.479 20.9108,74.606 21.5108,73.801 C22.1048,75.075 22.7638,76.311 23.4858,77.505 C22.9418,77.197 22.2528,76.871 21.3928,76.521 C18.3508,75.282 16.8148,76.438 16.8148,76.438 C16.8148,76.438 17.1058,78.338 20.1478,79.578 C23.0938,80.778 24.5088,80.656 24.9578,79.757 C25.7688,80.91 26.6408,82.016 27.5688,83.074 C26.9758,82.861 26.2328,82.658 25.3128,82.459 C22.1008,81.766 20.7898,83.171 20.7898,83.171 C20.7898,83.171 21.4058,84.993 24.6168,85.685 C27.7418,86.359 29.1118,85.986 29.3888,85.012 C30.3948,86.012 31.4548,86.957 32.5638,87.844 C31.9378,87.735 31.1608,87.661 30.2038,87.625 C26.9208,87.501 25.8738,89.113 25.8738,89.113 C25.8738,89.113 26.7958,90.799 30.0788,90.923 C33.2968,91.045 34.5778,90.43 34.6648,89.41 C35.8398,90.227 37.0608,90.983 38.3258,91.669 C37.6818,91.667 36.8888,91.731 35.9178,91.865 C32.6628,92.312 31.9118,94.081 31.9118,94.081 C31.9118,94.081 33.1128,95.581 36.3678,95.134 C39.5908,94.691 40.7378,93.85 40.6188,92.815 C41.9398,93.423 43.3018,93.96 44.6988,94.421 C44.0498,94.528 43.2518,94.735 42.2808,95.047 C39.1528,96.053 38.7198,97.925 38.7198,97.925 C38.7198,97.925 40.1648,99.195 43.2918,98.189 C46.4188,97.183 47.3928,96.146 47.0688,95.138 C47.0668,95.131 47.0638,95.126 47.0618,95.119 C50.2548,95.953 53.6128,96.4 57.0828,96.4 C60.6198,96.4 64.0568,95.917 67.3328,95.018 C67.3158,95.057 67.2978,95.096 67.2838,95.138 C66.9598,96.146 67.9338,97.183 71.0618,98.189 C74.1888,99.195 75.6328,97.925 75.6328,97.925 C75.6328,97.925 75.1998,96.053 72.0718,95.047 C70.9728,94.693 70.0988,94.478 69.4078,94.387 C70.9028,93.885 72.3588,93.294 73.7718,92.622 C73.7568,92.675 73.7438,92.729 73.7358,92.786 C73.5918,93.834 74.7308,94.686 77.9848,95.134 C81.2398,95.581 82.4408,94.081 82.4408,94.081 C82.4408,94.081 81.6898,92.312 78.4358,91.865 C77.2518,91.702 76.3308,91.642 75.6258,91.68 C77.0338,90.915 78.3918,90.068 79.6918,89.143 C79.6828,89.209 79.6788,89.278 79.6818,89.349 C79.7208,90.407 80.9908,91.048 84.2738,90.923 C87.5568,90.799 88.4798,89.113 88.4798,89.113 C88.4798,89.113 87.4328,87.501 84.1488,87.625 C82.9198,87.672 81.9798,87.777 81.2858,87.946 C82.5608,86.939 83.7728,85.853 84.9148,84.699 C84.9158,84.775 84.9218,84.852 84.9398,84.932 C85.1628,85.966 86.5238,86.377 89.7358,85.685 C92.9468,84.993 93.5628,83.171 93.5628,83.171 C93.5628,83.171 92.2518,81.766 89.0408,82.459 C87.8188,82.722 86.9028,82.994 86.2468,83.286 C87.3368,82.071 88.3528,80.788 89.2868,79.446 C89.3008,79.52 89.3208,79.594 89.3508,79.668 C89.7508,80.649 91.1628,80.817 94.2048,79.578 C97.2478,78.338 97.5378,76.438 97.5378,76.438 C97.5378,76.438 96.0018,75.282 92.9598,76.521 C91.8138,76.989 90.9618,77.411 90.3678,77.809 C91.2248,76.437 92.0008,75.01 92.6868,73.533 C92.7118,73.596 92.7428,73.658 92.7818,73.719 C93.3448,74.616 94.7648,74.536 97.5458,72.786 C100.3268,71.037 100.2828,69.116 100.2828,69.116 C100.2828,69.116 98.5698,68.244 95.7888,69.994 C94.7588,70.641 94.0028,71.197 93.4868,71.686 C94.0848,70.203 94.5938,68.676 95.0078,67.112 C95.0428,67.164 95.0818,67.216 95.1268,67.265" id="Fill-12" fill="#FFFFFF"></path>
                                <polygon id="Fill-13" fill="#FFFFFF" points="44.0926 43.6156 44.0926 43.0116 46.0156 43.0116 46.0156 36.9116 44.0656 37.3616 44.0656 36.7576 46.3516 36.1416 46.7636 36.1416 46.7636 43.0116 48.5936 43.0116 48.5936 43.6156"></polygon>
                                <path d="M50.6654,39.9339 C50.6654,40.4169 50.7044,40.8549 50.7834,41.2469 C50.8624,41.6389 50.9814,41.9749 51.1404,42.2529 C51.3004,42.5319 51.5004,42.7459 51.7424,42.8959 C51.9844,43.0459 52.2664,43.1219 52.5884,43.1219 C52.9034,43.1219 53.1834,43.0459 53.4264,42.8959 C53.6704,42.7459 53.8754,42.5319 54.0424,42.2529 C54.2084,41.9749 54.3354,41.6389 54.4214,41.2469 C54.5074,40.8549 54.5504,40.4169 54.5504,39.9339 C54.5504,39.4509 54.5074,39.0069 54.4214,38.6039 C54.3354,38.2009 54.2084,37.8539 54.0424,37.5629 C53.8754,37.2709 53.6704,37.0439 53.4264,36.8809 C53.1834,36.7179 52.9034,36.6359 52.5884,36.6359 C52.2664,36.6359 51.9844,36.7179 51.7424,36.8809 C51.5004,37.0439 51.3004,37.2709 51.1404,37.5629 C50.9814,37.8539 50.8624,38.2009 50.7834,38.6039 C50.7044,39.0069 50.6654,39.4509 50.6654,39.9339 M49.9174,39.9339 C49.9174,39.3439 49.9744,38.8089 50.0884,38.3299 C50.2014,37.8489 50.3714,37.4389 50.5964,37.0979 C50.8214,36.7569 51.1014,36.4949 51.4344,36.3099 C51.7684,36.1239 52.1524,36.0319 52.5884,36.0319 C53.0284,36.0319 53.4164,36.1239 53.7534,36.3099 C54.0904,36.4949 54.3734,36.7569 54.6034,37.0979 C54.8324,37.4389 55.0044,37.8489 55.1224,38.3299 C55.2394,38.8089 55.2984,39.3439 55.2984,39.9339 C55.2984,40.5279 55.2394,41.0589 55.1224,41.5279 C55.0044,41.9969 54.8324,42.3939 54.6034,42.7199 C54.3734,43.0459 54.0904,43.2949 53.7534,43.4669 C53.4164,43.6389 53.0284,43.7259 52.5884,43.7259 C52.1524,43.7259 51.7684,43.6389 51.4344,43.4669 C51.1014,43.2949 50.8214,43.0459 50.5964,42.7199 C50.3714,42.3939 50.2014,41.9969 50.0884,41.5279 C49.9744,41.0589 49.9174,40.5279 49.9174,39.9339" id="Fill-14" fill="#FFFFFF"></path>
                                <path d="M57.3094,39.9339 C57.3094,40.4169 57.3484,40.8549 57.4274,41.2469 C57.5064,41.6389 57.6254,41.9749 57.7844,42.2529 C57.9444,42.5319 58.1444,42.7459 58.3864,42.8959 C58.6284,43.0459 58.9104,43.1219 59.2324,43.1219 C59.5474,43.1219 59.8274,43.0459 60.0704,42.8959 C60.3144,42.7459 60.5194,42.5319 60.6864,42.2529 C60.8524,41.9749 60.9794,41.6389 61.0654,41.2469 C61.1514,40.8549 61.1944,40.4169 61.1944,39.9339 C61.1944,39.4509 61.1514,39.0069 61.0654,38.6039 C60.9794,38.2009 60.8524,37.8539 60.6864,37.5629 C60.5194,37.2709 60.3144,37.0439 60.0704,36.8809 C59.8274,36.7179 59.5474,36.6359 59.2324,36.6359 C58.9104,36.6359 58.6284,36.7179 58.3864,36.8809 C58.1444,37.0439 57.9444,37.2709 57.7844,37.5629 C57.6254,37.8539 57.5064,38.2009 57.4274,38.6039 C57.3484,39.0069 57.3094,39.4509 57.3094,39.9339 M56.5614,39.9339 C56.5614,39.3439 56.6184,38.8089 56.7324,38.3299 C56.8454,37.8489 57.0154,37.4389 57.2404,37.0979 C57.4664,36.7569 57.7454,36.4949 58.0784,36.3099 C58.4124,36.1239 58.7964,36.0319 59.2324,36.0319 C59.6724,36.0319 60.0604,36.1239 60.3974,36.3099 C60.7344,36.4949 61.0174,36.7569 61.2474,37.0979 C61.4764,37.4389 61.6484,37.8489 61.7664,38.3299 C61.8834,38.8089 61.9424,39.3439 61.9424,39.9339 C61.9424,40.5279 61.8834,41.0589 61.7664,41.5279 C61.6484,41.9969 61.4764,42.3939 61.2474,42.7199 C61.0174,43.0459 60.7344,43.2949 60.3974,43.4669 C60.0604,43.6389 59.6724,43.7259 59.2324,43.7259 C58.7964,43.7259 58.4124,43.6389 58.0784,43.4669 C57.7454,43.2949 57.4664,43.0459 57.2404,42.7199 C57.0154,42.3939 56.8454,41.9969 56.7324,41.5279 C56.6184,41.0589 56.5614,40.5279 56.5614,39.9339" id="Fill-15" fill="#FFFFFF"></path>
                                <path d="M68.7455,42.055 C68.7455,42.205 68.7675,42.344 68.8115,42.473 C68.8555,42.601 68.9165,42.713 68.9955,42.811 C69.0745,42.908 69.1695,42.984 69.2815,43.038 C69.3925,43.094 69.5185,43.121 69.6575,43.121 C69.7935,43.121 69.9175,43.094 70.0315,43.038 C70.1445,42.984 70.2425,42.908 70.3235,42.811 C70.4035,42.713 70.4655,42.601 70.5095,42.473 C70.5535,42.344 70.5755,42.205 70.5755,42.055 C70.5755,41.909 70.5535,41.77 70.5095,41.64 C70.4655,41.51 70.4035,41.397 70.3235,41.299 C70.2425,41.202 70.1445,41.126 70.0315,41.072 C69.9175,41.016 69.7935,40.989 69.6575,40.989 C69.5185,40.989 69.3925,41.016 69.2815,41.072 C69.1695,41.126 69.0745,41.202 68.9955,41.299 C68.9165,41.397 68.8555,41.51 68.8115,41.64 C68.7675,41.77 68.7455,41.909 68.7455,42.055 L68.7455,42.055 Z M67.9985,42.055 C67.9985,41.795 68.0375,41.561 68.1165,41.355 C68.1955,41.148 68.3065,40.972 68.4495,40.829 C68.5915,40.687 68.7665,40.576 68.9715,40.499 C69.1765,40.423 69.4055,40.384 69.6575,40.384 C69.9105,40.384 70.1395,40.423 70.3445,40.499 C70.5505,40.576 70.7245,40.687 70.8695,40.829 C71.0145,40.972 71.1255,41.148 71.2045,41.355 C71.2835,41.561 71.3235,41.795 71.3235,42.055 C71.3235,42.319 71.2835,42.554 71.2045,42.761 C71.1255,42.968 71.0145,43.143 70.8695,43.286 C70.7245,43.429 70.5505,43.538 70.3445,43.613 C70.1395,43.688 69.9105,43.726 69.6575,43.726 C69.4055,43.726 69.1765,43.688 68.9715,43.613 C68.7665,43.538 68.5915,43.429 68.4495,43.286 C68.3065,43.143 68.1955,42.968 68.1165,42.761 C68.0375,42.554 67.9985,42.319 67.9985,42.055 L67.9985,42.055 Z M69.7565,36.142 L70.3445,36.142 L65.1895,43.616 L64.5745,43.616 L69.7565,36.142 Z M64.3605,37.702 C64.3605,37.853 64.3815,37.992 64.4235,38.12 C64.4655,38.248 64.5255,38.361 64.6045,38.458 C64.6835,38.555 64.7795,38.631 64.8935,38.686 C65.0065,38.742 65.1335,38.769 65.2725,38.769 C65.4085,38.769 65.5325,38.742 65.6455,38.686 C65.7595,38.631 65.8565,38.555 65.9375,38.458 C66.0175,38.361 66.0805,38.248 66.1245,38.12 C66.1685,37.992 66.1905,37.853 66.1905,37.702 C66.1905,37.556 66.1685,37.417 66.1245,37.287 C66.0805,37.158 66.0175,37.044 65.9375,36.947 C65.8565,36.85 65.7595,36.774 65.6455,36.719 C65.5325,36.663 65.4085,36.636 65.2725,36.636 C65.1335,36.636 65.0065,36.663 64.8935,36.719 C64.7795,36.774 64.6835,36.85 64.6045,36.947 C64.5255,37.044 64.4655,37.158 64.4235,37.287 C64.3815,37.417 64.3605,37.556 64.3605,37.702 L64.3605,37.702 Z M63.6125,37.702 C63.6125,37.443 63.6515,37.209 63.7285,37.002 C63.8055,36.795 63.9145,36.619 64.0585,36.477 C64.2015,36.334 64.3745,36.224 64.5795,36.148 C64.7855,36.071 65.0165,36.032 65.2725,36.032 C65.5175,36.032 65.7435,36.071 65.9485,36.148 C66.1535,36.224 66.3295,36.334 66.4755,36.477 C66.6225,36.619 66.7365,36.795 66.8165,37.002 C66.8975,37.209 66.9375,37.443 66.9375,37.702 C66.9375,37.966 66.8975,38.201 66.8165,38.409 C66.7365,38.616 66.6225,38.79 66.4755,38.934 C66.3295,39.076 66.1535,39.186 65.9485,39.26 C65.7435,39.335 65.5175,39.373 65.2725,39.373 C65.0165,39.373 64.7855,39.335 64.5795,39.26 C64.3745,39.186 64.2015,39.076 64.0585,38.934 C63.9145,38.79 63.8055,38.616 63.7285,38.409 C63.6515,38.201 63.6125,37.966 63.6125,37.702 L63.6125,37.702 Z" id="Fill-16" fill="#FFFFFF"></path>
                                <path d="M31.0706,57.6859 L33.7706,57.6859 L32.4206,51.0179 L31.0706,57.6859 Z M34.0706,59.1649 L30.7716,59.1649 L30.0666,62.6709 L28.9166,62.6709 L31.8276,48.8899 L33.0016,48.8899 L35.9306,62.6709 L34.7806,62.6709 L34.0706,59.1649 Z" id="Fill-17" fill="#FFFFFF"></path>
                                <path d="M41.516,48.89 L42.666,48.89 L42.666,58.496 C42.666,59.2 42.591,59.821 42.44,60.361 C42.289,60.902 42.077,61.359 41.804,61.734 C41.53,62.109 41.201,62.393 40.817,62.585 C40.433,62.778 40.009,62.874 39.543,62.874 C39.081,62.874 38.661,62.778 38.281,62.585 C37.902,62.393 37.576,62.109 37.304,61.734 C37.032,61.359 36.821,60.902 36.67,60.361 C36.519,59.821 36.444,59.2 36.444,58.496 L36.444,48.89 L37.595,48.89 L37.595,58.496 C37.595,58.962 37.642,59.376 37.739,59.738 C37.834,60.099 37.968,60.402 38.141,60.645 C38.313,60.888 38.518,61.074 38.757,61.203 C38.995,61.33 39.258,61.395 39.543,61.395 C39.837,61.395 40.105,61.33 40.348,61.203 C40.59,61.074 40.798,60.888 40.97,60.645 C41.142,60.402 41.276,60.099 41.372,59.738 C41.468,59.376 41.516,58.962 41.516,58.496 L41.516,48.89 Z" id="Fill-18" fill="#FFFFFF"></path>
                                <polygon id="Fill-19" fill="#FFFFFF" points="46.8773 50.3695 46.8773 62.6715 45.7273 62.6715 45.7273 50.3695 43.2323 50.3695 43.2323 48.8905 49.3843 48.8905 49.3843 50.3695"></polygon>
                                <polygon id="Fill-20" fill="#FFFFFF" points="49.9496 48.89 51.1006 48.89 51.1006 55.051 54.9686 55.051 54.9686 48.89 56.1186 48.89 56.1186 62.671 54.9686 62.671 54.9686 56.531 51.1006 56.531 51.1006 62.671 49.9496 62.671"></polygon>
                                <polygon id="Fill-21" fill="#FFFFFF" points="57.3309 62.6712 57.3309 48.8902 62.0329 48.8902 62.0329 50.3692 58.4809 50.3692 58.4809 54.8682 61.6509 54.8682 61.6509 56.3482 58.4809 56.3482 58.4809 61.1922 62.0329 61.1922 62.0329 62.6712"></polygon>
                                <polygon id="Fill-22" fill="#FFFFFF" points="62.7274 48.89 63.8784 48.89 63.8784 48.9 63.8844 48.89 67.9984 59.591 67.9984 48.89 69.1494 48.89 69.1494 62.671 67.9984 62.671 63.8784 51.951 63.8784 62.671 62.7274 62.671"></polygon>
                                <polygon id="Fill-23" fill="#FFFFFF" points="73.3665 50.3695 73.3665 62.6715 72.2165 62.6715 72.2165 50.3695 69.7205 50.3695 69.7205 48.8905 75.8725 48.8905 75.8725 50.3695"></polygon>
                                <polygon id="Fill-24" fill="#FFFFFF" points="76.1747 62.6712 76.1747 61.1922 77.2607 61.1922 77.2607 50.3692 76.1747 50.3692 76.1747 48.8902 79.5087 48.8902 79.5087 50.3692 78.4107 50.3692 78.4107 61.1922 79.5087 61.1922 79.5087 62.6712"></polygon>
                                <path d="M80.1097,55.7601 C80.1097,54.6931 80.1947,53.7241 80.3647,52.8521 C80.5357,51.9811 80.7787,51.2361 81.0957,50.6171 C81.4127,49.9991 81.7977,49.5231 82.2497,49.1891 C82.7017,48.8551 83.2117,48.6871 83.7787,48.6871 C83.9787,48.6871 84.1587,48.7051 84.3217,48.7421 C84.4847,48.7801 84.6327,48.8291 84.7677,48.8901 C84.9027,48.9501 85.0267,49.0221 85.1407,49.1031 C85.2547,49.1841 85.3617,49.2681 85.4637,49.3561 L85.1407,50.6731 C84.9487,50.5181 84.7427,50.3951 84.5217,50.3031 C84.2997,50.2121 84.0527,50.1661 83.7787,50.1661 C83.4027,50.1661 83.0607,50.2751 82.7517,50.4901 C82.4427,50.7071 82.1767,51.0431 81.9567,51.4991 C81.7347,51.9551 81.5637,52.5341 81.4427,53.2381 C81.3207,53.9401 81.2607,54.7811 81.2607,55.7601 C81.2607,56.7391 81.3237,57.5841 81.4517,58.2941 C81.5787,59.0031 81.7577,59.5871 81.9887,60.0471 C82.2187,60.5061 82.4967,60.8461 82.8217,61.0661 C83.1467,61.2841 83.5087,61.3951 83.9077,61.3951 C84.0757,61.3951 84.2317,61.3761 84.3747,61.3391 C84.5177,61.3021 84.6497,61.2521 84.7707,61.1921 C84.8917,61.1311 85.0037,61.0661 85.1057,60.9941 C85.2067,60.9231 85.3007,60.8541 85.3867,60.7861 L85.6337,62.0831 C85.4257,62.3071 85.1747,62.4941 84.8797,62.6461 C84.5837,62.7981 84.2167,62.8741 83.7787,62.8741 C83.2117,62.8741 82.7017,62.7031 82.2497,62.3631 C81.7977,62.0221 81.4127,61.5401 81.0957,60.9181 C80.7787,60.2971 80.5357,59.5491 80.3647,58.6741 C80.1947,57.7991 80.1097,56.8271 80.1097,55.7601" id="Fill-25" fill="#FFFFFF"></path>
                            </g>
                        </g>
                        <g id="Group-17" transform="translate(178.000000, 1.000000)">
                            <g id="Group-6" transform="translate(19.132000, 121.000000)" fill="#4A4A4A" font-family="RobotoCondensed-Regular, Roboto Condensed" font-size="12" font-style="condensed" font-weight="normal">
                                <text id="Straightforward-" letter-spacing="0.00333333333">
                                    <tspan x="0" y="11">St</tspan>
                                    <tspan x="9.76838542" y="11" letter-spacing="-0.229466667">r</tspan>
                                    <tspan x="12.9549344" y="11">aightfo</tspan>
                                    <tspan x="46.5466271" y="11" letter-spacing="0.105333333">r</tspan>
                                    <tspan x="50.4019604" y="11">wa</tspan>
                                    <tspan x="63.9555021" y="11" letter-spacing="-0.105866667">r</tspan>
                                    <tspan x="67.3886979" y="11">d </tspan>
                                </text>
                                <text id="Formulations" letter-spacing="-0.114266667">
                                    <tspan x="7" y="29">F</tspan>
                                    <tspan x="12.5283115" y="29" letter-spacing="0.00333333333">ormulations</tspan>
                                </text>
                            </g>
                            <path d="M114.353,57.177 C114.353,88.754 88.754,114.353 57.176,114.353 C25.599,114.353 1.39266376e-12,88.754 1.39266376e-12,57.177 C1.39266376e-12,25.599 25.599,2.84217094e-14 57.176,2.84217094e-14 C88.754,2.84217094e-14 114.353,25.599 114.353,57.177" id="Fill-26" fill="#B0882D"></path>
                            <path d="M24.7647,32.2493 C24.5437,32.2493 24.3347,32.3363 24.1767,32.4943 C24.0187,32.6523 23.9317,32.8603 23.9317,33.0823 L23.9317,36.7153 C23.9317,36.9363 24.0187,37.1453 24.1767,37.3033 C24.3347,37.4603 24.5437,37.5473 24.7647,37.5473 L49.0137,37.5473 C49.2347,37.5473 49.4437,37.4613 49.6007,37.3033 C49.7587,37.1453 49.8457,36.9363 49.8457,36.7153 L49.8457,33.0823 C49.8457,32.8603 49.7587,32.6513 49.6007,32.4943 C49.4437,32.3363 49.2347,32.2493 49.0137,32.2493 L24.7647,32.2493 Z M49.0137,38.6583 L24.7647,38.6583 C24.2467,38.6583 23.7587,38.4563 23.3907,38.0893 C23.0227,37.7213 22.8207,37.2333 22.8207,36.7153 L22.8207,33.0823 C22.8207,32.5643 23.0227,32.0763 23.3907,31.7083 C23.7587,31.3413 24.2467,31.1383 24.7647,31.1383 L49.0137,31.1383 C49.5317,31.1383 50.0197,31.3413 50.3867,31.7083 C50.7547,32.0763 50.9567,32.5643 50.9567,33.0823 L50.9567,36.7153 C50.9567,37.2333 50.7537,37.7213 50.3867,38.0883 C50.0187,38.4563 49.5317,38.6583 49.0137,38.6583 L49.0137,38.6583 Z M81.9407,42.8953 C81.3927,42.8953 80.8787,43.1083 80.4927,43.4953 C80.1047,43.8823 79.8917,44.3963 79.8917,44.9443 C79.8917,45.4913 80.1047,46.0063 80.4927,46.3943 C80.8787,46.7803 81.3927,46.9933 81.9407,46.9933 C82.1077,46.9933 82.2747,46.9743 82.4357,46.9343 C82.5917,46.8953 82.7437,46.8373 82.8867,46.7633 C83.2137,46.5923 83.4907,46.3363 83.6847,46.0213 C83.8847,45.6983 83.9907,45.3263 83.9907,44.9443 C83.9907,44.3963 83.7777,43.8823 83.3897,43.4953 C83.0027,43.1083 82.4887,42.8953 81.9407,42.8953 L81.9407,42.8953 Z M81.9407,48.1043 C81.0967,48.1043 80.3027,47.7753 79.7057,47.1793 C79.1097,46.5823 78.7807,45.7883 78.7807,44.9443 C78.7807,44.1003 79.1097,43.3073 79.7057,42.7093 C80.3027,42.1123 81.0967,41.7843 81.9407,41.7843 C82.7847,41.7843 83.5787,42.1123 84.1757,42.7093 C84.7727,43.3073 85.1017,44.1003 85.1017,44.9443 C85.1017,45.5333 84.9387,46.1073 84.6297,46.6063 C84.3297,47.0913 83.9047,47.4853 83.3997,47.7483 C83.1797,47.8633 82.9447,47.9523 82.7027,48.0123 C82.4547,48.0733 82.1987,48.1043 81.9407,48.1043 L81.9407,48.1043 Z M40.1437,52.4113 C39.5967,52.4113 39.0817,52.6253 38.6947,53.0123 C38.3077,53.3983 38.0947,53.9133 38.0947,54.4613 C38.0947,55.0083 38.3077,55.5223 38.6947,55.9093 C39.0817,56.2973 39.5967,56.5103 40.1437,56.5103 C40.6907,56.5103 41.2047,56.2973 41.5927,55.9093 C41.9797,55.5223 42.1927,55.0083 42.1927,54.4613 C42.1927,53.9133 41.9797,53.3983 41.5927,53.0123 C41.2047,52.6253 40.6907,52.4113 40.1437,52.4113 L40.1437,52.4113 Z M40.1437,57.6213 C39.2997,57.6213 38.5057,57.2923 37.9087,56.6953 C37.3117,56.0983 36.9837,55.3053 36.9837,54.4613 C36.9837,53.6163 37.3117,52.8233 37.9087,52.2263 C38.5057,51.6293 39.2997,51.3013 40.1437,51.3013 C40.9877,51.3013 41.7817,51.6293 42.3777,52.2263 C42.9747,52.8233 43.3047,53.6163 43.3047,54.4613 C43.3047,55.3053 42.9747,56.0983 42.3777,56.6953 C41.7807,57.2923 40.9877,57.6213 40.1437,57.6213 L40.1437,57.6213 Z M76.3547,61.4363 C75.8077,61.4363 75.2937,61.6483 74.9067,62.0363 C74.5197,62.4233 74.3067,62.9373 74.3067,63.4853 C74.3067,64.0323 74.5197,64.5473 74.9067,64.9343 C75.2937,65.3213 75.8077,65.5343 76.3547,65.5343 C76.6017,65.5343 76.8417,65.4913 77.0707,65.4063 C77.2907,65.3243 77.4947,65.2043 77.6767,65.0523 C77.8997,64.8633 78.0837,64.6253 78.2087,64.3623 C78.3387,64.0873 78.4057,63.7923 78.4057,63.4853 C78.4057,62.9373 78.1917,62.4233 77.8047,62.0363 C77.4167,61.6493 76.9027,61.4363 76.3547,61.4363 L76.3547,61.4363 Z M76.3547,66.6453 C75.5117,66.6453 74.7177,66.3163 74.1207,65.7203 C73.5247,65.1223 73.1957,64.3293 73.1957,63.4853 C73.1957,62.6413 73.5247,61.8483 74.1207,61.2503 C74.7177,60.6533 75.5117,60.3243 76.3547,60.3243 C77.1987,60.3243 77.9927,60.6533 78.5897,61.2503 C79.1877,61.8483 79.5167,62.6413 79.5167,63.4853 C79.5167,63.9583 79.4137,64.4143 79.2117,64.8393 C79.0197,65.2443 78.7367,65.6103 78.3927,65.9003 C78.1137,66.1363 77.7997,66.3203 77.4587,66.4473 C77.1057,66.5793 76.7347,66.6453 76.3547,66.6453 L76.3547,66.6453 Z M35.7767,67.6793 C35.2287,67.6793 34.7147,67.8933 34.3277,68.2793 C33.9407,68.6663 33.7267,69.1813 33.7267,69.7283 C33.7267,70.2753 33.9407,70.7903 34.3277,71.1773 C34.7147,71.5643 35.2287,71.7773 35.7767,71.7773 C36.3237,71.7773 36.8377,71.5643 37.2247,71.1773 C37.6127,70.7903 37.8257,70.2753 37.8257,69.7283 C37.8257,69.1813 37.6127,68.6673 37.2257,68.2793 C36.8387,67.8933 36.3237,67.6793 35.7767,67.6793 L35.7767,67.6793 Z M35.7767,72.8893 C34.9327,72.8893 34.1387,72.5603 33.5417,71.9633 C32.9447,71.3663 32.6167,70.5723 32.6167,69.7283 C32.6167,68.8843 32.9447,68.0913 33.5417,67.4933 C34.1387,66.8963 34.9317,66.5683 35.7767,66.5683 C36.6207,66.5683 37.4137,66.8963 38.0107,67.4933 C38.6077,68.0913 38.9367,68.8853 38.9367,69.7283 C38.9367,70.5723 38.6077,71.3663 38.0117,71.9633 C37.4137,72.5603 36.6197,72.8893 35.7767,72.8893 L35.7767,72.8893 Z M64.5677,20.1733 C64.3487,20.1733 64.1387,20.2763 63.9747,20.4643 C63.7927,20.6733 63.6927,20.9543 63.6927,21.2563 L63.6927,25.5413 C63.6927,25.8433 63.7927,26.1243 63.9747,26.3323 C64.1387,26.5203 64.3487,26.6233 64.5677,26.6233 L89.5477,26.6233 C89.7647,26.6233 89.9747,26.5203 90.1387,26.3323 C90.3207,26.1243 90.4217,25.8433 90.4217,25.5413 L90.4217,21.2563 C90.4217,20.9543 90.3207,20.6733 90.1387,20.4643 C89.9747,20.2763 89.7647,20.1733 89.5477,20.1733 L64.5677,20.1733 Z M68.7447,27.7333 C68.7877,27.7643 68.8277,27.7983 68.8657,27.8363 C69.0357,28.0063 69.1307,28.2333 69.1307,28.4753 L69.1307,68.1573 C69.1307,68.5243 69.1417,68.8273 69.1967,69.1103 C69.2497,69.3823 69.3427,69.6433 69.5087,69.9823 C69.5777,70.1273 69.6537,70.2703 69.7327,70.4083 C69.7587,70.4543 69.7857,70.4993 69.8117,70.5443 L69.8117,36.1483 C69.8117,35.9083 69.9057,35.6823 70.0767,35.5113 C70.2467,35.3413 70.4737,35.2463 70.7147,35.2463 L84.9527,35.2463 L84.9527,28.4753 C84.9527,28.2333 85.0457,28.0063 85.2167,27.8363 C85.2537,27.7983 85.2947,27.7643 85.3377,27.7333 L68.7447,27.7333 Z M66.0187,28.6823 C66.0187,32.7303 66.0167,36.8423 66.0147,40.8193 L66.0117,46.9663 C66.0097,52.4543 66.0087,58.9423 66.0187,65.4563 C66.0347,73.7713 71.7157,77.5593 76.9887,77.5593 C79.8997,77.5593 82.5977,76.4623 84.5837,74.4733 C86.7687,72.2833 87.9197,69.1663 87.9137233,65.4583 C87.9027,58.9453 87.9037,52.4553 87.9057,46.9653 C87.9067,44.9103 87.9077,42.8553 87.9087,40.8013 C87.9107,36.8293 87.9137233,32.7243 87.9137233,28.6823 L86.0627,28.6823 L86.0627,35.4553 C86.0627,35.6963 85.9697,35.9233 85.7987,36.0933 C85.6287,36.2643 85.4017,36.3573 85.1617,36.3573 L70.9237,36.3573 L70.9237,70.8043 C70.9237,70.9033 70.9237,70.9973 70.9237,71.0853 C70.9247,71.3723 70.9257,71.5993 70.9147,71.7753 C70.9037,71.9393 70.8827,72.2803 70.6137,72.4763 C70.4767,72.5743 70.3087,72.6123 70.1417,72.5823 C69.7997,72.5203 69.5947,72.2463 69.0467,71.4143 C68.9497,71.2663 68.8547,71.1123 68.7677,70.9593 C68.6757,70.7993 68.5887,70.6343 68.5087,70.4683 C68.3027,70.0433 68.1777,69.6893 68.1067,69.3233 C68.0347,68.9523 68.0187,68.5893 68.0187,68.1573 L68.0187,28.6823 L66.0187,28.6823 Z M76.9887,78.6693 C75.4587,78.6693 73.9687,78.3913 72.5617,77.8403 C71.0987,77.2693 69.7957,76.4303 68.6867,75.3473 C66.2227,72.9403 64.9157,69.5203 64.9087,65.4583 C64.8977,58.9433 64.8987,52.4543 64.9007,46.9653 C64.9017,44.9163 64.9027,42.8673 64.9037,40.8183 C64.9057,36.7723 64.9087,32.5893 64.9087,28.4753 C64.9087,28.2333 65.0017,28.0073 65.1727,27.8363 C65.2097,27.7983 65.2507,27.7643 65.2937,27.7333 L64.5677,27.7333 C64.0237,27.7333 63.5157,27.4963 63.1387,27.0633 C62.7797,26.6523 62.5817,26.1123 62.5817,25.5413 L62.5817,21.2563 C62.5817,20.6853 62.7797,20.1453 63.1387,19.7333 C63.5157,19.3013 64.0237,19.0623 64.5677,19.0623 L89.5477,19.0623 C90.0907,19.0623 90.5977,19.3013 90.9757,19.7333 C91.3347,20.1453 91.5327,20.6863 91.5327,21.2563 L91.5327,25.5413 C91.5327,26.1113 91.3347,26.6523 90.9757,27.0633 C90.5977,27.4963 90.0907,27.7333 89.5477,27.7333 L88.6397,27.7333 C88.6827,27.7643 88.7227,27.7983 88.7617,27.8363 C88.9317,28.0073 89.0247,28.2333 89.0247,28.4753 C89.0247,32.5833 89.0227,36.7623 89.0197,40.8023 C89.0187,42.8563 89.0177,44.9113 89.0167,46.9663 C89.0147,52.4553 89.0137,58.9443 89.0247,65.4563 C89.0317,69.4663 87.7677,72.8553 85.3697,75.2583 C84.2607,76.3693 82.9487,77.2303 81.4697,77.8183 C80.0477,78.3833 78.5407,78.6693 76.9887,78.6693 L76.9887,78.6693 Z M25.9257,39.8553 C25.9257,42.8773 25.9237,45.9453 25.9217,48.9143 L25.9187,53.5373 C25.9167,57.6573 25.9157,62.5303 25.9257,67.4273 C25.9407,75.7433 31.6237,79.5303 36.8957,79.5303 C39.8067,79.5303 42.5037,78.4353 44.4897,76.4443 C46.6747,74.2563 47.8267,71.1383 47.8187414,67.4293 C47.8157,65.9873 47.8137,64.5173 47.8127,62.9333 C47.8117,61.5233 47.8107,60.0533 47.8107,58.4373 C47.8107,55.2443 47.8127,51.9493 47.8147,49.0413 L47.8147,48.8533 C47.8167,45.9043 47.8187414,42.8573 47.8187414,39.8553 L45.9687,39.8553 L45.9687,46.6273 C45.9687,46.8673 45.8747,47.0943 45.7047,47.2643 C45.5347,47.4363 45.3067,47.5303 45.0657,47.5303 L30.8287,47.5303 L30.8287,72.7763 C30.8287,72.8763 30.8287,72.9703 30.8287,73.0583 C30.8297,73.3443 30.8307,73.5703 30.8197,73.7473 C30.8097,73.9103 30.7877,74.2513 30.5187,74.4463 C30.3827,74.5463 30.2147,74.5843 30.0477,74.5543 C29.7057,74.4913 29.4997,74.2183 28.9527,73.3873 C28.8567,73.2403 28.7617,73.0873 28.6727,72.9313 C28.5827,72.7723 28.4947,72.6073 28.4137,72.4403 C28.2067,72.0153 28.0827,71.6613 28.0117,71.2953 C27.9397,70.9243 27.9247,70.5613 27.9247,70.1293 L27.9247,39.8553 L25.9257,39.8553 Z M36.8957,80.6423 C35.3657,80.6423 33.8767,80.3623 32.4687,79.8123 C31.0067,79.2403 29.7027,78.4013 28.5947,77.3193 C26.1287,74.9123 24.8227,71.4923 24.8147,67.4293 C24.8047,62.5313 24.8057,57.6583 24.8077,53.5363 C24.8077,51.9963 24.8087,50.4553 24.8107,48.9143 C24.8127,45.8763 24.8147,42.7353 24.8147,39.6453 C24.8147,39.4043 24.9087,39.1793 25.0787,39.0083 C25.2487,38.8383 25.4747,38.7443 25.7157,38.7443 L28.1327,38.7443 C28.3727,38.7443 28.5987,38.8373 28.7697,39.0073 C28.9407,39.1773 29.0357,39.4043 29.0357,39.6453 L29.0357,70.1293 C29.0357,70.4963 29.0467,70.7993 29.1017,71.0823 C29.1557,71.3543 29.2477,71.6153 29.4127,71.9543 C29.4837,72.0993 29.5587,72.2423 29.6377,72.3803 C29.6637,72.4263 29.6907,72.4713 29.7177,72.5163 L29.7177,47.3213 C29.7177,47.0803 29.8107,46.8533 29.9817,46.6843 C30.1517,46.5133 30.3787,46.4193 30.6197,46.4193 L44.8567,46.4193 L44.8567,39.6453 C44.8567,39.4043 44.9517,39.1783 45.1227,39.0073 C45.2937,38.8383 45.5197,38.7443 45.7597,38.7443 L48.0277,38.7443 C48.2677,38.7443 48.4947,38.8383 48.6647,39.0083 C48.8357,39.1783 48.9307289,39.4043 48.9307289,39.6453 C48.9307289,42.7163 48.9277,45.8363 48.9257,48.8543 L48.9257,49.0423 C48.9237,51.9493 48.9217,55.2443 48.9217,58.4373 C48.9217,60.0533 48.9227,61.5223 48.9237,62.9323 C48.9257,64.5163 48.9277,65.9853 48.9307289,67.4273 C48.9377,71.4373 47.6747,74.8273 45.2767,77.2293 C44.1667,78.3413 42.8547,79.2023 41.3767,79.7903 C39.9547,80.3553 38.4477,80.6423 36.8957,80.6423 L36.8957,80.6423 Z M55.1977,84.2053 L58.7857,84.2053 L58.7857,53.3993 C58.7857,53.1593 58.8797,52.9333 59.0507,52.7623 C59.2207,52.5913 59.4477,52.4973 59.6877,52.4973 L63.4697,52.4973 L63.4697,49.4193 L50.5337,49.4193 L50.5337,52.4973 L54.2957,52.4973 C54.5357,52.4973 54.7627,52.5913 54.9337,52.7633 C55.1037,52.9333 55.1977,53.1593 55.1977,53.3993 L55.1977,84.2053 Z M58.9937,85.3163 L54.9887,85.3163 C54.7477,85.3163 54.5207,85.2223 54.3507,85.0513 C54.1807,84.8813 54.0867,84.6543 54.0867,84.4133 L54.0867,53.6083 L50.3247,53.6083 C50.0837,53.6083 49.8577,53.5153 49.6867,53.3443 C49.5167,53.1733 49.4227,52.9463 49.4227,52.7063 L49.4227,49.2113 C49.4227,48.9703 49.5167,48.7433 49.6867,48.5733 C49.8577,48.4023 50.0837,48.3083 50.3247,48.3083 L63.6777,48.3083 C63.9177,48.3083 64.1447,48.4013 64.3157,48.5723 C64.4867,48.7433 64.5807,48.9703 64.5807,49.2113 L64.5807,52.7063 C64.5807,52.9473 64.4867,53.1743 64.3147,53.3453 C64.1437,53.5153 63.9177,53.6083 63.6777,53.6083 L59.8967,53.6083 L59.8967,84.4133 C59.8967,84.6543 59.8027,84.8813 59.6317,85.0523 C59.4617,85.2233 59.2347,85.3163 58.9937,85.3163 L58.9937,85.3163 Z M35.6727,93.3913 C35.8917,93.4533 36.4927,93.4533 36.9427,93.4533 L76.8957,93.4533 C77.3467,93.4533 77.9467,93.4533 78.1657,93.3913 C78.1627,93.3453 78.1537,93.2683 78.1237,93.1463 C78.0767,92.9553 77.9907,92.6963 77.8547,92.3343 C77.5587,91.5453 77.1917,90.7923 76.7637,90.0973 C76.3357,89.4023 75.8347,88.7443 75.2747,88.1423 C74.5887,87.4033 74.1997,87.0873 73.7897,86.9343 C73.3537,86.7713 72.7967,86.7643 71.8487,86.7643 L41.9897,86.7643 C41.0427,86.7643 40.4857,86.7713 40.0497,86.9343 C39.6387,87.0873 39.2497,87.4033 38.5637,88.1423 C38.0037,88.7443 37.5017,89.4023 37.0747,90.0973 C36.6457,90.7923 36.2797,91.5453 35.9837,92.3343 C35.8477,92.6963 35.7627,92.9553 35.7157,93.1463 C35.6857,93.2683 35.6757,93.3453 35.6727,93.3913 L35.6727,93.3913 Z M76.8957,94.5643 L36.9427,94.5643 C35.8627,94.5643 35.2097,94.5643 34.8207,94.1423 C34.5927,93.8933 34.5157,93.5593 34.5867,93.1193 C34.6327,92.8383 34.7357,92.4973 34.9427,91.9433 C35.2637,91.0883 35.6627,90.2703 36.1277,89.5153 C36.5947,88.7573 37.1397,88.0413 37.7507,87.3853 C38.4517,86.6303 38.9897,86.1443 39.6607,85.8933 C40.2757,85.6633 40.9137,85.6523 41.9897,85.6523 L71.8487,85.6523 C72.9247,85.6523 73.5627,85.6633 74.1777,85.8933 C74.8487,86.1443 75.3867,86.6303 76.0887,87.3853 C76.6987,88.0413 77.2437,88.7583 77.7097,89.5153 C78.1757,90.2703 78.5747,91.0883 78.8947,91.9433 C79.0997,92.4893 79.2067,92.8413 79.2517,93.1193 C79.3237,93.5593 79.2467,93.8933 79.0177,94.1423 C78.6287,94.5643 77.9757,94.5643 76.8957,94.5643 L76.8957,94.5643 Z" id="Fill-27" fill="#FFFFFF"></path>
                        </g>
                        <g id="Group-14" transform="translate(356.000000, 1.000000)">
                            <text id="Stronger-" font-family="RobotoCondensed-Regular, Roboto Condensed" font-size="12" font-style="condensed" font-weight="normal" letter-spacing="0.00333333333" fill="#4A4A4A">
                                <tspan x="35.2643" y="132">St</tspan>
                                <tspan x="45.0326854" y="132" letter-spacing="-0.111866667">r</tspan>
                                <tspan x="48.4540219" y="132">onger </tspan>
                            </text>
                            <text id="Concentrations" font-family="RobotoCondensed-Regular, Roboto Condensed" font-size="12" font-style="condensed" font-weight="normal" letter-spacing="0.00333333333" fill="#4A4A4A">
                                <tspan x="21.2643" y="150">Concent</tspan>
                                <tspan x="60.4341177" y="150" letter-spacing="-0.229466667">r</tspan>
                                <tspan x="63.6206667" y="150">ations</tspan>
                            </text>
                            <path d="M114.353,57.177 C114.353,88.754 88.754,114.353 57.177,114.353 C25.599,114.353 1.39266376e-12,88.754 1.39266376e-12,57.177 C1.39266376e-12,25.599 25.599,2.84217094e-14 57.177,2.84217094e-14 C88.754,2.84217094e-14 114.353,25.599 114.353,57.177" id="Fill-28" fill="#6F7050"></path>
                            <path d="M85.2485,68.1683 C85.2485,83.6723 72.6805,96.2393 57.1765,96.2393 C41.6735,96.2393 29.1045,83.6723 29.1045,68.1683 C29.1045,48.6063 49.3065,30.5043 57.1765,17.3873 C65.0475,30.5043 85.2485,48.2553 85.2485,68.1683" id="Fill-29" fill="#FFFFFF"></path>
                            <path d="M82.4585,72.2386 L81.9635,72.1916 C81.2925,72.1286 80.2475,72.2656 79.3365,72.5926 C79.3365,72.5926 79.5095,72.3056 79.3995,72.3326 L78.0645,72.6416 C78.0645,72.6416 78.3355,72.0576 78.2255,72.0836 L76.7875,72.4176 C76.7875,72.4176 77.1305,71.7716 77.0215,71.7976 L75.3835,72.4606 C75.3835,72.4606 75.7065,71.7256 75.5965,71.7516 L73.9805,72.5036 C73.9805,72.5036 74.3025,71.7686 74.1925,71.7946 L72.6115,72.7266 C72.6115,72.7266 72.7325,71.9076 72.6235,71.9326 L71.1465,72.7686 C71.1465,72.7686 71.2695,72.0956 71.1585,72.1216 L69.5365,73.2516 C69.5365,73.2516 69.6895,72.4906 69.5795,72.5156 L68.0535,73.5956 C68.0535,73.5956 68.1475,72.8476 68.0375,72.8746 L66.7665,73.8946 C66.7665,73.8946 66.8405,73.2176 66.7305,73.2426 L65.5115,74.3226 C65.5115,74.3226 65.5615,73.7026 65.4515,73.7286 L64.1625,74.8826 C64.1625,74.8826 64.2925,74.2356 64.1825,74.2606 L63.0575,75.4146 C63.0575,75.4146 63.1625,74.8676 63.0525,74.8926 L62.0435,75.8386 C62.0435,75.8386 62.1555,75.3426 62.1155,75.3566 C62.0625,75.3766 60.6065,76.5496 60.6065,76.5496 C60.6065,76.5496 60.6965,76.1786 60.5855,76.2046 L60.5475,76.2346 C59.8295,76.7966 58.4215,77.4486 57.6885,77.7746 C58.4275,77.1216 59.9325,75.8726 60.9545,75.3416 L61.0075,75.3126 C61.0935,75.2016 60.6225,75.1076 60.6225,75.1076 C60.6225,75.1076 62.7095,74.0706 62.7585,74.0196 C62.7955,73.9816 62.1705,73.8476 62.1705,73.8476 L63.7685,73.1996 C63.8545,73.0876 63.1745,72.9196 63.1745,72.9196 L65.0685,72.2466 C65.1545,72.1346 64.3555,71.9476 64.3555,71.9476 L66.3225,71.0816 C66.4085,70.9696 65.6865,70.7106 65.6865,70.7106 L67.5345,69.8836 C67.6205,69.7716 66.8145,69.5066 66.8145,69.5066 L68.6345,68.5986 C68.7205,68.4876 67.8185,68.2036 67.8185,68.2036 L69.8365,67.0386 C69.9225,66.9266 68.9765,66.7026 68.9765,66.7026 L71.0955,65.4496 C71.1815,65.3386 70.2505,65.0486 70.2505,65.0486 L72.0715,63.8936 C72.1575,63.7826 71.2525,63.5606 71.2525,63.5606 L73.0355,62.1826 C73.1215,62.0716 72.1225,62.0566 72.1225,62.0566 L73.8105,60.6166 C73.8955,60.5056 72.8975,60.4896 72.8975,60.4896 L74.4945,58.9796 C74.5805,58.8676 73.6725,58.9236 73.6725,58.9236 L74.8915,57.5426 C74.9775,57.4306 74.0845,57.3646 74.0845,57.3646 L75.1255,56.0136 C75.2115,55.9026 74.7975,55.9496 74.7975,55.9496 C75.6385,55.0886 76.3355,53.9756 76.6105,53.1836 L76.8145,52.5986 L76.3005,52.9446 C75.6045,53.4136 74.7065,54.3706 74.0875,55.4026 C74.0875,55.4026 74.0285,54.9906 73.9425,55.1016 L72.9005,56.4526 C72.9005,56.4526 72.7015,55.6766 72.6155,55.7886 L71.4935,57.2446 C71.4935,57.2446 71.3155,56.3516 71.2295,56.4636 L70.1755,58.3926 C70.1755,58.3926 69.9075,57.4306 69.8215,57.5426 L68.8575,59.5416 C68.8575,59.5416 68.5895,58.5796 68.5035,58.6906 L67.7155,60.8356 C67.7155,60.8356 67.1875,59.9516 67.1015,60.0626 L66.3375,62.0326 C66.3375,62.0326 65.9245,61.2876 65.8385,61.3986 L65.1675,63.7676 C65.1675,63.7676 64.7155,62.9136 64.6295,63.0246 L64.0115,65.2686 C64.0115,65.2686 63.5125,64.4736 63.4265,64.5856 L63.0065,66.5716 C63.0065,66.5716 62.5445,65.8606 62.4595,65.9716 L62.1365,67.9736 C62.1365,67.9736 61.6955,67.3376 61.6095,67.4496 L61.2785,69.5766 C61.2785,69.5766 60.8935,68.8516 60.8075,68.9636 L60.6345,70.9616 C60.6345,70.9616 60.3035,70.3516 60.2175,70.4636 L59.9915,72.1696 C59.9915,72.1696 59.7085,71.6026 59.6815,71.6486 C59.6455,71.7096 59.1675,73.9866 59.1675,73.9866 C59.1675,73.9866 58.9625,73.5596 58.8765,73.6716 L58.8635,73.7306 C58.6405,74.7216 57.8925,76.5846 57.4325,77.5186 C57.6595,76.3816 58.1555,74.1386 58.6515,73.0716 L58.6805,73.0096 C58.6805,72.8526 58.2065,73.0916 58.2065,73.0916 C58.2065,73.0916 59.3405,70.7436 59.3505,70.6656 C59.3565,70.6066 58.7185,70.9156 58.7185,70.9156 L59.6845,69.2476 C59.6845,69.0896 58.9745,69.4046 58.9745,69.4046 L60.1865,67.5126 C60.1865,67.3556 59.3505,67.7356 59.3505,67.7356 L60.5105,65.6216 C60.5105,65.4646 59.6845,65.7276 59.6845,65.7276 L60.7665,63.7306 C60.7665,63.5726 59.8705,63.8876 59.8705,63.8876 L60.8555,61.8396 C60.8555,61.6806 59.8705,62.0466 59.8705,62.0466 L60.8555,59.6326 C60.8555,59.4746 59.8705,59.9236 59.8705,59.9236 L60.8945,57.3626 C60.8945,57.2056 60.0195,57.5836 60.0195,57.5836 L60.6885,55.3146 C60.6885,55.1566 59.6145,55.5796 59.6145,55.5796 L60.3825,53.1386 C60.3825,52.9806 59.4865,53.6506 59.4865,53.6506 L59.9985,51.2176 C59.9985,51.0606 59.1025,51.7306 59.1025,51.7306 L59.4415,49.2986 C59.4415,49.1406 58.6275,49.8106 58.6275,49.8106 L58.9025,47.7526 C58.9025,47.5936 58.3535,48.1466 58.3535,48.1466 L58.3535,46.2356 C58.3535,46.0786 57.8475,46.4026 57.8475,46.4026 C58.0045,45.0636 57.7765,43.6006 57.4795,42.7096 L57.2165,42.0516 L56.9765,42.7096 C56.6795,43.6006 56.4335,45.0636 56.5905,46.4026 C56.5905,46.4026 56.1525,46.0786 56.1525,46.2356 L56.1525,48.1466 C56.1525,48.1466 55.4085,47.5936 55.4085,47.7526 L55.5915,49.8106 C55.5915,49.8106 54.8475,49.1406 54.8475,49.2986 L55.2425,51.7306 C55.2425,51.7306 54.3525,51.0606 54.3525,51.2176 L54.8675,53.6506 C54.8675,53.6506 53.9725,52.9806 53.9725,53.1386 L54.6135,55.5796 C54.6135,55.5796 53.6595,55.1566 53.6595,55.3146 L54.4855,57.5836 C54.4855,57.5836 53.4615,57.2056 53.4615,57.3626 L54.4865,59.9236 C54.4865,59.9236 53.4925,59.4746 53.4925,59.6326 L54.4865,62.0466 C54.4865,62.0466 53.4925,61.6806 53.4925,61.8396 L54.4865,63.8876 C54.4865,63.8876 53.5905,63.5726 53.5905,63.7306 L54.6645,65.7276 C54.6645,65.7276 53.8465,65.4646 53.8465,65.6216 L54.9985,67.7356 C54.9985,67.7356 54.1615,67.3556 54.1615,67.5126 L55.3825,69.4046 C55.3825,69.4046 54.6645,69.0896 54.6645,69.2476 L55.6385,70.9156 C55.6385,70.9156 54.9915,70.6066 54.9985,70.6656 C55.0075,70.7436 56.1505,73.0916 56.1505,73.0916 C56.1505,73.0916 55.6675,72.8526 55.6675,73.0096 L55.6965,73.0716 C56.2265,74.2126 56.7065,76.4136 56.9205,77.5186 C56.4655,76.6076 55.6605,74.8026 55.4185,73.7306 L55.4055,73.6716 C55.3195,73.5596 55.1145,73.9866 55.1145,73.9866 C55.1145,73.9866 54.6375,71.7096 54.6015,71.6486 C54.5735,71.6026 54.2915,72.1696 54.2915,72.1696 L54.0645,70.4636 C53.9785,70.3516 53.6485,70.9616 53.6485,70.9616 L53.4745,68.9636 C53.3885,68.8516 53.0045,69.5766 53.0045,69.5766 L52.6725,67.4496 C52.5875,67.3376 52.1465,67.9736 52.1465,67.9736 L51.8235,65.9716 C51.7375,65.8606 51.2755,66.5716 51.2755,66.5716 L50.8555,64.5856 C50.7705,64.4736 50.2715,65.2686 50.2715,65.2686 L49.6535,63.0246 C49.5675,62.9136 49.1145,63.7676 49.1145,63.7676 L48.4435,61.3986 C48.3575,61.2876 47.9445,62.0326 47.9445,62.0326 L47.1815,60.0626 C47.0955,59.9516 46.5665,60.8356 46.5665,60.8356 L45.7795,58.6906 C45.6935,58.5796 45.4245,59.5416 45.4245,59.5416 L44.4615,57.5426 C44.3755,57.4306 44.1065,58.3926 44.1065,58.3926 L43.0525,56.4636 C42.9665,56.3516 42.7885,57.2446 42.7885,57.2446 L41.6665,55.7886 C41.5815,55.6766 41.3815,56.4526 41.3815,56.4526 L40.3405,55.1016 C40.2545,54.9906 40.1945,55.4026 40.1945,55.4026 C39.5765,54.3706 38.6775,53.4136 37.9815,52.9446 L37.4685,52.5986 L37.6715,53.1836 C37.9475,53.9756 38.6445,55.0886 39.4845,55.9496 C39.4845,55.9496 39.0705,55.9026 39.1565,56.0136 L40.1975,57.3646 C40.1975,57.3646 39.3055,57.4306 39.3915,57.5426 L40.6105,58.9236 C40.6105,58.9236 39.7025,58.8676 39.7885,58.9796 L41.3855,60.4896 C41.3855,60.4896 40.3865,60.5056 40.4725,60.6166 L42.1605,62.0566 C42.1605,62.0566 41.1615,62.0716 41.2475,62.1826 L43.0305,63.5606 C43.0305,63.5606 42.1255,63.7826 42.2105,63.8936 L44.0315,65.0486 C44.0315,65.0486 43.1015,65.3386 43.1875,65.4496 L45.3065,66.7026 C45.3065,66.7026 44.3595,66.9266 44.4455,67.0386 L46.4635,68.2036 C46.4635,68.2036 45.5625,68.4876 45.6485,68.5986 L47.4675,69.5066 C47.4675,69.5066 46.6625,69.7716 46.7485,69.8836 L48.5965,70.7106 C48.5965,70.7106 47.8745,70.9696 47.9595,71.0816 L49.9275,71.9476 C49.9275,71.9476 49.1285,72.1346 49.2135,72.2466 L51.1075,72.9196 C51.1075,72.9196 50.4285,73.0876 50.5145,73.1996 L52.1125,73.8476 C52.1125,73.8476 51.4865,73.9816 51.5235,74.0196 C51.5735,74.0706 53.6605,75.1076 53.6605,75.1076 C53.6605,75.1076 53.1885,75.2016 53.2745,75.3126 L53.3285,75.3416 C54.3175,75.8546 55.7785,77.1066 56.5365,77.7746 C55.7815,77.4336 54.4795,76.7606 53.8055,76.2346 L53.7675,76.2046 C53.6575,76.1786 53.7475,76.5496 53.7475,76.5496 C53.7475,76.5496 52.2915,75.3766 52.2385,75.3566 C52.1975,75.3426 52.3105,75.8386 52.3105,75.8386 L51.3015,74.8926 C51.1915,74.8676 51.2965,75.4146 51.2965,75.4146 L50.1715,74.2606 C50.0615,74.2356 50.1915,74.8826 50.1915,74.8826 L48.9025,73.7286 C48.7925,73.7026 48.8425,74.3226 48.8425,74.3226 L47.6225,73.2426 C47.5125,73.2176 47.5875,73.8946 47.5875,73.8946 L46.3155,72.8746 C46.2065,72.8476 46.3005,73.5956 46.3005,73.5956 L44.7745,72.5156 C44.6645,72.4906 44.8175,73.2516 44.8175,73.2516 L43.1945,72.1216 C43.0845,72.0956 43.2075,72.7686 43.2075,72.7686 L41.7305,71.9326 C41.6205,71.9076 41.7415,72.7266 41.7415,72.7266 L40.1605,71.7946 C40.0505,71.7686 40.3735,72.5036 40.3735,72.5036 L38.7575,71.7516 C38.6465,71.7256 38.9695,72.4606 38.9695,72.4606 L37.3335,71.7976 C37.2225,71.7716 37.5655,72.4176 37.5655,72.4176 L36.1275,72.0836 C36.0185,72.0576 36.2885,72.6416 36.2885,72.6416 L34.9545,72.3326 C34.8435,72.3056 35.0165,72.5926 35.0165,72.5926 C34.1065,72.2656 33.0615,72.1286 32.3905,72.1916 L31.8955,72.2386 L32.3195,72.4986 C32.8945,72.8496 33.8935,73.1866 34.8545,73.2946 C34.8545,73.2946 34.5725,73.4756 34.6825,73.5016 L36.0175,73.8106 C36.0175,73.8106 35.4965,74.3056 35.6065,74.3316 L37.0665,74.5686 C37.0665,74.5686 36.4745,74.9976 36.5845,75.0226 L38.3455,75.1486 C38.3455,75.1486 37.7325,75.6666 37.8425,75.6916 L39.6255,75.7276 C39.6255,75.7276 39.0115,76.2456 39.1225,76.2706 L40.9315,76.2196 C40.9315,76.2196 40.4805,76.8176 40.5915,76.8426 L42.3105,76.6346 C42.3105,76.6346 41.8795,77.2886 41.9895,77.3136 L43.9445,77.0126 C43.9445,77.0126 43.4705,77.6346 43.5805,77.6606 L45.4275,77.3576 C45.4275,77.3576 45.0125,77.9926 45.1225,78.0176 L46.7145,77.6566 C46.7145,77.6566 46.3495,78.2306 46.4595,78.2566 L48.0285,77.8306 C48.0285,77.8306 47.7115,78.3586 47.8225,78.3846 L49.4855,77.9226 C49.4855,77.9226 49.0845,78.4446 49.1945,78.4696 L50.7135,77.9246 C50.7135,77.9246 50.3775,78.3756 50.4875,78.4006 L51.8115,77.9906 C51.8115,77.9906 51.4905,78.3916 51.5325,78.3966 C51.5885,78.4026 53.4145,77.9856 53.4145,77.9856 C53.4145,77.9856 53.1685,78.2836 53.2795,78.3086 L53.3265,78.2996 C54.2805,78.0986 55.9325,78.1396 56.6775,78.1726 C56.1175,78.2976 55.2955,78.4556 54.7575,78.4496 L54.7245,78.4486 C54.6535,78.4806 54.8565,78.6456 54.8565,78.6456 C54.8565,78.6456 53.5725,78.6106 53.5355,78.6226 C53.5075,78.6316 53.7755,78.8546 53.7755,78.8546 L52.8315,78.7596 C52.7605,78.7906 53.0455,79.0456 53.0455,79.0456 L51.9505,78.8846 C51.8795,78.9156 52.2205,79.2146 52.2205,79.2146 L51.0355,79.1206 C50.9645,79.1526 51.2505,79.4696 51.2505,79.4696 L50.1345,79.3876 C50.0635,79.4196 50.3865,79.7586 50.3865,79.7586 L49.2675,79.7296 C49.1965,79.7616 49.5595,80.1316 49.5595,80.1316 L48.2755,80.1756 C48.2055,80.2086 48.6055,80.5596 48.6055,80.5596 L47.2485,80.6176 C47.1775,80.6496 47.5245,80.9666 47.5245,80.9666 L46.3705,81.1246 C46.2995,81.1556 46.7065,81.5526 46.7065,81.5526 L45.4555,81.7016 C45.3845,81.7336 45.8655,82.0006 45.8655,82.0006 L44.6695,82.2616 C44.5995,82.2946 45.0815,82.5606 45.0815,82.5606 L43.9115,82.8806 C43.8405,82.9126 44.2965,83.1216 44.2965,83.1216 L43.3725,83.5376 C43.3015,83.5696 43.6915,83.7756 43.6915,83.7756 L42.8335,84.1626 C42.7635,84.1936 42.9765,84.2786 42.9765,84.2786 C42.3435,84.4786 41.7155,84.8386 41.3755,85.1526 L41.1245,85.3846 L41.4635,85.3486 C41.9235,85.3016 42.6095,85.0706 43.1795,84.7296 C43.1795,84.7296 43.1015,84.9456 43.1725,84.9136 L44.0305,84.5276 C44.0305,84.5276 43.9515,85.0146 44.0225,84.9826 L44.9185,84.5056 C44.9185,84.5056 44.7735,84.9856 44.8445,84.9536 L45.8595,84.2896 C45.8595,84.2896 45.7395,84.8276 45.8105,84.7956 L46.7995,84.0736 C46.7995,84.0736 46.6795,84.6116 46.7505,84.5796 L47.7175,83.7996 C47.7175,83.7996 47.7205,84.3126 47.7915,84.2816 L48.6435,83.4516 C48.6435,83.4516 48.6805,83.9876 48.7505,83.9566 L49.6935,82.9786 C49.6935,82.9786 49.6935,83.5146 49.7645,83.4836 L50.6475,82.5496 C50.6475,82.5496 50.6845,83.0696 50.7555,83.0376 L51.4755,82.1766 C51.4755,82.1766 51.5145,82.6426 51.5855,82.6116 L52.2655,81.7246 C52.2655,81.7246 52.3125,82.1456 52.3825,82.1136 L53.0995,81.1696 C53.0995,81.1696 53.0985,81.6216 53.1685,81.5896 L53.7715,80.6596 C53.7715,80.6596 53.7755,81.0456 53.8465,81.0136 L54.3985,80.2386 C54.3985,80.2386 54.3905,80.5926 54.4155,80.5766 C54.4485,80.5566 55.2715,79.5686 55.2715,79.5686 C55.2715,79.5686 55.2625,79.8336 55.3335,79.8016 C55.3335,79.8016 56.4275,78.9706 56.7025,78.6346 L56.7025,84.6866 L57.5275,84.6866 L57.5275,78.6346 C57.8025,78.9686 58.6435,79.3456 59.0165,79.7766 L59.0495,79.8016 C59.1205,79.8336 59.1165,79.5686 59.1165,79.5686 C59.1165,79.5686 59.9425,80.5566 59.9765,80.5766 C60.0005,80.5926 59.9945,80.2386 59.9945,80.2386 L60.5475,81.0136 C60.6185,81.0456 60.6225,80.6596 60.6225,80.6596 L61.2255,81.5896 C61.2955,81.6216 61.2945,81.1696 61.2945,81.1696 L62.0115,82.1136 C62.0825,82.1456 62.1285,81.7246 62.1285,81.7246 L62.8095,82.6116 C62.8795,82.6426 62.9195,82.1766 62.9195,82.1766 L63.6385,83.0376 C63.7095,83.0696 63.7465,82.5496 63.7465,82.5496 L64.6295,83.4836 C64.7005,83.5146 64.7005,82.9786 64.7005,82.9786 L65.6435,83.9566 C65.7135,83.9876 65.7505,83.4516 65.7505,83.4516 L66.6035,84.2816 C66.6735,84.3126 66.6765,83.7996 66.6765,83.7996 L67.6445,84.5796 C67.7145,84.6116 67.5955,84.0736 67.5955,84.0736 L68.5835,84.7956 C68.6545,84.8276 68.5355,84.2896 68.5355,84.2896 L69.5495,84.9536 C69.6205,84.9856 69.4755,84.5056 69.4755,84.5056 L70.3715,84.9826 C70.4425,85.0146 70.3635,84.5276 70.3635,84.5276 L71.2225,84.9136 C71.2925,84.9456 71.2145,84.7296 71.2145,84.7296 C71.7845,85.0706 72.4705,85.3016 72.9305,85.3486 L73.2705,85.3846 L73.0195,85.1526 C72.6785,84.8386 72.0505,84.4786 71.4175,84.2786 C71.4175,84.2786 71.6315,84.1936 71.5605,84.1626 L70.7025,83.7756 C70.7025,83.7756 71.0935,83.5696 71.0225,83.5376 L70.0975,83.1216 C70.0975,83.1216 70.5535,82.9126 70.4825,82.8806 L69.3125,82.5606 C69.3125,82.5606 69.7945,82.2946 69.7245,82.2616 L68.5285,82.0006 C68.5285,82.0006 69.0105,81.7336 68.9395,81.7016 L67.6875,81.5526 C67.6875,81.5526 68.0945,81.1556 68.0235,81.1246 L66.8695,80.9666 C66.8695,80.9666 67.2165,80.6496 67.1455,80.6176 L65.7885,80.5596 C65.7885,80.5596 66.1885,80.2086 66.1185,80.1756 L64.8345,80.1316 C64.8345,80.1316 65.1975,79.7616 65.1275,79.7296 L64.0075,79.7586 C64.0075,79.7586 64.3305,79.4196 64.2595,79.3876 L63.1445,79.4696 C63.1445,79.4696 63.4295,79.1526 63.3585,79.1206 L62.1745,79.2146 C62.1745,79.2146 62.5145,78.9156 62.4435,78.8846 L61.3485,79.0456 C61.3485,79.0456 61.6335,78.7906 61.5625,78.7596 L60.6185,78.8546 C60.6185,78.8546 60.8865,78.6316 60.8585,78.6226 C60.8215,78.6106 59.5375,78.6456 59.5375,78.6456 C59.5375,78.6456 59.7405,78.4806 59.6695,78.4486 L59.6365,78.4496 C59.0965,78.4556 58.2495,78.2846 57.6885,78.1586 C58.4505,78.1276 60.0875,78.1016 61.0265,78.2996 L61.0745,78.3086 C61.1845,78.2836 60.9395,77.9856 60.9395,77.9856 C60.9395,77.9856 62.7645,78.4026 62.8205,78.3966 C62.8635,78.3916 62.5425,77.9906 62.5425,77.9906 L63.8665,78.4006 C63.9765,78.3756 63.6395,77.9246 63.6395,77.9246 L65.1585,78.4696 C65.2695,78.4446 64.8675,77.9226 64.8675,77.9226 L66.5315,78.3846 C66.6415,78.3586 66.3255,77.8306 66.3255,77.8306 L67.8945,78.2566 C68.0045,78.2306 67.6395,77.6566 67.6395,77.6566 L69.2315,78.0176 C69.3415,77.9926 68.9255,77.3576 68.9255,77.3576 L70.7725,77.6606 C70.8835,77.6346 70.4095,77.0126 70.4095,77.0126 L72.3635,77.3136 C72.4735,77.2886 72.0435,76.6346 72.0435,76.6346 L73.7625,76.8426 C73.8725,76.8176 73.4225,76.2196 73.4225,76.2196 L75.2315,76.2706 C75.3415,76.2456 74.7295,75.7276 74.7295,75.7276 L76.5105,75.6916 C76.6215,75.6666 76.0075,75.1486 76.0075,75.1486 L77.7695,75.0226 C77.8795,74.9976 77.2875,74.5686 77.2875,74.5686 L78.7475,74.3316 C78.8575,74.3056 78.3365,73.8106 78.3365,73.8106 L79.6705,73.5016 C79.7815,73.4756 79.5005,73.2946 79.5005,73.2946 C80.4605,73.1866 81.4595,72.8496 82.0345,72.4986 L82.4585,72.2386 Z" id="Fill-30" fill="#6F7050"></path>
                        </g>
                    </g>
                </g>
            </g>
        </g>
    </g>
</svg>