<?xml version="1.0" encoding="UTF-8"?>
<svg width="52px" height="52px" viewBox="0 0 52 52" version="1.1" xmlns="http://www.w3.org/2000/svg" xmlns:xlink="http://www.w3.org/1999/xlink">
    <!-- Generator: Sketch 63.1 (92452) - https://sketch.com -->
    <title>Avatar</title>
    <desc>Created with Sketch.</desc>
    <defs>
        <path d="M26,0 C40.3585,0 52,11.6415 52,26 C52,40.3585 40.3585,52 26,52 C11.6415,52 0,40.3585 0,26 C0,11.6415 11.6415,0 26,0" id="path-1"></path>
    </defs>
    <g id="Page-2" stroke="none" stroke-width="1" fill="none" fill-rule="evenodd">
        <g id="Product-Page_New_03" transform="translate(-40.000000, -9118.000000)">
            <g id="Avatar" transform="translate(40.000000, 9118.000000)">
                <mask id="mask-2" fill="white">
                    <use xlink:href="#path-1"></use>
                </mask>
                <use id="Mask" fill="#ECECEC" xlink:href="#path-1"></use>
                <g id="male-user" mask="url(#mask-2)" fill="#010002" fill-rule="nonzero">
                    <g transform="translate(6.000000, 4.000000)" id="Shape">
                        <path d="M32.8312347,28.350416 C27.2398087,26.5071926 24.9155281,24.2150369 24.9155281,24.2150369 L24.7283878,24.3950717 C23.0679031,25.9724098 21.2314209,26.8996947 19.5584005,26.8996947 L19.4005102,26.8996947 C17.7275893,26.8996947 15.8911071,25.9724098 14.2306224,24.3950717 L14.0433827,24.2150369 C14.0433827,24.2150369 11.719301,26.5070922 6.12777551,28.350416 C-2.12629592,31.4623176 0.352094388,44.126709 0.349706633,44.2248094 C0.609673469,45.6352664 0.761196429,46.1200451 0.893219388,46.1744672 C9.18211224,49.8987684 29.7769974,49.8987684 38.0659898,46.1744672 C38.1980128,46.1200451 38.3495357,45.6352664 38.6095026,44.2248094 C38.6071148,44.126709 41.1186352,31.512623 32.8312347,28.350416 Z"></path>
                        <path d="M28.148051,12.1938709 L28.0788061,12.1180615 C27.6143878,11.6889098 27.6507015,11.7135102 27.6507015,11.7135102 C27.6507015,11.7135102 28.4607474,7.58837295 27.8111786,5.63761066 C26.7914082,2.52219467 20.7001454,0.434172131 19.4784107,0.191481557 C19.4786097,0.189172131 18.7353214,0.0390594262 18.6878648,0.0387581967 C18.6878648,0.0387581967 17.7268929,-0.157342213 16.6131046,0.332959016 C15.8877245,0.614608607 12.0954719,2.35019262 11.0190918,5.63761066 C10.3696224,7.58837295 11.1796684,11.7135102 11.1796684,11.7135102 C11.1796684,11.7135102 11.2159821,11.6889098 10.7514643,12.1180615 L10.6823189,12.1938709 C10.3681301,12.5539406 10.4457321,13.6805389 10.7891709,14.852623 C11.100375,16.026916 11.5059949,16.3425041 11.6031964,16.6175266 C12.5884439,21.2862828 16.014375,25.2725533 19.5055714,25.2725533 C22.9967679,25.2725533 26.241727,21.2862828 27.2269745,16.6175266 C27.3242755,16.3426045 27.7298954,16.026916 28.0410995,14.852623 C28.3845383,13.6804385 28.4711939,12.4765246 28.148051,12.1938709 Z"></path>
                    </g>
                </g>
            </g>
        </g>
    </g>
</svg>