<?xml version="1.0" encoding="UTF-8"?>
<svg width="148px" height="148px" viewBox="0 0 148 148" version="1.1" xmlns="http://www.w3.org/2000/svg" xmlns:xlink="http://www.w3.org/1999/xlink">
    <!-- Generator: Sketch 63.1 (92452) - https://sketch.com -->
    <title>Group 22</title>
    <desc>Created with Sketch.</desc>
    <defs>
        <polygon id="path-1" points="0.42184027 0.469253429 126.835971 0.469253429 126.835971 106.054514 0.42184027 106.054514"></polygon>
    </defs>
    <g id="Page-2" stroke="none" stroke-width="1" fill="none" fill-rule="evenodd">
        <g id="Product-Page_New_03" transform="translate(-108.000000, -8136.000000)">
            <g id="Group-22" transform="translate(110.000000, 8138.000000)">
                <g id="Group-10" transform="translate(7.799741, 18.193906)">
                    <path d="M78.04045,10.9549246 C89.2234192,10.9549246 98.2887829,20.0096075 98.2887829,31.1794009 C98.2887829,42.3486868 89.2234192,51.4038771 78.04045,51.4038771 C66.8579888,51.4038771 57.792117,42.3486868 57.792117,31.1794009 C57.792117,20.0096075 66.8579888,10.9549246 78.04045,10.9549246" id="Fill-1" fill-opacity="0.509314904" fill="#D9341A"></path>
                    <path d="M41.7621867,84.268651 C48.2853033,84.268651 53.5737143,89.5504384 53.5737143,96.0660092 C53.5737143,102.582086 48.2853033,107.863873 41.7621867,107.863873 C35.2390701,107.863873 29.9506592,102.582086 29.9506592,96.0660092 C29.9506592,89.5504384 35.2390701,84.268651 41.7621867,84.268651" id="Fill-3" fill="#D9341A" opacity="0.456333705"></path>
                    <mask id="mask-2" fill="white">
                        <use xlink:href="#path-1"></use>
                    </mask>
                    <g id="Clip-6"></g>
                    <path d="M33.2384587,49.4619903 C32.1065487,49.9008615 30.0847405,50.5470335 28.0790665,50.5055733 C25.9513781,50.4610795 22.2198564,52.4749317 20.8635811,53.2505404 C21.48172,54.8684985 23.5554598,59.8947864 27.6857971,66.2528561 C31.2781619,71.7817223 35.7589123,77.0198617 38.0560091,79.5939319 C37.6365217,76.3923973 37.1333385,73.0209771 36.5620895,70.0434286 L36.4516715,69.4655142 C35.4614393,64.3057447 34.0118886,56.7534196 33.2384587,49.4619903 L33.2384587,49.4619903 Z" id="Path" fill="#26457A" mask="url(#mask-2)"></path>
                    <path d="M37.345099,95.0565552 C37.0269541,94.8224569 36.9573756,94.3729679 37.1908163,94.0539268 C37.4247612,93.7343801 37.8724833,93.6651113 38.1911324,93.8992096 L41.6120721,96.4146288 L47.3447301,97.5411321 C47.7329576,97.6174795 47.9860618,97.994666 47.9104331,98.3839872 C47.8353085,98.7733083 47.4586774,99.0276311 47.0704499,98.9512837 L41.1819967,97.7939381 L41.1819967,97.7934325 C41.0816626,97.7742192 40.9838494,97.7322534 40.8961201,97.6675351 L37.345099,95.0565552 Z" id="Path" fill="#4A4A4A" mask="url(#mask-2)"></path>
                    <path d="M35.9847901,97.2342257 C35.692359,96.9677682 35.671183,96.5132231 35.9368919,96.2204738 C36.2026009,95.9272189 36.6558691,95.9054776 36.9483002,96.1724407 L40.0268939,98.9740363 L46.8526392,101.062719 C47.2297744,101.176987 47.4430475,101.577432 47.328596,101.95563 C47.2141445,102.334333 46.815329,102.548207 46.4376895,102.433433 L39.4979969,100.309863 C39.3835454,100.283065 39.2736317,100.226943 39.1803562,100.142 L35.9847901,97.2342257 Z" id="Path" fill="#4A4A4A" mask="url(#mask-2)"></path>
                    <path d="M79.2862737,37.3359 C78.9877923,37.0770267 78.9550198,36.6234928 79.2136701,36.3246762 C79.4718162,36.0253539 79.9235718,35.9924892 80.2220532,36.2518681 L85.6728682,40.9621486 C86.4392393,41.2250668 90.2221886,42.6180276 93.7116984,45.6259128 C97.2985171,48.7167184 104.310309,56.0329227 105.157855,56.919766 C106.485896,57.5699829 118.950519,63.6873813 120.85233,65.1900599 C121.163416,65.4352817 121.217869,65.8867931 120.973336,66.1992613 C120.728803,66.5107182 120.278056,66.5648187 119.967474,66.3195969 C118.123645,64.862929 105.227434,58.5468251 104.451483,58.1676161 C104.363753,58.1312121 104.282074,58.0761004 104.212496,58.0032923 C104.190312,57.9800341 96.540213,49.9544563 92.7819691,46.7155065 C89.1079252,43.5493647 85.1127113,42.2898855 85.1011149,42.2868518 L85.1016191,42.2848293 C85.0113688,42.2565151 84.9251521,42.2089875 84.8490192,42.143258 L79.2862737,37.3359 Z" id="Path" fill="#4A4A4A" mask="url(#mask-2)"></path>
                    <path d="M70.0630975,33.8451554 C69.6683155,33.8532452 69.3421036,33.538249 69.3345407,33.1433661 C69.3269779,32.7474719 69.640585,32.420341 70.0348628,32.4127569 L75.1539197,32.2939381 C75.2209772,32.2929268 75.2855137,32.3010166 75.3475293,32.3166906 L75.3475293,32.3166906 L78.7114953,33.2020171 C79.0936725,33.301117 79.3230797,33.6924606 79.2242581,34.0757144 C79.1249324,34.4589683 78.7346881,34.6885161 78.3530151,34.5894161 L75.0828287,33.7288647 L70.0630975,33.8451554 Z" id="Path" fill="#4A4A4A" mask="url(#mask-2)"></path>
                    <path d="M68.2631337,31.0713685 C67.8688559,31.0819863 67.5396188,30.7705294 67.5290308,30.3746353 C67.5184427,29.9792468 67.8290247,29.6495878 68.2238067,29.6384643 L75.5320634,29.4165007 C75.6112214,29.4139726 75.6868502,29.4250961 75.7584454,29.4468374 L81.6458902,30.9667068 C82.0280674,31.0642899 82.2589871,31.4546223 82.1616782,31.8373705 C82.0643692,32.2206243 81.6751333,32.4521946 81.2934603,32.3546115 L75.4745855,30.8514273 L68.2631337,31.0713685 Z" id="Path" fill="#4A4A4A" mask="url(#mask-2)"></path>
                    <path d="M70.6469514,28.2237622 C70.2531777,28.2313464 69.9264616,27.9168558 69.9187648,27.5214673 C69.9113359,27.1260788 70.224943,26.7989479 70.6192208,26.7913637 L77.5725266,26.6427138 C77.6607601,26.641197 77.7449601,26.6558597 77.823614,26.6831627 L83.3656876,28.4568493 C83.7413103,28.5761737 83.9500456,28.9786408 83.8305522,29.3558273 C83.711563,29.7330138 83.3102265,29.9413259 82.9340996,29.8220015 L77.4832847,28.078146 L70.6469514,28.2237622 Z" id="Path" fill="#4A4A4A" mask="url(#mask-2)"></path>
                    <path d="M68.4748941,24.3280225 C64.184224,25.7902521 57.8218307,24.2592593 52.1844649,22.9027025 C49.7441777,22.3156871 47.4430475,21.7610308 45.5462788,21.5102473 C42.0134086,21.0425563 37.7025708,24.0034196 32.694436,27.4446143 C29.3440831,29.7461597 25.6907111,32.2560172 21.6803714,34.1480169 L21.6798673,34.1470057 L21.6778505,34.1480169 C12.7259294,38.3724044 3.64997714,50.2856321 1.986145,52.5381332 C3.04393889,54.3598529 7.69157667,62.0704345 14.0650622,68.3587297 C18.3693455,72.6053641 21.9218792,75.1480864 24.9066932,77.2842967 C27.0000966,78.7824248 28.8197239,80.0848811 30.4487668,81.6436826 C34.2054981,85.2401001 34.2503712,95.1920592 34.22617,97.0218687 L37.9304654,101.064236 L42.4863403,102.548712 C42.861963,102.671576 43.0676731,103.076571 42.9456588,103.453758 C42.8236444,103.830439 42.4192828,104.036728 42.0436601,103.91437 L37.3093014,102.371243 C37.1817409,102.329782 37.0733397,102.254952 36.9906523,102.159897 L32.9798084,97.7828146 C32.839139,97.6291086 32.7771234,97.4309087 32.7932576,97.237765 C32.8114085,96.5000772 33.0095557,86.077899 29.4625681,82.6832206 C27.9061288,81.1926767 26.1253242,79.9190404 24.0778023,78.4532714 C21.050132,76.2867244 17.4471791,73.7081037 13.061721,69.381077 C5.65464277,62.0724569 0.528527204,52.8682978 0.513905649,52.8420059 C0.372732012,52.5907168 0.398949973,52.2913946 0.556257739,52.0724646 L0.555753548,52.071959 C0.58550085,52.0310044 10.8402529,37.6802217 21.0702997,32.851628 L21.0692913,32.8506168 C24.9767758,31.0066502 28.5817455,28.530163 31.8877295,26.2589544 C37.1368678,22.6529302 41.6549284,19.5489787 45.7308129,20.0884666 C47.6921181,20.3478456 50.0325753,20.9121084 52.5147104,21.5092361 C57.9619959,22.8202878 64.1101078,24.2992026 68.0150714,22.9684321 C74.9744275,20.596101 75.3334119,20.2148696 78.1936906,13.4421981 C81.0917837,6.62503281 85.2125413,2.42289225 91.2351094,0.987460053 C97.5531338,-0.518252204 105.790111,1.07391969 109.257941,8.19445217 C109.57054,8.83607367 109.835744,9.49741405 110.056076,10.1708891 C111.605961,14.9165625 111.133029,20.6633474 110.036917,25.3341902 C108.918116,30.1031217 107.049582,33.8476835 105.979183,34.3730142 L105.976158,34.3745311 L105.976662,34.3760479 C105.922714,34.4018341 105.868261,34.4245866 105.814817,34.4417774 C104.973825,34.7178415 104.343082,34.658685 103.780908,34.6061013 C103.181928,34.5499784 102.70698,34.5049789 102.000103,35.5369328 C101.233732,36.655852 100.485512,37.649885 99.7902318,38.4280217 C99.3823408,38.8850949 98.988063,39.2703712 98.6139529,39.5666597 C100.827354,41.678095 103.547467,44.2284015 106.240354,46.6462376 C108.133089,48.3455993 110.11305,50.0201859 112.029986,51.6421889 C116.245532,55.2082697 120.160075,58.5200276 122.891281,61.9227958 C126.958594,66.9900383 126.835971,73.4006917 126.835971,73.4188937 C126.835971,73.4542865 126.832546,73.4891737 126.827,73.5225441 L126.827504,73.5225441 C126.823471,73.5483303 125.479296,82.5891768 114.007425,80.9459381 C108.064015,80.0944877 100.90147,76.5637997 94.8526839,73.5822063 C93.1152398,72.7256998 91.4720795,71.9157095 89.9907647,71.2331334 C88.4338211,74.6955638 81.2546375,91.5501366 82.5075536,105.273455 C82.5433512,105.667832 82.253441,106.016199 81.8606758,106.051592 C81.4679106,106.086985 81.1200184,105.796763 81.084725,105.402892 C79.8010533,91.343847 87.0921674,74.197536 88.6864211,70.6476348 C86.5400776,69.7157921 84.8343976,69.1510236 83.8224851,69.2577077 C79.450136,69.7188258 76.3196106,71.2599309 76.3105351,71.2644814 C75.9565927,71.4379062 75.528534,71.2907732 75.3555963,70.9358336 C75.1821544,70.5808941 75.3288742,70.1516296 75.6833208,69.9782047 C75.6929005,69.9731485 79.0548498,68.3182808 83.6767738,67.8308709 C85.0562419,67.6852547 87.2192237,68.4295154 89.8712713,69.6111304 C89.8944641,69.6192202 89.9171527,69.6283212 89.9398413,69.6389391 L89.9826976,69.6606804 C91.6500591,70.4074692 93.5064924,71.3226267 95.4804023,72.295424 C101.431879,75.2294899 108.479973,78.7035493 114.209102,79.5241575 C123.833615,80.9029611 125.294762,73.9781005 125.407701,73.3445687 C125.408205,72.7317671 125.312408,67.2266647 121.776513,62.8217737 C119.135053,59.5307458 115.268913,56.2594368 111.105803,52.7378499 C109.220631,51.1431499 107.273443,49.496372 105.287432,47.7135844 C99.0399947,42.1048315 92.7376003,35.8721535 92.7194494,35.8544571 L92.7199536,35.8539515 C92.6594506,35.7953005 92.6085272,35.7250205 92.5707129,35.6436169 C92.5666793,35.6345159 91.0646927,32.3394431 88.5780199,30.1855364 C86.2849567,28.1989872 81.2430411,26.0117101 80.3758317,25.6426134 L76.8606081,25.6709277 C76.4658261,25.6739614 76.1431435,25.3559315 76.1401184,24.960543 C76.1320513,23.7728606 79.5610581,24.2162823 80.5185179,24.2086981 C80.618852,24.2076868 80.7141442,24.2279113 80.8003609,24.2643154 L80.8013693,24.2617873 C80.819016,24.2693715 86.8158704,26.7645663 89.5132953,29.1009989 C91.9429944,31.2053556 93.4994337,34.2749255 93.8085031,34.916547 C94.1684959,35.2714866 95.5756946,36.6548408 97.54305,38.5427956 C97.8788416,38.3086973 98.2700942,37.9340389 98.701178,37.4511795 C99.3404929,36.7352331 100.050395,35.7902444 100.790548,34.7087405 C101.984978,32.9648851 102.837566,33.0447717 103.912502,33.1458941 C104.32846,33.1848262 104.795846,33.2288145 105.353986,33.0472998 C106.122374,32.6337093 107.5931,29.334086 108.610055,25.0009919 C109.656756,20.5394725 110.117083,15.077347 108.662995,10.6254342 C108.459301,10.0020147 108.220819,9.40337023 107.945026,8.83860173 C104.787779,2.36778056 97.1820489,0.983415158 91.4519118,2.37536474 C85.9108466,3.72130363 82.2347859,7.63170611 79.5403862,14.0110115 C76.389189,21.4708096 75.7080262,21.8616476 68.4748941,24.3280225 L68.4748941,24.3280225 Z" id="Path" fill="#4A4A4A" mask="url(#mask-2)"></path>
                    <path d="M100.272239,24.1773501 C100.005017,24.4807173 99.5426737,24.5090315 99.240663,24.2410572 C98.9381481,23.9725773 98.9099133,23.5094368 99.177639,23.2060697 C99.1816726,23.2020248 100.657945,21.5542356 100.23745,21.2008128 C100.182493,21.1542965 100.129049,21.1138476 100.079638,21.0804772 L100.078125,21.0824997 C99.7529216,20.8650865 99.3465432,20.7503126 98.9134427,20.8231207 C98.4400068,20.903513 97.9161518,21.2063746 97.3912884,21.8333333 C97.2677614,21.9814776 97.1457471,22.1447903 97.027262,22.3232713 L97.0257495,22.3252937 L97.027262,22.3263049 C96.1746741,23.6085367 95.5353592,24.0337564 95.0649485,24.3457189 C94.8093234,24.5156045 94.6404192,24.628356 94.5370599,25.0252613 C94.3595845,25.7037925 94.2516875,26.3808068 94.2889977,26.8773177 C94.3036193,27.0785513 94.3152157,27.2079879 94.318745,27.2089991 C94.6968887,27.3536041 94.8869689,27.7783181 94.7432743,28.1575271 C94.5995797,28.5372416 94.1755546,28.7273517 93.7974109,28.5832523 C93.173726,28.3451091 92.88432,27.7560712 92.8273464,26.9865299 C92.7774314,26.3241783 92.9065044,25.4793008 93.1212901,24.6576814 C93.3678397,23.7116816 93.721278,23.476572 94.2567294,23.1211269 C94.6192432,22.8809612 95.1128467,22.5528191 95.8061101,21.5097417 L95.8076227,21.5107529 C95.9593843,21.2822164 96.1136669,21.0754211 96.2679496,20.8913784 C97.0413794,19.9666142 97.8778332,19.5090354 98.6724391,19.3750482 C99.5078845,19.2334769 100.279802,19.448362 100.892395,19.8579076 L100.890882,19.8599301 L100.892395,19.8609413 C100.996762,19.9307157 101.092054,20.002007 101.177263,20.0738039 C102.787146,21.4278326 100.279298,24.169766 100.272239,24.1773501 L100.272239,24.1773501 Z" id="Path" fill="#4A4A4A" mask="url(#mask-2)"></path>
                    <path d="M34.5559113,48.3046447 C34.5609532,48.335487 34.5639783,48.3663293 34.5649867,48.3971717 C35.3041315,55.8903401 36.8308236,63.844121 37.8578618,69.196023 L37.9682797,69.7734318 C39.5711047,78.1327135 40.6409992,89.5175768 40.8436842,91.7665385 L45.2241004,94.0180284 C45.5755219,94.1975206 45.7146788,94.6293132 45.5351866,94.981219 C45.3556944,95.3336305 44.9251148,95.4731794 44.5741975,95.2931816 L39.8398388,92.8601771 C39.61144,92.7433807 39.4727873,92.5199003 39.4531239,92.2812515 L39.4506029,92.2812515 C39.4490903,92.2595102 39.0563251,87.6968683 38.369112,82.0663741 C37.2961924,80.913579 31.1566518,74.2207942 26.4868296,67.0340265 C21.3597056,59.1424359 19.3242843,53.2111026 19.3101669,53.1706537 C19.2002532,52.8566687 19.3222675,52.4971786 19.618228,52.3192032 C19.6338579,52.3095966 25.0559339,49.0094677 28.106797,49.0726692 C30.1240675,49.1151406 32.1978073,48.351161 33.0907306,47.975997 C32.5734301,42.4314568 32.4972971,37.1468011 33.3720695,33.310218 C33.460303,32.9239305 33.844497,32.682248 34.2291951,32.7707301 C34.6143975,32.8592122 34.855401,33.2439828 34.7671675,33.6302703 C33.9034874,37.4167979 34.010376,42.7297678 34.5559113,48.3046447 L34.5559113,48.3046447 Z" id="Path" fill="#4A4A4A" mask="url(#mask-2)"></path>
                    <path d="M57.0548998,85.9014936 C57.7897963,85.9014936 58.3864807,86.4865146 58.3864807,87.2081753 C58.3864807,87.929836 57.7897963,88.5148569 57.0548998,88.5148569 C56.3194875,88.5148569 55.7233188,87.929836 55.7233188,87.2081753 C55.7233188,86.4865146 56.3194875,85.9014936 57.0548998,85.9014936 M55.8842225,74.7182827 C56.8872918,74.7182827 57.7000615,75.5163605 57.7000615,76.5001673 C57.7000615,77.4844801 56.8872918,78.2825579 55.8842225,78.2825579 C54.8811532,78.2825579 54.0678677,77.4844801 54.0678677,76.5001673 C54.0678677,75.5163605 54.8811532,74.7182827 55.8842225,74.7182827 M55.642867,63.192966 C57.0466483,63.192966 58.1848354,64.3103762 58.1848354,65.6879081 C58.1848354,67.0659461 57.0466483,68.1828502 55.642867,68.1828502 C54.23857,68.1828502 53.1003829,67.0659461 53.1003829,65.6879081 C53.1003829,64.3103762 54.23857,63.192966 55.642867,63.192966 M54.0694149,52.0249372 C55.7408532,52.0249372 57.0961571,53.3543922 57.0961571,54.9950823 C57.0961571,56.6352663 55.7408532,57.9647212 54.0694149,57.9647212 C52.3979766,57.9647212 51.0426727,56.6352663 51.0426727,54.9950823 C51.0426727,53.3543922 52.3979766,52.0249372 54.0694149,52.0249372 M56.3689964,41.3923341 C58.0409504,41.3923341 59.3962543,42.7222951 59.3962543,44.3624792 C59.3962543,46.0026632 58.0409504,47.3321182 56.3689964,47.3321182 C54.697558,47.3321182 53.3427699,46.0026632 53.3427699,44.3624792 C53.3427699,42.7222951 54.697558,41.3923341 56.3689964,41.3923341 M63.2099804,35.3928334 C63.9448769,35.3928334 64.5415613,35.9783604 64.5415613,36.6995151 C64.5415613,37.4216819 63.9448769,38.0067028 63.2099804,38.0067028 C62.4740525,38.0067028 61.8778838,37.4216819 61.8778838,36.6995151 C61.8778838,35.9783604 62.4740525,35.3928334 63.2099804,35.3928334 M55.8852539,95.7431039 C56.6877094,95.7431039 57.3380283,96.3812626 57.3380283,97.1692189 C57.3380283,97.9561631 56.6877094,98.5943217 55.8852539,98.5943217 C55.0827985,98.5943217 54.4324796,97.9561631 54.4324796,97.1692189 C54.4324796,96.3812626 55.0827985,95.7431039 55.8852539,95.7431039" id="Fill-8" fill="#4A4A4A" mask="url(#mask-2)"></path>
                </g>
                <rect id="Rectangle" stroke="#D9341A" stroke-width="3" x="1.56319402e-13" y="8.52651283e-14" width="144.295199" height="144.251686" rx="72.125843"></rect>
            </g>
        </g>
    </g>
</svg>