<?xml version="1.0" encoding="UTF-8"?>
<svg width="36px" height="51px" viewBox="0 0 36 51" version="1.1" xmlns="http://www.w3.org/2000/svg" xmlns:xlink="http://www.w3.org/1999/xlink">
    <!-- Generator: Sketch 63.1 (92452) - https://sketch.com -->
    <title>Fill 20</title>
    <desc>Created with Sketch.</desc>
    <g id="Page-2" stroke="none" stroke-width="1" fill="none" fill-rule="evenodd">
        <g id="Product-Page_New_03" transform="translate(-517.000000, -3680.000000)" fill="#D9341A">
            <path d="M539.115895,3697.71272 L539.400107,3683.69776 L540.316647,3683.71636 L541.778066,3683.7468 C541.818428,3683.7468 541.867198,3683.71298 541.914286,3683.65718 C542.006781,3683.54557 542.065642,3683.37647 542.070687,3683.17694 C542.07405,3682.97571 542.021917,3682.80492 541.934467,3682.68993 C541.88906,3682.63244 541.841972,3682.59524 541.801611,3682.59524 L528.796828,3682.32637 C528.758148,3682.32637 528.707696,3682.36188 528.660608,3682.41768 C528.568113,3682.5276 528.509253,3682.69839 528.505889,3682.89623 C528.500844,3683.09746 528.552978,3683.26825 528.642109,3683.38324 C528.685834,3683.44073 528.734604,3683.47793 528.773284,3683.47963 L530.234703,3683.51006 L531.151244,3683.52866 L530.867032,3697.54362 L530.851896,3698.21325 L530.211159,3698.40433 C527.009154,3699.36482 524.232625,3701.33144 522.254916,3703.94572 C520.327659,3706.49067 519.157178,3709.65621 519.088227,3713.10752 C518.999096,3717.43309 520.664004,3721.38663 523.425397,3724.27992 C526.18679,3727.17321 530.048032,3729.00625 534.349885,3729.09587 C538.653421,3729.1838 542.583613,3727.50972 545.462727,3724.73311 C548.338477,3721.95649 550.163149,3718.07397 550.250599,3713.74841 C550.321232,3710.29709 549.280244,3707.0859 547.460617,3704.46486 C545.588856,3701.7711 542.894732,3699.69118 539.73477,3698.60049 L539.102441,3698.38235 L539.115895,3697.71272 Z M541.429997,3685.30976 L541.195405,3696.85902 C544.461119,3698.13078 547.245836,3700.3589 549.218766,3703.19577 C551.264268,3706.14116 552.435537,3709.73769 552.356214,3713.59536 C552.258327,3718.445 550.212826,3722.79441 546.984242,3725.90767 C543.757345,3729.01924 539.347366,3730.89466 534.52221,3730.79631 C529.695367,3730.69627 525.366398,3728.64111 522.269455,3725.39897 C519.170824,3722.15684 517.304219,3717.72603 517.403794,3712.87639 C517.481429,3709.01872 518.79784,3705.47476 520.963169,3702.61585 C523.047488,3699.86206 525.921653,3697.74925 529.236311,3696.61315 L529.47259,3685.06389 L528.925773,3685.05371 C528.301321,3685.04015 527.756191,3684.72814 527.376457,3684.2347 C527.042291,3683.79721 526.841454,3683.21221 526.854956,3682.58311 C526.86677,3681.95401 527.091235,3681.37918 527.443965,3680.95526 C527.842264,3680.47877 528.400896,3680.18881 529.02366,3680.20033 L542.076389,3680.47029 C542.699153,3680.48216 543.24597,3680.79417 543.624016,3681.28761 C543.958182,3681.7251 544.15902,3682.3101 544.147206,3682.9392 C544.133704,3683.5683 543.909239,3684.14483 543.556508,3684.56705 C543.158209,3685.04523 542.601266,3685.33519 541.976814,3685.32163 L541.429997,3685.30976 L541.429997,3685.30976 Z" id="Fill-20"></path>
        </g>
    </g>
</svg>