<?xml version="1.0" encoding="UTF-8"?>
<svg width="221px" height="773px" viewBox="0 0 221 773" version="1.1" xmlns="http://www.w3.org/2000/svg" xmlns:xlink="http://www.w3.org/1999/xlink">
    <!-- Generator: Sketch 63.1 (92452) - https://sketch.com -->
    <title>Group 276</title>
    <desc>Created with Sketch.</desc>
    <defs>
        <polygon id="path-1" points="0 0.195502056 220.690537 0.195502056 220.690537 772.962246 0 772.962246"></polygon>
    </defs>
    <g id="Page-2" stroke="none" stroke-width="1" fill="none" fill-rule="evenodd">
        <g id="Product-Page_New_03" transform="translate(-38.000000, -7251.000000)">
            <g id="Group-276" transform="translate(38.000000, 7251.000000)">
                <g id="Group-3">
                    <mask id="mask-2" fill="white">
                        <use xlink:href="#path-1"></use>
                    </mask>
                    <g id="Clip-2"></g>
                    <path d="M216.6528,385.322622 C216.6528,381.018119 223.484459,289.828897 218.184263,277.153793 C212.92402,264.465446 219.129776,254.902828 219.129776,244.995851 C219.129776,235.115363 219.742361,211.937275 214.775093,197.699306 C209.807824,183.487826 213.216995,170.812723 210.74002,162.468611 C208.23641,154.111255 198.901141,133.105284 165.049141,132.178161 C165.049141,132.178161 135.20558,125.079043 133.6608,114.576058 C132.076068,104.059828 133.6608,89.8218594 133.6608,89.8218594 C133.6608,89.8218594 140.172849,87.9676123 142.023922,71.8886411 C142.023922,71.8886411 148.589239,71.5840148 148.589239,58.6175299 C148.589239,45.6245556 144.847141,47.783429 144.847141,47.783429 C144.847141,47.783429 150.453629,0.195502056 119.69119,0.195502056 L110.369239,0.473639119 L110.369239,0.195502056 L101.020654,0.195502056 C70.2582146,0.195502056 75.8380683,47.783429 75.8380683,47.783429 C75.8380683,47.783429 72.1092878,45.6245556 72.1092878,58.6175299 C72.1092878,71.5840148 78.6479707,71.8886411 78.6479707,71.8886411 C80.4990439,87.9676123 87.0377268,89.8218594 87.0377268,89.8218594 C87.0377268,89.8218594 88.5825073,104.059828 87.0377268,114.576058 C85.4796293,125.079043 55.6360683,132.178161 55.6360683,132.178161 C21.7707512,133.105284 12.4354829,154.111255 9.95850732,162.468611 C7.48153171,170.812723 10.8907024,183.487826 5.91011707,197.699306 C0.94284878,211.937275 1.56875122,235.115363 1.56875122,244.995851 C1.56875122,254.902828 7.77450732,264.465446 2.4743122,277.153793 C-2.78593171,289.828897 4.0590439,381.018119 4.0590439,385.322622 C4.0590439,389.653613 0.330263415,412.54032 -0.00266341463,428.010038 C-0.308956098,443.453268 19.8930439,459.201123 25.179922,462.313609 C30.4801171,465.399606 29.2283122,458.287244 29.2283122,458.287244 C29.2283122,458.287244 31.6919707,458.287244 31.6919707,455.505874 C31.6919707,452.750992 24.5540195,445.612141 24.5540195,445.612141 C24.5540195,445.612141 30.7730927,445.903523 30.7730927,444.380391 C30.7730927,442.844015 18.0419707,434.486659 15.551678,433.22842 C13.0480683,431.99667 9.03962927,420.884432 13.367678,419.043429 C17.722361,417.175938 19.5867512,421.189058 23.6218244,429.851041 C27.6835317,438.526268 29.2283122,431.082791 29.2283122,431.082791 C29.2283122,431.082791 27.9765073,418.116306 30.1471902,410.063576 C32.3311902,402.037335 26.4184098,395.242844 23.6218244,393.362107 C20.825239,391.534349 20.825239,372.05151 29.8542146,355.972539 C38.843239,339.906813 34.5151902,277.153793 34.5151902,277.153793 C43.2245561,267.273305 42.2790439,226.771251 43.5175317,223.062757 C44.7560195,219.354263 49.749922,210.996906 50.0562146,222.44026 C50.3625073,233.870369 51.2947024,251.498961 55.0234829,255.843197 C58.7655805,260.147699 56.2619707,291.073891 55.3297756,297.537267 C54.3842634,304.040376 48.4981171,338.370436 43.8238244,363.402772 C39.1761659,388.435108 41.027239,445.002888 41.027239,445.002888 C41.027239,445.002888 43.5175317,529.079749 43.5175317,536.205356 C43.5175317,543.304473 38.5502634,567.409685 37.3117756,589.356024 C36.0466537,611.302363 41.9727512,638.20219 49.749922,655.499666 C57.4871415,672.810388 59.0585561,713.299197 57.8067512,715.471315 C56.5682634,717.630188 54.7171902,723.497556 55.0101659,728.424555 C55.3297756,733.391289 46.9267024,752.874128 45.395239,756.887248 C43.8238244,760.900369 41.027239,771.416599 51.2947024,770.780857 C61.5621659,770.184849 68.3805073,772.648348 79.8864585,772.968371 C91.3790927,773.270846 85.799239,741.126148 85.4796293,740.199024 C85.1733366,739.285145 84.2411415,727.20605 85.4796293,724.729306 C86.7447512,722.265806 90.1272878,714.226321 86.4251415,710.199956 C82.6697268,706.20008 80.8186537,698.783091 80.8186537,698.783091 C77.7157756,648.705175 78.9675805,658.903534 83.9215317,626.427721 C88.8754829,593.991642 83.2956293,580.694041 83.2956293,580.694041 C78.0087512,565.542194 82.6697268,556.575585 82.6697268,556.575585 C93.8560683,537.423861 95.7337756,507.13341 95.7337756,492.921931 C95.7337756,478.683962 98.2107512,452.128495 98.2107512,452.128495 C107.54602,432.327785 106.294215,419.334811 106.294215,415.030309 C106.294215,410.699317 109.73002,408.513955 109.73002,408.513955 L109.73002,408.249062 C111.314751,409.321877 114.377678,411.811866 114.377678,415.030309 C114.377678,419.334811 113.152507,432.327785 122.461141,452.128495 C122.461141,452.128495 124.964751,478.683962 124.964751,492.921931 C124.964751,507.13341 126.815824,537.423861 138.015483,556.575585 C138.015483,556.575585 142.663141,565.542194 137.38958,580.694041 C137.38958,580.694041 131.783093,593.991642 136.776995,626.427721 C141.730946,658.903534 142.996068,648.705175 139.866556,698.783091 C139.866556,698.783091 138.015483,706.20008 134.286702,710.199956 C130.544605,714.226321 133.953776,722.265806 135.20558,724.729306 C136.457385,727.20605 135.511873,739.285145 135.20558,740.199024 C134.885971,741.126148 129.306117,773.270846 140.812068,772.968371 C152.304702,772.648348 159.136361,770.184849 169.417141,770.780857 C179.657971,771.416599 176.861385,760.900369 175.289971,756.887248 C173.731873,752.874128 165.355434,733.391289 165.688361,728.424555 C165.981337,723.497556 164.116946,717.630188 162.891776,715.471315 C161.639971,713.299197 163.198068,672.810388 170.975239,655.499666 C178.725776,638.20219 184.638556,611.302363 183.386751,589.356024 C182.148263,567.409685 177.167678,543.304473 177.167678,536.205356 C177.167678,529.079749 179.657971,445.002888 179.657971,445.002888 C179.657971,445.002888 181.509044,388.435108 176.861385,363.402772 C172.20041,338.370436 166.287629,304.040376 165.355434,297.537267 C164.423239,291.073891 161.95958,260.147699 165.64841,255.843197 C169.417141,251.498961 170.349337,233.870369 170.642312,222.44026 C170.975239,210.996906 175.92919,219.354263 177.167678,223.062757 C178.392849,226.771251 177.460654,267.273305 186.17002,277.153793 C186.17002,277.153793 181.815337,339.906813 190.844312,355.972539 C199.859971,372.05151 199.859971,391.534349 197.050068,393.362107 C194.253483,395.242844 188.367337,402.037335 190.53802,410.063576 C192.695385,418.116306 191.456898,431.082791 191.456898,431.082791 C191.456898,431.082791 193.041629,438.526268 197.050068,429.851041 C201.111776,421.189058 202.976166,417.175938 207.317532,419.043429 C211.672215,420.884432 207.637141,431.99667 205.146849,433.22842 C202.643239,434.486659 189.8988,442.844015 189.8988,444.380391 C189.8988,445.903523 196.13119,445.612141 196.13119,445.612141 C196.13119,445.612141 188.979922,452.750992 188.979922,455.505874 C188.979922,458.287244 191.456898,458.287244 191.456898,458.287244 C191.456898,458.287244 190.231727,465.399606 195.491971,462.313609 C200.778849,459.201123 221.007483,443.453268 220.687873,428.010038 C220.354946,412.54032 216.6528,389.653613 216.6528,385.322622" id="Fill-1" fill="#CBD9E8" mask="url(#mask-2)"></path>
                </g>
                <path d="M110.38,14.994 C110.38,17.43 108.412,19.386 106,19.386 C103.576,19.386 101.62,17.43 101.62,14.994 C101.62,12.57 103.576,10.614 106,10.614 C108.412,10.614 110.38,12.57 110.38,14.994" id="Fill-4" fill="#2AB9A3"></path>
                <path d="M104.386,14.994 C104.386,17.43 102.418,19.386 99.994,19.386 C97.57,19.386 95.614,17.43 95.614,14.994 C95.614,12.57 97.57,10.614 99.994,10.614 C102.418,10.614 104.386,12.57 104.386,14.994" id="Fill-6" fill="#2AB9A3"></path>
                <path d="M119.38,21.994 C119.38,24.43 117.412,26.386 115,26.386 C112.576,26.386 110.62,24.43 110.62,21.994 C110.62,19.57 112.576,17.614 115,17.614 C117.412,17.614 119.38,19.57 119.38,21.994" id="Fill-8" fill="#2AB9A3"></path>
                <path d="M131.38,24.994 C131.38,27.43 129.412,29.386 127,29.386 C124.564,29.386 122.62,27.43 122.62,24.994 C122.62,22.57 124.564,20.614 127,20.614 C129.412,20.614 131.38,22.57 131.38,24.994" id="Fill-10" fill="#2AB9A3"></path>
                <path d="M137.386,37.006 C137.386,39.43 135.406,41.386 133.006,41.386 C130.57,41.386 128.614,39.43 128.614,37.006 C128.614,34.582 130.57,32.614 133.006,32.614 C135.406,32.614 137.386,34.582 137.386,37.006" id="Fill-12" fill="#2AB9A3"></path>
                <path d="M97.386,41 C97.386,43.424 95.418,45.38 92.994,45.38 C90.57,45.38 88.614,43.424 88.614,41 C88.614,38.576 90.57,36.62 92.994,36.62 C95.418,36.62 97.386,38.576 97.386,41" id="Fill-14" fill="#2AB9A3"></path>
                <path d="M97.386,50.006 C97.386,52.43 95.406,54.386 92.994,54.386 C90.57,54.386 88.614,52.43 88.614,50.006 C88.614,47.582 90.57,45.614 92.994,45.614 C95.406,45.614 97.386,47.582 97.386,50.006" id="Fill-16" fill="#2AB9A3"></path>
                <path d="M100.38,46.006 C100.38,48.43 98.412,50.386 95.988,50.386 C93.564,50.386 91.62,48.43 91.62,46.006 C91.62,43.582 93.564,41.614 95.988,41.614 C98.412,41.614 100.38,43.582 100.38,46.006" id="Fill-18" fill="#2AB9A3"></path>
                <path d="M104.38,44.006 C104.38,46.43 102.412,48.386 100,48.386 C97.564,48.386 95.62,46.43 95.62,44.006 C95.62,41.582 97.564,39.614 100,39.614 C102.412,39.614 104.38,41.582 104.38,44.006" id="Fill-20" fill="#2AB9A3"></path>
                <path d="M110.386,41.006 C110.386,43.43 108.406,45.386 105.994,45.386 C103.57,45.386 101.614,43.43 101.614,41.006 C101.614,38.582 103.57,36.614 105.994,36.614 C108.406,36.614 110.386,38.582 110.386,41.006" id="Fill-22" fill="#2AB9A3"></path>
                <path d="M131.386,53 C131.386,55.424 129.406,57.38 127.006,57.38 C124.57,57.38 122.614,55.424 122.614,53 C122.614,50.576 124.57,48.62 127.006,48.62 C129.406,48.62 131.386,50.576 131.386,53" id="Fill-24" fill="#2AB9A3"></path>
                <path d="M131.38,64.994 C131.38,67.418 129.412,69.386 127,69.386 C124.576,69.386 122.62,67.418 122.62,64.994 C122.62,62.582 124.576,60.614 127,60.614 C129.412,60.614 131.38,62.582 131.38,64.994" id="Fill-26" fill="#2AB9A3"></path>
                <path d="M137.38,81.006 C137.38,83.43 135.412,85.386 133,85.386 C130.564,85.386 128.62,83.43 128.62,81.006 C128.62,78.582 130.564,76.614 133,76.614 C135.412,76.614 137.38,78.582 137.38,81.006" id="Fill-28" fill="#2AB9A3"></path>
                <path d="M126.38,90 C126.38,92.424 124.412,94.392 122,94.392 C119.564,94.392 117.62,92.424 117.62,90 C117.62,87.576 119.564,85.608 122,85.608 C124.412,85.608 126.38,87.576 126.38,90" id="Fill-30" fill="#2AB9A3"></path>
                <path d="M100.38,82 C100.38,84.424 98.412,86.38 95.988,86.38 C93.564,86.38 91.62,84.424 91.62,82 C91.62,79.576 93.564,77.62 95.988,77.62 C98.412,77.62 100.38,79.576 100.38,82" id="Fill-32" fill="#2AB9A3"></path>
                <path d="M91.386,81.994 C91.386,84.43 89.406,86.386 87.006,86.386 C84.582,86.386 82.614,84.43 82.614,81.994 C82.614,79.57 84.582,77.614 87.006,77.614 C89.406,77.614 91.386,79.57 91.386,81.994" id="Fill-34" fill="#2AB9A3"></path>
                <path d="M118.386,92.994 C118.386,95.43 116.406,97.386 113.994,97.386 C111.57,97.386 109.614,95.43 109.614,92.994 C109.614,90.57 111.57,88.614 113.994,88.614 C116.406,88.614 118.386,90.57 118.386,92.994" id="Fill-36" fill="#2AB9A3"></path>
                <path d="M125.386,94.006 C125.386,96.43 123.406,98.386 120.982,98.386 C118.57,98.386 116.614,96.43 116.614,94.006 C116.614,91.582 118.57,89.614 120.982,89.614 C123.406,89.614 125.386,91.582 125.386,94.006" id="Fill-38" fill="#2AB9A3"></path>
                <path d="M104.38,96.994 C104.38,99.43 102.412,101.386 100,101.386 C97.576,101.386 95.62,99.43 95.62,96.994 C95.62,94.57 97.576,92.614 100,92.614 C102.412,92.614 104.38,94.57 104.38,96.994" id="Fill-40" fill="#2AB9A3"></path>
                <path d="M110.386,102.006 C110.386,104.43 108.406,106.386 105.994,106.386 C103.57,106.386 101.614,104.43 101.614,102.006 C101.614,99.582 103.57,97.614 105.994,97.614 C108.406,97.614 110.386,99.582 110.386,102.006" id="Fill-42" fill="#2AB9A3"></path>
                <path d="M118.386,98.994 C118.386,101.43 116.406,103.386 114.006,103.386 C111.57,103.386 109.614,101.43 109.614,98.994 C109.614,96.57 111.57,94.614 114.006,94.614 C116.406,94.614 118.386,96.57 118.386,98.994" id="Fill-44" fill="#2AB9A3"></path>
                <path d="M119.38,101.994 C119.38,104.43 117.412,106.386 115,106.386 C112.564,106.386 110.62,104.43 110.62,101.994 C110.62,99.582 112.564,97.614 115,97.614 C117.412,97.614 119.38,99.582 119.38,101.994" id="Fill-46" fill="#2AB9A3"></path>
                <path d="M125.386,104.006 C125.386,106.43 123.406,108.386 121.006,108.386 C118.57,108.386 116.614,106.43 116.614,104.006 C116.614,101.582 118.57,99.614 121.006,99.614 C123.406,99.614 125.386,101.582 125.386,104.006" id="Fill-48" fill="#2AB9A3"></path>
                <path d="M113.38,105.994 C113.38,108.43 111.412,110.386 109,110.386 C106.576,110.386 104.62,108.43 104.62,105.994 C104.62,103.57 106.576,101.614 109,101.614 C111.412,101.614 113.38,103.57 113.38,105.994" id="Fill-50" fill="#2AB9A3"></path>
                <path d="M113.386,109.994 C113.386,112.43 111.406,114.386 109.006,114.386 C106.57,114.386 104.614,112.43 104.614,109.994 C104.614,107.57 106.57,105.614 109.006,105.614 C111.406,105.614 113.386,107.57 113.386,109.994" id="Fill-52" fill="#2AB9A3"></path>
                <path d="M125.386,109.994 C125.386,112.418 123.406,114.386 121.006,114.386 C118.57,114.386 116.614,112.418 116.614,109.994 C116.614,107.57 118.57,105.614 121.006,105.614 C123.406,105.614 125.386,107.57 125.386,109.994" id="Fill-54" fill="#2AB9A3"></path>
                <path d="M125.386,115.006 C125.386,117.43 123.406,119.386 121.006,119.386 C118.57,119.386 116.614,117.43 116.614,115.006 C116.614,112.582 118.57,110.614 121.006,110.614 C123.406,110.614 125.386,112.582 125.386,115.006" id="Fill-56" fill="#2AB9A3"></path>
                <path d="M131.386,116.006 C131.386,118.43 129.418,120.386 127.006,120.386 C124.57,120.386 122.614,118.43 122.614,116.006 C122.614,113.582 124.57,111.614 127.006,111.614 C129.418,111.614 131.386,113.582 131.386,116.006" id="Fill-58" fill="#2AB9A3"></path>
                <path d="M126.386,115.994 C126.386,118.43 124.418,120.386 122.006,120.386 C119.57,120.386 117.614,118.43 117.614,115.994 C117.614,113.57 119.57,111.614 122.006,111.614 C124.418,111.614 126.386,113.57 126.386,115.994" id="Fill-60" fill="#2AB9A3"></path>
                <path d="M126.386,115.994 C126.386,118.43 124.406,120.386 122.006,120.386 C119.57,120.386 117.614,118.43 117.614,115.994 C117.614,113.57 119.57,111.614 122.006,111.614 C124.406,111.614 126.386,113.57 126.386,115.994" id="Fill-62" fill="#2AB9A3"></path>
                <path d="M125.38,116.006 C125.38,118.43 123.412,120.386 121,120.386 C118.564,120.386 116.62,118.43 116.62,116.006 C116.62,113.582 118.564,111.614 121,111.614 C123.412,111.614 125.38,113.582 125.38,116.006" id="Fill-64" fill="#2AB9A3"></path>
                <path d="M118.386,118.006 C118.386,120.43 116.418,122.386 114.006,122.386 C111.57,122.386 109.614,120.43 109.614,118.006 C109.614,115.582 111.57,113.614 114.006,113.614 C116.418,113.614 118.386,115.582 118.386,118.006" id="Fill-66" fill="#2AB9A3"></path>
                <path d="M111.38,125.006 C111.38,127.43 109.412,129.386 107,129.386 C104.576,129.386 102.62,127.43 102.62,125.006 C102.62,122.582 104.576,120.614 107,120.614 C109.412,120.614 111.38,122.582 111.38,125.006" id="Fill-68" fill="#2AB9A3"></path>
                <path d="M125.38,134.006 C125.38,136.43 123.424,138.386 121,138.386 C118.576,138.386 116.62,136.43 116.62,134.006 C116.62,131.582 118.576,129.614 121,129.614 C123.424,129.614 125.38,131.582 125.38,134.006" id="Fill-70" fill="#2AB9A3"></path>
                <path d="M192.386,167.006 C192.386,169.43 190.406,171.386 188.006,171.386 C185.57,171.386 183.614,169.43 183.614,167.006 C183.614,164.582 185.57,162.614 188.006,162.614 C190.406,162.614 192.386,164.582 192.386,167.006" id="Fill-72" fill="#2AB9A3"></path>
                <path d="M197.38,194.006 C197.38,196.43 195.424,198.386 193,198.386 C190.576,198.386 188.62,196.43 188.62,194.006 C188.62,191.582 190.576,189.614 193,189.614 C195.424,189.614 197.38,191.582 197.38,194.006" id="Fill-74" fill="#2AB9A3"></path>
                <path d="M162.38,193.994 C162.38,196.43 160.412,198.386 158,198.386 C155.564,198.386 153.62,196.43 153.62,193.994 C153.62,191.57 155.564,189.614 158,189.614 C160.412,189.614 162.38,191.57 162.38,193.994" id="Fill-76" fill="#2AB9A3"></path>
                <path d="M125.38,185.994 C125.38,188.418 123.424,190.386 121,190.386 C118.576,190.386 116.62,188.418 116.62,185.994 C116.62,183.57 118.576,181.614 121,181.614 C123.424,181.614 125.38,183.57 125.38,185.994" id="Fill-78" fill="#2AB9A3"></path>
                <path d="M125.38,233.006 C125.38,235.43 123.412,237.386 121,237.386 C118.564,237.386 116.62,235.43 116.62,233.006 C116.62,230.582 118.564,228.614 121,228.614 C123.412,228.614 125.38,230.582 125.38,233.006" id="Fill-80" fill="#2AB9A3"></path>
                <path d="M156.386,246.994 C156.386,249.43 154.406,251.386 151.994,251.386 C149.57,251.386 147.614,249.43 147.614,246.994 C147.614,244.57 149.57,242.614 151.994,242.614 C154.406,242.614 156.386,244.57 156.386,246.994" id="Fill-82" fill="#2AB9A3"></path>
                <path d="M118.38,255.994 C118.38,258.418 116.412,260.386 114,260.386 C111.576,260.386 109.62,258.418 109.62,255.994 C109.62,253.582 111.576,251.614 114,251.614 C116.412,251.614 118.38,253.582 118.38,255.994" id="Fill-84" fill="#2AB9A3"></path>
                <path d="M110.38,266 C110.38,268.424 108.4,270.38 106,270.38 C103.576,270.38 101.62,268.424 101.62,266 C101.62,263.576 103.576,261.62 106,261.62 C108.4,261.62 110.38,263.576 110.38,266" id="Fill-86" fill="#2AB9A3"></path>
                <path d="M134.386,256.006 C134.386,258.43 132.406,260.386 130.006,260.386 C127.582,260.386 125.614,258.43 125.614,256.006 C125.614,253.582 127.582,251.614 130.006,251.614 C132.406,251.614 134.386,253.582 134.386,256.006" id="Fill-88" fill="#2AB9A3"></path>
                <path d="M137.38,265.994 C137.38,268.43 135.412,270.386 133,270.386 C130.564,270.386 128.62,268.43 128.62,265.994 C128.62,263.57 130.564,261.614 133,261.614 C135.412,261.614 137.38,263.57 137.38,265.994" id="Fill-90" fill="#2AB9A3"></path>
                <path d="M131.386,274.006 C131.386,276.43 129.406,278.386 126.994,278.386 C124.57,278.386 122.614,276.43 122.614,274.006 C122.614,271.582 124.57,269.614 126.994,269.614 C129.406,269.614 131.386,271.582 131.386,274.006" id="Fill-92" fill="#2AB9A3"></path>
                <path d="M91.38,321.006 C91.38,323.43 89.412,325.386 86.988,325.386 C84.564,325.386 82.62,323.43 82.62,321.006 C82.62,318.582 84.564,316.614 86.988,316.614 C89.412,316.614 91.38,318.582 91.38,321.006" id="Fill-94" fill="#2AB9A3"></path>
                <path d="M100.386,333.006 C100.386,335.43 98.418,337.386 95.994,337.386 C93.57,337.386 91.614,335.43 91.614,333.006 C91.614,330.582 93.57,328.614 95.994,328.614 C98.418,328.614 100.386,330.582 100.386,333.006" id="Fill-96" fill="#2AB9A3"></path>
                <path d="M125.386,335.994 C125.386,338.43 123.406,340.386 121.006,340.386 C118.57,340.386 116.614,338.43 116.614,335.994 C116.614,333.57 118.57,331.614 121.006,331.614 C123.406,331.614 125.386,333.57 125.386,335.994" id="Fill-98" fill="#2AB9A3"></path>
                <path d="M100.386,357.994 C100.386,360.43 98.418,362.386 95.994,362.386 C93.57,362.386 91.614,360.43 91.614,357.994 C91.614,355.57 93.57,353.614 95.994,353.614 C98.418,353.614 100.386,355.57 100.386,357.994" id="Fill-100" fill="#2AB9A3"></path>
                <path d="M131.386,357.994 C131.386,360.418 129.406,362.386 127.006,362.386 C124.582,362.386 122.614,360.418 122.614,357.994 C122.614,355.57 124.582,353.614 127.006,353.614 C129.406,353.614 131.386,355.57 131.386,357.994" id="Fill-102" fill="#2AB9A3"></path>
                <path d="M118.386,374.994 C118.386,377.43 116.406,379.386 114.006,379.386 C111.57,379.386 109.614,377.43 109.614,374.994 C109.614,372.582 111.57,370.614 114.006,370.614 C116.406,370.614 118.386,372.582 118.386,374.994" id="Fill-104" fill="#2AB9A3"></path>
                <path d="M159.386,366 C159.386,368.424 157.406,370.38 154.982,370.38 C152.57,370.38 150.614,368.424 150.614,366 C150.614,363.588 152.57,361.62 154.982,361.62 C157.406,361.62 159.386,363.588 159.386,366" id="Fill-106" fill="#2AB9A3"></path>
                <path d="M134.386,378.994 C134.386,381.43 132.406,383.386 129.994,383.386 C127.57,383.386 125.614,381.43 125.614,378.994 C125.614,376.582 127.57,374.614 129.994,374.614 C132.406,374.614 134.386,376.582 134.386,378.994" id="Fill-108" fill="#2AB9A3"></path>
                <path d="M126.38,379 C126.38,381.424 124.412,383.38 122,383.38 C119.564,383.38 117.62,381.424 117.62,379 C117.62,376.576 119.564,374.62 122,374.62 C124.412,374.62 126.38,376.576 126.38,379" id="Fill-110" fill="#2AB9A3"></path>
                <path d="M125.38,391.982 C125.38,394.418 123.412,396.386 121,396.386 C118.564,396.386 116.62,394.418 116.62,391.982 C116.62,389.57 118.564,387.614 121,387.614 C123.412,387.614 125.38,389.57 125.38,391.982" id="Fill-112" fill="#2AB9A3"></path>
                <path d="M16.386,403.994 C16.386,406.418 14.418,408.386 12.006,408.386 C9.57,408.386 7.614,406.418 7.614,403.994 C7.614,401.57 9.57,399.614 12.006,399.614 C14.418,399.614 16.386,401.57 16.386,403.994" id="Fill-114" fill="#2AB9A3"></path>
                <path d="M91.386,452 C91.386,454.436 89.406,456.38 86.994,456.38 C84.57,456.38 82.614,454.436 82.614,452 C82.614,449.588 84.57,447.62 86.994,447.62 C89.406,447.62 91.386,449.588 91.386,452" id="Fill-116" fill="#2AB9A3"></path>
                <path d="M172.38,479.006 C172.38,481.418 170.412,483.386 168,483.386 C165.588,483.386 163.62,481.418 163.62,479.006 C163.62,476.582 165.588,474.614 168,474.614 C170.412,474.614 172.38,476.582 172.38,479.006" id="Fill-118" fill="#2AB9A3"></path>
                <path d="M74.38,574 C74.38,576.436 72.412,578.38 70,578.38 C67.576,578.38 65.62,576.436 65.62,574 C65.62,571.588 67.576,569.62 70,569.62 C72.412,569.62 74.38,571.588 74.38,574" id="Fill-120" fill="#2AB9A3"></path>
                <path d="M162.386,626.006 C162.386,628.43 160.406,630.386 158.006,630.386 C155.57,630.386 153.614,628.43 153.614,626.006 C153.614,623.582 155.57,621.614 158.006,621.614 C160.406,621.614 162.386,623.582 162.386,626.006" id="Fill-122" fill="#2AB9A3"></path>
                <path d="M67.386,654.994 C67.386,657.43 65.418,659.386 62.994,659.386 C60.57,659.386 58.614,657.43 58.614,654.994 C58.614,652.582 60.57,650.614 62.994,650.614 C65.418,650.614 67.386,652.582 67.386,654.994" id="Fill-124" fill="#2AB9A3"></path>
                <path d="M70.386,661.006 C70.386,663.418 68.418,665.386 66.006,665.386 C63.57,665.386 61.614,663.418 61.614,661.006 C61.614,658.57 63.57,656.614 66.006,656.614 C68.418,656.614 70.386,658.57 70.386,661.006" id="Fill-126" fill="#2AB9A3"></path>
                <path d="M70.386,741.994 C70.386,744.418 68.418,746.386 66.006,746.386 C63.57,746.386 61.614,744.418 61.614,741.994 C61.614,739.57 63.57,737.614 66.006,737.614 C68.418,737.614 70.386,739.57 70.386,741.994" id="Fill-128" fill="#2AB9A3"></path>
                <path d="M159.38,742.006 C159.38,744.418 157.412,746.386 155,746.386 C152.564,746.386 150.62,744.418 150.62,742.006 C150.62,739.594 152.564,737.614 155,737.614 C157.412,737.614 159.38,739.594 159.38,742.006" id="Fill-130" fill="#2AB9A3"></path>
                <path d="M91.38,477 C91.38,479.412 89.412,481.38 87,481.38 C84.564,481.38 82.62,479.412 82.62,477 C82.62,474.588 84.564,472.62 87,472.62 C89.412,472.62 91.38,474.588 91.38,477" id="Fill-132" fill="#2AB9A3"></path>
                <path d="M70.38,509.994 C70.38,512.418 68.412,514.386 66,514.386 C63.564,514.386 61.62,512.418 61.62,509.994 C61.62,507.57 63.564,505.614 66,505.614 C68.412,505.614 70.38,507.57 70.38,509.994" id="Fill-134" fill="#2AB9A3"></path>
                <path d="M215.386,398 C215.386,400.424 213.418,402.38 210.994,402.38 C208.57,402.38 206.614,400.424 206.614,398 C206.614,395.576 208.57,393.62 210.994,393.62 C213.418,393.62 215.386,395.576 215.386,398" id="Fill-136" fill="#2AB9A3"></path>
                <path d="M171.38,403.994 C171.38,406.43 169.412,408.374 167,408.374 C164.564,408.374 162.62,406.43 162.62,403.994 C162.62,401.582 164.564,399.626 167,399.626 C169.412,399.626 171.38,401.582 171.38,403.994" id="Fill-138" fill="#2AB9A3"></path>
                <path d="M14.386,366 C14.386,368.436 12.406,370.38 9.994,370.38 C7.57,370.38 5.614,368.436 5.614,366 C5.614,363.588 7.57,361.62 9.994,361.62 C12.406,361.62 14.386,363.588 14.386,366" id="Fill-140" fill="#2AB9A3"></path>
                <path d="M125.38,266 C125.38,268.424 123.412,270.392 121,270.392 C118.564,270.392 116.62,268.424 116.62,266 C116.62,263.576 118.564,261.608 121,261.608 C123.412,261.608 125.38,263.576 125.38,266" id="Fill-142" fill="#2AB9A3"></path>
                <path d="M35.38,167.006 C35.38,169.43 33.412,171.386 31,171.386 C28.576,171.386 26.62,169.43 26.62,167.006 C26.62,164.582 28.576,162.614 31,162.614 C33.412,162.614 35.38,164.582 35.38,167.006" id="Fill-144" fill="#2AB9A3"></path>
                <path d="M27.38,209.006 C27.38,211.43 25.412,213.386 23,213.386 C20.576,213.386 18.62,211.43 18.62,209.006 C18.62,206.582 20.576,204.614 23,204.614 C25.412,204.614 27.38,206.582 27.38,209.006" id="Fill-146" fill="#2AB9A3"></path>
                <path d="M113.38,137.994 C113.38,140.43 111.412,142.386 109,142.386 C106.576,142.386 104.62,140.43 104.62,137.994 C104.62,135.57 106.576,133.614 109,133.614 C111.412,133.614 113.38,135.57 113.38,137.994" id="Fill-148" fill="#2AB9A3"></path>
                <path d="M88,52.9977525 C88,52.9977525 89.3799649,69.3524493 95.4460608,69.5456693 C101.512157,69.7250879 115.225558,76.501591 123.059734,66.7301772 C130.89391,56.9449621 124.626569,44.7168934 124.626569,44.7168934 C124.626569,44.7168934 119.825441,31.5227246 107.592627,35.8839771 C95.3454383,40.2452295 88,52.9977525 88,52.9977525" id="Fill-150" fill="#2AB9A3"></path>
                <path d="M125.386,9.994 C125.386,12.43 123.406,14.386 121.006,14.386 C118.57,14.386 116.614,12.43 116.614,9.994 C116.614,7.57 118.57,5.614 121.006,5.614 C123.406,5.614 125.386,7.57 125.386,9.994" id="Fill-152" fill="#007EAF"></path>
                <path d="M92.38,21.994 C92.38,24.418 90.412,26.386 88,26.386 C85.576,26.386 83.62,24.418 83.62,21.994 C83.62,19.582 85.576,17.614 88,17.614 C90.412,17.614 92.38,19.582 92.38,21.994" id="Fill-154" fill="#007EAF"></path>
                <path d="M103.38,31 C103.38,33.424 101.412,35.38 99,35.38 C96.576,35.38 94.62,33.424 94.62,31 C94.62,28.576 96.576,26.62 99,26.62 C101.412,26.62 103.38,28.576 103.38,31" id="Fill-156" fill="#007EAF"></path>
                <path d="M111.386,30.006 C111.386,32.43 109.406,34.386 106.994,34.386 C104.57,34.386 102.614,32.43 102.614,30.006 C102.614,27.582 104.57,25.614 106.994,25.614 C109.406,25.614 111.386,27.582 111.386,30.006" id="Fill-158" fill="#007EAF"></path>
                <path d="M125.386,31.006 C125.386,33.43 123.406,35.386 121.006,35.386 C118.57,35.386 116.614,33.43 116.614,31.006 C116.614,28.582 118.57,26.614 121.006,26.614 C123.406,26.614 125.386,28.582 125.386,31.006" id="Fill-160" fill="#007EAF"></path>
                <path d="M141.38,31.006 C141.38,33.43 139.412,35.386 137,35.386 C134.564,35.386 132.62,33.43 132.62,31.006 C132.62,28.582 134.564,26.614 137,26.614 C139.412,26.614 141.38,28.582 141.38,31.006" id="Fill-162" fill="#007EAF"></path>
                <path d="M83.386,37.994 C83.386,40.43 81.406,42.386 78.994,42.386 C76.57,42.386 74.614,40.43 74.614,37.994 C74.614,35.57 76.57,33.614 78.994,33.614 C81.406,33.614 83.386,35.57 83.386,37.994" id="Fill-164" fill="#007EAF"></path>
                <path d="M137.386,43.994 C137.386,46.43 135.406,48.386 132.994,48.386 C130.57,48.386 128.614,46.43 128.614,43.994 C128.614,41.582 130.57,39.614 132.994,39.614 C135.406,39.614 137.386,41.582 137.386,43.994" id="Fill-166" fill="#007EAF"></path>
                <path d="M138.38,50 C138.38,52.424 136.412,54.38 134,54.38 C131.564,54.38 129.62,52.424 129.62,50 C129.62,47.576 131.564,45.62 134,45.62 C136.412,45.62 138.38,47.576 138.38,50" id="Fill-168" fill="#007EAF"></path>
                <path d="M91.386,67.994 C91.386,70.418 89.418,72.386 87.006,72.386 C84.582,72.386 82.614,70.418 82.614,67.994 C82.614,65.582 84.582,63.614 87.006,63.614 C89.418,63.614 91.386,65.582 91.386,67.994" id="Fill-170" fill="#007EAF"></path>
                <path d="M104.386,72.994 C104.386,75.418 102.418,77.386 100.006,77.386 C97.57,77.386 95.614,75.418 95.614,72.994 C95.614,70.57 97.57,68.614 100.006,68.614 C102.418,68.614 104.386,70.57 104.386,72.994" id="Fill-172" fill="#007EAF"></path>
                <path d="M113.386,72.994 C113.386,75.418 111.406,77.386 108.994,77.386 C106.57,77.386 104.614,75.418 104.614,72.994 C104.614,70.57 106.57,68.614 108.994,68.614 C111.406,68.614 113.386,70.57 113.386,72.994" id="Fill-174" fill="#007EAF"></path>
                <path d="M125.386,78.006 C125.386,80.43 123.406,82.386 120.994,82.386 C118.57,82.386 116.614,80.43 116.614,78.006 C116.614,75.582 118.57,73.614 120.994,73.614 C123.406,73.614 125.386,75.582 125.386,78.006" id="Fill-176" fill="#007EAF"></path>
                <path d="M110.38,81.994 C110.38,84.418 108.412,86.386 106,86.386 C103.576,86.386 101.62,84.418 101.62,81.994 C101.62,79.582 103.576,77.614 106,77.614 C108.412,77.614 110.38,79.582 110.38,81.994" id="Fill-178" fill="#007EAF"></path>
                <path d="M74.386,138 C74.386,140.424 72.418,142.392 70.006,142.392 C67.57,142.392 65.614,140.424 65.614,138 C65.614,135.576 67.57,133.608 70.006,133.608 C72.418,133.608 74.386,135.576 74.386,138" id="Fill-180" fill="#007EAF"></path>
                <path d="M113.386,152.006 C113.386,154.43 111.406,156.386 108.994,156.386 C106.57,156.386 104.614,154.43 104.614,152.006 C104.614,149.582 106.57,147.614 108.994,147.614 C111.406,147.614 113.386,149.582 113.386,152.006" id="Fill-182" fill="#007EAF"></path>
                <path d="M125.38,151.006 C125.38,153.43 123.424,155.386 121,155.386 C118.576,155.386 116.62,153.43 116.62,151.006 C116.62,148.582 118.576,146.614 121,146.614 C123.424,146.614 125.38,148.582 125.38,151.006" id="Fill-184" fill="#007EAF"></path>
                <path d="M125.386,159 C125.386,161.424 123.406,163.392 121.006,163.392 C118.57,163.392 116.614,161.424 116.614,159 C116.614,156.576 118.57,154.608 121.006,154.608 C123.406,154.608 125.386,156.576 125.386,159" id="Fill-186" fill="#007EAF"></path>
                <path d="M113.386,161.994 C113.386,164.43 111.406,166.386 109.006,166.386 C106.57,166.386 104.614,164.43 104.614,161.994 C104.614,159.57 106.57,157.614 109.006,157.614 C111.406,157.614 113.386,159.57 113.386,161.994" id="Fill-188" fill="#007EAF"></path>
                <path d="M125.386,168.006 C125.386,170.43 123.406,172.386 120.994,172.386 C118.57,172.386 116.614,170.43 116.614,168.006 C116.614,165.582 118.57,163.614 120.994,163.614 C123.406,163.614 125.386,165.582 125.386,168.006" id="Fill-190" fill="#007EAF"></path>
                <path d="M166.386,160.994 C166.386,163.43 164.406,165.386 161.994,165.386 C159.57,165.386 157.614,163.43 157.614,160.994 C157.614,158.57 159.57,156.614 161.994,156.614 C164.406,156.614 166.386,158.57 166.386,160.994" id="Fill-192" fill="#007EAF"></path>
                <path d="M74.386,202.006 C74.386,204.43 72.406,206.386 69.994,206.386 C67.57,206.386 65.614,204.43 65.614,202.006 C65.614,199.582 67.57,197.614 69.994,197.614 C72.406,197.614 74.386,199.582 74.386,202.006" id="Fill-194" fill="#007EAF"></path>
                <path d="M125.38,209 C125.38,211.424 123.412,213.38 121,213.38 C118.564,213.38 116.62,211.424 116.62,209 C116.62,206.576 118.564,204.62 121,204.62 C123.412,204.62 125.38,206.576 125.38,209" id="Fill-196" fill="#007EAF"></path>
                <path d="M125.386,220.006 C125.386,222.43 123.406,224.386 120.982,224.386 C118.57,224.386 116.614,222.43 116.614,220.006 C116.614,217.582 118.57,215.614 120.982,215.614 C123.406,215.614 125.386,217.582 125.386,220.006" id="Fill-198" fill="#007EAF"></path>
                <path d="M162.386,235.994 C162.386,238.43 160.406,240.386 157.994,240.386 C155.57,240.386 153.614,238.43 153.614,235.994 C153.614,233.57 155.57,231.614 157.994,231.614 C160.406,231.614 162.386,233.57 162.386,235.994" id="Fill-200" fill="#007EAF"></path>
                <path d="M147.38,240.994 C147.38,243.418 145.412,245.386 143,245.386 C140.564,245.386 138.62,243.418 138.62,240.994 C138.62,238.582 140.564,236.614 143,236.614 C145.412,236.614 147.38,238.582 147.38,240.994" id="Fill-202" fill="#007EAF"></path>
                <path d="M146.386,250.006 C146.386,252.43 144.406,254.386 141.994,254.386 C139.57,254.386 137.614,252.43 137.614,250.006 C137.614,247.582 139.57,245.614 141.994,245.614 C144.406,245.614 146.386,247.582 146.386,250.006" id="Fill-204" fill="#007EAF"></path>
                <path d="M163.386,250.006 C163.386,252.43 161.406,254.386 159.006,254.386 C156.57,254.386 154.614,252.43 154.614,250.006 C154.614,247.582 156.57,245.614 159.006,245.614 C161.406,245.614 163.386,247.582 163.386,250.006" id="Fill-206" fill="#007EAF"></path>
                <path d="M150.38,261.994 C150.38,264.43 148.412,266.386 146,266.386 C143.564,266.386 141.62,264.43 141.62,261.994 C141.62,259.582 143.564,257.614 146,257.614 C148.412,257.614 150.38,259.582 150.38,261.994" id="Fill-208" fill="#007EAF"></path>
                <path d="M125.38,246.994 C125.38,249.43 123.424,251.386 121,251.386 C118.576,251.386 116.62,249.43 116.62,246.994 C116.62,244.57 118.576,242.614 121,242.614 C123.424,242.614 125.38,244.57 125.38,246.994" id="Fill-210" fill="#007EAF"></path>
                <path d="M125.386,262.006 C125.386,264.43 123.406,266.386 120.994,266.386 C118.57,266.386 116.614,264.43 116.614,262.006 C116.614,259.582 118.57,257.614 120.994,257.614 C123.406,257.614 125.386,259.582 125.386,262.006" id="Fill-212" fill="#007EAF"></path>
                <path d="M125.38,267.994 C125.38,270.43 123.412,272.386 121,272.386 C118.588,272.386 116.62,270.43 116.62,267.994 C116.62,265.57 118.588,263.614 121,263.614 C123.412,263.614 125.38,265.57 125.38,267.994" id="Fill-214" fill="#007EAF"></path>
                <path d="M113.38,274 C113.38,276.424 111.412,278.38 109,278.38 C106.564,278.38 104.62,276.424 104.62,274 C104.62,271.576 106.564,269.62 109,269.62 C111.412,269.62 113.38,271.576 113.38,274" id="Fill-216" fill="#007EAF"></path>
                <path d="M129.38,294 C129.38,296.424 127.412,298.392 125,298.392 C122.564,298.392 120.62,296.424 120.62,294 C120.62,291.576 122.564,289.608 125,289.608 C127.412,289.608 129.38,291.576 129.38,294" id="Fill-218" fill="#007EAF"></path>
                <path d="M146.38,308.006 C146.38,310.43 144.412,312.386 142,312.386 C139.564,312.386 137.62,310.43 137.62,308.006 C137.62,305.582 139.564,303.614 142,303.614 C144.412,303.614 146.38,305.582 146.38,308.006" id="Fill-220" fill="#007EAF"></path>
                <path d="M152.38,319.006 C152.38,321.43 150.412,323.386 148,323.386 C145.588,323.386 143.62,321.43 143.62,319.006 C143.62,316.582 145.588,314.614 148,314.614 C150.412,314.614 152.38,316.582 152.38,319.006" id="Fill-222" fill="#007EAF"></path>
                <path d="M137.38,318.994 C137.38,321.418 135.412,323.386 133,323.386 C130.564,323.386 128.62,321.418 128.62,318.994 C128.62,316.57 130.564,314.614 133,314.614 C135.412,314.614 137.38,316.57 137.38,318.994" id="Fill-224" fill="#007EAF"></path>
                <path d="M125.386,318.994 C125.386,321.418 123.406,323.386 121.006,323.386 C118.57,323.386 116.614,321.418 116.614,318.994 C116.614,316.582 118.57,314.614 121.006,314.614 C123.406,314.614 125.386,316.582 125.386,318.994" id="Fill-226" fill="#007EAF"></path>
                <path d="M111.38,329.994 C111.38,332.418 109.424,334.386 107,334.386 C104.576,334.386 102.62,332.418 102.62,329.994 C102.62,327.57 104.576,325.614 107,325.614 C109.424,325.614 111.38,327.57 111.38,329.994" id="Fill-228" fill="#007EAF"></path>
                <path d="M113.38,342.006 C113.38,344.43 111.412,346.386 109,346.386 C106.564,346.386 104.62,344.43 104.62,342.006 C104.62,339.582 106.564,337.614 109,337.614 C111.412,337.614 113.38,339.582 113.38,342.006" id="Fill-230" fill="#007EAF"></path>
                <path d="M111.38,352.994 C111.38,355.43 109.412,357.386 107,357.386 C104.576,357.386 102.62,355.43 102.62,352.994 C102.62,350.57 104.576,348.614 107,348.614 C109.412,348.614 111.38,350.57 111.38,352.994" id="Fill-232" fill="#007EAF"></path>
                <path d="M138.38,368 C138.38,370.424 136.412,372.38 134,372.38 C131.564,372.38 129.62,370.424 129.62,368 C129.62,365.576 131.564,363.62 134,363.62 C136.412,363.62 138.38,365.576 138.38,368" id="Fill-234" fill="#007EAF"></path>
                <path d="M110.386,368 C110.386,370.424 108.406,372.38 105.994,372.38 C103.57,372.38 101.614,370.424 101.614,368 C101.614,365.576 103.57,363.62 105.994,363.62 C108.406,363.62 110.386,365.576 110.386,368" id="Fill-236" fill="#007EAF"></path>
                <path d="M125.38,368.994 C125.38,371.43 123.412,373.386 121,373.386 C118.564,373.386 116.62,371.43 116.62,368.994 C116.62,366.582 118.564,364.614 121,364.614 C123.412,364.614 125.38,366.582 125.38,368.994" id="Fill-238" fill="#007EAF"></path>
                <path d="M146.38,382.006 C146.38,384.418 144.4,386.386 142,386.386 C139.564,386.386 137.62,384.418 137.62,382.006 C137.62,379.594 139.564,377.614 142,377.614 C144.4,377.614 146.38,379.594 146.38,382.006" id="Fill-240" fill="#007EAF"></path>
                <path d="M138.38,391.982 C138.38,394.418 136.412,396.386 134,396.386 C131.588,396.386 129.62,394.418 129.62,391.982 C129.62,389.57 131.588,387.614 134,387.614 C136.412,387.614 138.38,389.57 138.38,391.982" id="Fill-242" fill="#007EAF"></path>
                <path d="M118.38,392.006 C118.38,394.43 116.412,396.386 114,396.386 C111.576,396.386 109.62,394.43 109.62,392.006 C109.62,389.594 111.576,387.614 114,387.614 C116.412,387.614 118.38,389.594 118.38,392.006" id="Fill-244" fill="#007EAF"></path>
                <path d="M104.386,382 C104.386,384.424 102.406,386.38 99.994,386.38 C97.57,386.38 95.614,384.424 95.614,382 C95.614,379.576 97.57,377.62 99.994,377.62 C102.406,377.62 104.386,379.576 104.386,382" id="Fill-246" fill="#007EAF"></path>
                <path d="M74.38,420.006 C74.38,422.418 72.412,424.386 69.988,424.386 C67.564,424.386 65.62,422.418 65.62,420.006 C65.62,417.57 67.564,415.614 69.988,415.614 C72.412,415.614 74.38,417.57 74.38,420.006" id="Fill-248" fill="#007EAF"></path>
                <path d="M162.38,436.994 C162.38,439.418 160.412,441.374 158,441.374 C155.576,441.374 153.62,439.418 153.62,436.994 C153.62,434.582 155.576,432.626 158,432.626 C160.412,432.626 162.38,434.582 162.38,436.994" id="Fill-250" fill="#007EAF"></path>
                <path d="M147.38,524 C147.38,526.436 145.412,528.38 143,528.38 C140.564,528.38 138.62,526.436 138.62,524 C138.62,521.588 140.564,519.62 143,519.62 C145.412,519.62 147.38,521.588 147.38,524" id="Fill-252" fill="#007EAF"></path>
                <path d="M82.386,523.994 C82.386,526.418 80.418,528.386 77.994,528.386 C75.57,528.386 73.614,526.418 73.614,523.994 C73.614,521.57 75.57,519.614 77.994,519.614 C80.418,519.614 82.386,521.57 82.386,523.994" id="Fill-254" fill="#007EAF"></path>
                <path d="M171.386,592.988 C171.386,595.424 169.406,597.38 167.006,597.38 C164.57,597.38 162.614,595.424 162.614,592.988 C162.614,590.576 164.57,588.62 167.006,588.62 C169.406,588.62 171.386,590.576 171.386,592.988" id="Fill-256" fill="#007EAF"></path>
                <path d="M66.386,610.994 C66.386,613.43 64.418,615.386 62.006,615.386 C59.582,615.386 57.614,613.43 57.614,610.994 C57.614,608.582 59.582,606.614 62.006,606.614 C64.418,606.614 66.386,608.582 66.386,610.994" id="Fill-258" fill="#007EAF"></path>
                <path d="M74.386,713.994 C74.386,716.418 72.418,718.386 69.994,718.386 C67.57,718.386 65.614,716.418 65.614,713.994 C65.614,711.57 67.57,709.614 69.994,709.614 C72.418,709.614 74.386,711.57 74.386,713.994" id="Fill-260" fill="#007EAF"></path>
                <path d="M152.38,718.994 C152.38,721.43 150.412,723.386 148,723.386 C145.588,723.386 143.62,721.43 143.62,718.994 C143.62,716.582 145.588,714.614 148,714.614 C150.412,714.614 152.38,716.582 152.38,718.994" id="Fill-262" fill="#007EAF"></path>
                <path d="M98.386,342 C98.386,344.424 96.418,346.392 93.994,346.392 C91.57,346.392 89.614,344.424 89.614,342 C89.614,339.576 91.57,337.608 93.994,337.608 C96.418,337.608 98.386,339.576 98.386,342" id="Fill-264" fill="#007EAF"></path>
                <path d="M91.38,335.994 C91.38,338.43 89.412,340.386 87,340.386 C84.564,340.386 82.62,338.43 82.62,335.994 C82.62,333.57 84.564,331.614 87,331.614 C89.412,331.614 91.38,333.57 91.38,335.994" id="Fill-266" fill="#007EAF"></path>
                <path d="M74.386,346.994 C74.386,349.43 72.418,351.386 69.994,351.386 C67.57,351.386 65.614,349.43 65.614,346.994 C65.614,344.57 67.57,342.614 69.994,342.614 C72.418,342.614 74.386,344.57 74.386,346.994" id="Fill-268" fill="#007EAF"></path>
                <path d="M20.386,340 C20.386,342.424 18.418,344.38 15.994,344.38 C13.57,344.38 11.614,342.424 11.614,340 C11.614,337.576 13.57,335.62 15.994,335.62 C18.418,335.62 20.386,337.576 20.386,340" id="Fill-270" fill="#007EAF"></path>
                <path d="M116.606206,313.324379 C116.606206,313.324379 128.686406,314.854337 129.587123,311.794421 C130.48784,308.734504 134.289394,303.56914 123.81194,302.039182 C113.347731,300.495187 115.520047,300.888204 113.546418,293.238413 C111.533051,285.588621 102.525884,278.528355 90.2469958,283.862155 C77.9681075,289.224027 81.5577286,316.075497 87.1872081,321.732131 C90.790075,325.367537 100.896646,330.715373 111.533051,317.914254 C111.533051,317.914254 114.963722,313.12787 116.606206,313.324379" id="Fill-272" fill="#007EAF"></path>
                <path d="M144.287123,336 C137.131766,336 130.810304,337.977109 126.829127,341.021614 C124.851989,340.997355 118.799525,341.021614 116.795487,341.288463 C112.94881,341.785772 111.30792,342.440766 115.329446,347.074235 C118.974374,351.246784 121.35501,356.025808 133.715486,359.191608 C136.849318,360.186227 140.440446,360.804832 144.287123,360.950386 C161.69132,361.617508 165,355.455721 165,348.566164 C165,341.664477 156.324802,336 144.287123,336" id="Fill-274" fill="#007EAF"></path>
            </g>
        </g>
    </g>
</svg>