<?xml version="1.0" encoding="UTF-8"?>
<svg width="116px" height="116px" viewBox="0 0 116 116" version="1.1" xmlns="http://www.w3.org/2000/svg" xmlns:xlink="http://www.w3.org/1999/xlink">
    <!-- Generator: Sketch 63.1 (92452) - https://sketch.com -->
    <title>Group 54</title>
    <desc>Created with Sketch.</desc>
    <g id="Page-1" stroke="none" stroke-width="1" fill="none" fill-rule="evenodd">
        <g id="Product-Detail-Page_Delta-8-Temple-Gummies-10-pc-(25mg/each)_Desktop.pdf" transform="translate(-1018.000000, -1905.000000)">
            <g id="Group-54" transform="translate(1019.000000, 1906.000000)">
                <g id="Group-50">
                    <path d="M13.4405771,-7.10542736e-14 L99.719767,-7.10542736e-14 C107.111852,-7.10542736e-14 113.16,6.04951512 113.16,13.4410728 L113.16,99.7206477 C113.16,107.112205 107.111852,113.16 99.719767,113.16 L13.4405771,113.16 C6.04831992,113.16 1.74793513e-12,107.112205 1.74793513e-12,99.7206477 L1.74793513e-12,13.4410728 C1.74793513e-12,6.04951512 6.04831992,-7.10542736e-14 13.4405771,-7.10542736e-14" id="Fill-3" fill="#FFFFFF"></path>
                    <rect id="Rectangle-Copy-7" stroke="#000000" stroke-width="2" x="0" y="0" width="114" height="114" rx="14"></rect>
                    <path d="M60.1829245,51.4199855 L67,53.0210861 C57.9418954,42.8165817 46.4793191,39.4519256 40.0915827,39.0399269 C43.7158266,38.4185792 52.1801129,39.6110308 66.2106035,48.5678156 C65.7301238,45.6000851 63.4612784,33.9703331 53.0797382,28.8153249 C40.4855035,24.2716157 21.2512849,28.2274731 15.48,29.3010145 C18.4271494,39.7785099 28.4517421,51.4484569 39.9481817,53.2991015 C45.9409607,53.8132625 53.9641594,50.8874018 60.1829245,51.4199855" id="Fill-5" fill="#D9341A"></path>
                    <path d="M83.3414395,46.944812 C80.3494723,51.4204738 71.7467175,50.6476618 69.0287536,50.3684523 C72.1928643,44.669587 76.9814719,39.0106087 78.6852499,33.6009246 L68.2237202,49.3363743 C65.3334432,44.8906278 62.9195313,39.8033643 65.0551956,35.2279848 C68.1476648,27.2023736 78.1790058,26.9414457 85.7438073,23.92 C84.9433576,31.5949373 88.7833092,40.4681488 83.3414395,46.944812" id="Fill-6" fill="#D9341A"></path>
                    <text id="100%-NUTURAL" font-family="Roboto-Regular, Roboto" font-size="16" font-weight="normal" fill="#4A4A4A">
                        <tspan x="41.1640625" y="87">100%</tspan>
                        <tspan x="25.1992188" y="106">NUTURAL</tspan>
                    </text>
                </g>
            </g>
        </g>
    </g>
</svg>