<?xml version="1.0" encoding="UTF-8"?>
<svg width="72px" height="31px" viewBox="0 0 72 31" version="1.1" xmlns="http://www.w3.org/2000/svg" xmlns:xlink="http://www.w3.org/1999/xlink">
    <!-- Generator: Sketch 63.1 (92452) - https://sketch.com -->
    <title>Group 9</title>
    <desc>Created with Sketch.</desc>
    <g id="Page-2" stroke="none" stroke-width="1" fill="none" fill-rule="evenodd">
        <g id="Product-Page_New_03" transform="translate(-352.000000, -3689.000000)" fill="#D9341A">
            <g id="Group-9" transform="translate(352.480000, 3689.920000)">
                <path d="M44.7029245,27.4999855 L51.52,29.1010861 C42.4618954,18.8965817 30.9993191,15.5319256 24.6115827,15.1199269 C28.2358266,14.4985792 36.7001129,15.6910308 50.7306035,24.6478156 C50.2501238,21.6800851 47.9812784,10.0503331 37.5997382,4.89532493 C25.0055035,0.351615651 5.77128493,4.30747312 2.03570494e-12,5.38101445 C2.94714939,15.8585099 12.9717421,27.5284569 24.4681817,29.3791015 C30.4609607,29.8932625 38.4841594,26.9674018 44.7029245,27.4999855" id="Fill-5"></path>
                <path d="M67.8614395,23.024812 C64.8694723,27.5004738 56.2667175,26.7276618 53.5487536,26.4484523 C56.7128643,20.749587 61.5014719,15.0906087 63.2052499,9.68092464 L52.7437202,25.4163743 C49.8534432,20.9706278 47.4395313,15.8833643 49.5751956,11.3079848 C52.6676648,3.28237359 62.6990058,3.02144566 70.2638073,1.45661261e-13 C69.4633576,7.67493734 73.3033092,16.5481488 67.8614395,23.024812" id="Fill-6"></path>
            </g>
        </g>
    </g>
</svg>