<?xml version="1.0" encoding="UTF-8"?>
<svg width="116px" height="116px" viewBox="0 0 116 116" version="1.1" xmlns="http://www.w3.org/2000/svg" xmlns:xlink="http://www.w3.org/1999/xlink">
    <!-- Generator: Sketch 63.1 (92452) - https://sketch.com -->
    <title>Group 49</title>
    <desc>Created with Sketch.</desc>
    <g id="Page-1" stroke="none" stroke-width="1" fill="none" fill-rule="evenodd">
        <g id="Product-Detail-Page_Delta-8-Temple-Gummies-10-pc-(25mg/each)_Desktop.pdf" transform="translate(-735.000000, -1905.000000)">
            <g id="Group-49" transform="translate(736.000000, 1906.000000)">
                <path d="M99.5785987,0 C106.960404,0 113,6.03960541 113,13.4214217 L113,99.5787501 C113,106.960395 106.960404,113 99.5785987,113 L13.4214013,113 C6.03959622,113 0,106.960395 0,99.5787501 L0,13.4214217 C0,6.03960541 6.03959622,0 13.4214013,0 L99.5785987,0 Z" id="Fill-48" fill="#FFFFFF"></path>
                <rect id="Rectangle" stroke="#000000" stroke-width="2" x="0" y="0" width="114" height="114" rx="14"></rect>
                <path d="M73.065192,62.6026563 C67.1024752,71.6609648 49.9583965,70.0963463 44.5427306,69.531217 C53.1050564,58.7958112 61.2559766,50.4120339 63.7861298,35.5928593 C59.5455401,48.6528851 51.6994349,58.5166653 42.9376813,67.4445462 C37.1786903,58.4464088 32.3683562,48.1484397 36.6249345,38.886541 C42.7863913,22.6425772 62.7774726,22.1152258 77.851801,16 C76.2565512,31.5343897 83.9085582,49.4928868 73.065192,62.6026563" id="Fill-50" fill="#D9341A"></path>
                <text id="NON-GMO" font-family="Roboto-Regular, Roboto" font-size="20" font-weight="normal" fill="#4A4A4A">
                    <tspan x="11" y="101">NON GMO</tspan>
                </text>
            </g>
        </g>
    </g>
</svg>