<?xml version="1.0" encoding="UTF-8"?>
<svg width="543px" height="120px" viewBox="0 0 543 120" version="1.1" xmlns="http://www.w3.org/2000/svg" xmlns:xlink="http://www.w3.org/1999/xlink">
    <!-- Generator: Sketch 63.1 (92452) - https://sketch.com -->
    <title>Group 10</title>
    <desc>Created with Sketch.</desc>
    <defs>
        <polygon id="path-1" points="0 0 118 0 118 118 0 118"></polygon>
    </defs>
    <g id="Page-2" stroke="none" stroke-width="1" fill="none" fill-rule="evenodd">
        <g id="Product-Page_Mobile_v1" transform="translate(-49.000000, -4524.000000)">
            <g id="Group-10" transform="translate(49.000000, 4524.000000)">
                <g id="Group-3">
                    <mask id="mask-2" fill="white">
                        <use xlink:href="#path-1"></use>
                    </mask>
                    <g id="Clip-2"></g>
                    <path d="M118,59.0005159 C118,91.5845846 91.5845846,118 58.9994841,118 C26.4154154,118 0,91.5845846 0,59.0005159 C0,26.4154154 26.4154154,0 58.9994841,0 C91.5845846,0 118,26.4154154 118,59.0005159" id="Fill-1" fill="#D9341A" mask="url(#mask-2)"></path>
                </g>
                <polygon id="Fill-4" fill="#FFFFFF" points="31 69.754 88 69.754 88 69.246 31 69.246"></polygon>
                <polygon id="Fill-9" fill="#FFFFFF" points="59.5 17 57.9663852 22.0496508 53 22.0496508 57.0178429 25.0234202 55.4821571 30 59.5 26.8435531 63.5168074 29.9457503 61.9831926 25.0322773 66 22.0496508 61.0336148 22.0496508"></polygon>
                <path d="M98.0273331,69.665534 C98.7574792,70.4751447 100.181778,70.1405607 102.68587,67.862498 C105.189963,65.5854679 104.802266,63.6388912 104.802266,63.6388912 C104.802266,63.6388912 102.912113,63.0595652 100.408021,65.3365952 C99.4876252,66.1730553 98.8253519,66.8701053 98.389321,67.45666 C98.7235428,65.8508632 98.9610974,64.2099559 99.0978712,62.5411665 C99.1431197,62.5897018 99.19351,62.6372045 99.2500706,62.6805765 C100.108763,63.3518098 101.453878,62.7724838 103.526053,60.0927138 C105.598228,57.4139764 104.879394,55.5644703 104.879394,55.5644703 C104.879394,55.5644703 102.917255,55.3228263 100.846108,58.0025964 C100.076884,58.9970544 99.5411007,59.8045998 99.2140775,60.4624084 C99.226418,60.0514071 99.234645,59.6414384 99.234645,59.2283717 C99.234645,57.9623224 99.168829,56.705567 99.0515943,55.4591383 C99.1112401,55.506641 99.1739709,55.5510456 99.2459571,55.5892543 C100.207487,56.0993917 101.432282,55.2949443 103.00878,52.2950476 C104.586307,49.2941181 103.558961,47.5984794 103.558961,47.5984794 C103.558961,47.5984794 101.58551,47.7027788 100.009011,50.7037082 C99.4135822,51.8344782 99.0217715,52.7339309 98.8171249,53.4444056 C98.5734001,51.7652895 98.2206676,50.1130228 97.7733246,48.4938015 C97.848396,48.5382061 97.9265524,48.5774475 98.0149926,48.6053295 C99.0515943,48.9409461 100.118019,47.9351288 101.152564,44.70598 C102.187109,41.4757986 100.882101,39.9846279 100.882101,39.9846279 C100.882101,39.9846279 98.9559555,40.4317726 97.9214106,43.6609213 C97.5182877,44.9207747 97.2889601,45.8945794 97.2169739,46.6391321 C96.6801623,45.0044207 96.0394849,43.4089507 95.3052254,41.8609833 C95.3957223,41.899192 95.4913612,41.9291393 95.5962554,41.942564 C96.6739921,42.0923006 97.5501673,40.9160933 98.0108791,37.5547632 C98.471591,34.1934331 96.9280006,32.9532004 96.9280006,32.9532004 C96.9280006,32.9532004 95.1088058,33.7297657 94.6491223,37.0900632 C94.4640149,38.4376932 94.4084827,39.4559026 94.475327,40.2087166 C93.6587975,38.6710759 92.7445724,37.1891992 91.7398504,35.7692825 C91.8416595,35.7940665 91.9486104,35.8074911 92.0617316,35.8033605 C93.1487237,35.7630865 93.8089402,34.4505671 93.6803934,31.061355 C93.5528749,27.6711103 91.8190352,26.7179589 91.8190352,26.7179589 C91.8190352,26.7179589 90.1623236,27.7991609 90.2898421,31.1894057 C90.3412608,32.5680157 90.4656942,33.5893231 90.6662272,34.3204511 C89.5956892,32.9408084 88.4367109,31.6303544 87.1954627,30.3963177 C87.3003569,30.4025137 87.4083362,30.398383 87.5194007,30.373599 C88.5827401,30.144347 89.0064305,28.7368223 88.2937668,25.4209295 C87.5821316,22.1040041 85.7084329,21.4678814 85.7084329,21.4678814 C85.7084329,21.4678814 84.2635665,22.8227401 84.9762301,26.1396655 C85.2652034,27.4852302 85.5634321,28.4693616 85.8873701,29.1550523 C83.8583869,27.3096769 81.6340124,25.6625735 79.2358427,24.2498855 C79.5340713,23.2998321 78.6177895,22.1556374 75.7506809,20.7687661 C72.7066919,19.297216 71.0561505,20.3908101 71.0561505,20.3908101 C71.0561505,20.3908101 71.233031,22.3673341 74.2780484,23.8388842 C77.0834545,25.1958082 78.4676468,25.3827209 79.0383948,24.6330048 C81.2915637,25.9620469 83.3915048,27.4976222 85.3155938,29.2128816 C84.6337814,29.0652103 83.7534926,28.9629763 82.6356494,28.908245 C79.2605237,28.7399203 78.1653047,30.392187 78.1653047,30.392187 C78.1653047,30.392187 79.093927,32.1435897 82.4680243,32.3108817 C85.5901698,32.467847 86.9455676,31.9236317 87.1738668,30.9766763 C88.206355,32.0238004 89.1791974,33.1246231 90.089309,34.2750138 C89.4434897,34.0106511 88.5950806,33.7576477 87.5060318,33.5087751 C84.2111194,32.7549284 82.8464662,34.1903351 82.8464662,34.1903351 C82.8464662,34.1903351 83.4583491,36.0780498 86.7522332,36.8308638 C89.8003357,37.5289465 91.2287482,37.2305058 91.6174738,36.3382818 C92.4566275,37.5495998 93.232022,38.8073879 93.9354303,40.1054499 C93.3441149,39.7285266 92.5460961,39.3278519 91.5064093,38.8889685 C88.3924908,37.5723185 86.8005668,38.7474932 86.8005668,38.7474932 C86.8005668,38.7474932 87.0761712,40.7126579 90.1890614,42.0282753 C93.0849645,43.2540507 94.5442281,43.2024173 95.0738411,42.379382 C95.7001213,43.7311427 96.2554436,45.118014 96.7305527,46.5368981 C96.2101951,46.0546427 95.4841626,45.51146 94.5154336,44.8846314 C91.6771195,43.0444193 89.90523,43.9242513 89.90523,43.9242513 C89.90523,43.9242513 89.8373572,45.9080041 92.6756713,47.7471834 C95.3381334,49.4727695 96.7871133,49.6669108 97.4442447,48.9275215 C97.831942,50.3815162 98.1425111,51.8613275 98.3656684,53.3628249 C97.9358078,52.7907276 97.3064425,52.1174289 96.4426078,51.3140142 C93.9652532,49.0070368 92.0689303,49.5646768 92.0689303,49.5646768 C92.0689303,49.5646768 91.6586088,51.5060902 94.1359634,53.8120349 C96.4786009,55.9940597 97.8751337,56.4257143 98.6453863,55.788559 C98.7441103,56.9265577 98.7996425,58.0728177 98.7996425,59.2283717 C98.7996425,59.6083931 98.7934723,59.9873818 98.7831885,60.3653378 C98.4602789,59.7209538 97.9512334,58.9381924 97.228286,57.9829757 C95.1879907,55.277389 93.223795,55.4963143 93.223795,55.4963143 C93.223795,55.4963143 92.4833653,57.337559 94.524689,60.0410804 C96.4693455,62.6165512 97.774353,63.2753925 98.6433296,62.7600918 C98.5075841,64.3132225 98.2864836,65.8436346 97.9800279,67.342034 C97.7753813,66.6439513 97.4061948,65.7723806 96.8488158,64.6860152 C95.3062538,61.6664978 93.3348595,61.5394798 93.3348595,61.5394798 C93.3348595,61.5394798 92.2869457,63.2227265 93.8305361,66.2412113 C95.3113956,69.138874 96.4888846,70.0052814 97.4370461,69.6293907 C97.0328948,71.1422474 96.5444169,72.6199934 95.9726405,74.0574655 C95.8955124,73.3325334 95.6805821,72.4010681 95.3165375,71.2217627 C94.3200424,67.9791893 92.3990385,67.509326 92.3990385,67.509326 C92.3990385,67.509326 91.0775771,68.9860393 92.0751005,72.2265474 C93.0356025,75.3503642 94.0495799,76.4047169 95.0522452,76.1888895 C94.3910003,77.6088062 93.6495421,78.9822529 92.8330127,80.3061316 C92.8823746,79.5770689 92.8319843,78.6197869 92.6766997,77.3898809 C92.2560945,74.0233875 90.4451267,73.2261688 90.4451267,73.2261688 C90.4451267,73.2261688 88.8881674,74.4488461 89.309801,77.8153396 C89.7170374,81.0661743 90.536652,82.2795577 91.5639983,82.2372183 C90.6662272,83.520823 89.6954415,84.7486637 88.6578115,85.9155771 C88.8336635,85.2061351 88.9498699,84.2509184 89.010544,83.0055224 C89.1791974,79.6173429 87.5337979,78.5154876 87.5337979,78.5154876 C87.5337979,78.5154876 85.7886461,79.4490183 85.6220494,82.8371977 C85.4595662,86.1221104 86.0621938,87.4573485 87.0895401,87.5864318 C85.9778671,88.7017118 84.8014064,89.7509012 83.5653001,90.7298692 C83.8666139,90.0586359 84.1504453,89.1282032 84.4301632,87.8951992 C85.1808767,84.5875677 83.7504075,83.217219 83.7504075,83.217219 C83.7504075,83.217219 81.871567,83.8316557 81.1208535,87.1382545 C80.3896791,90.3632725 80.7588656,91.7821566 81.7605025,92.0764666 C80.4647504,92.989344 79.1134661,93.825804 77.7117914,94.5827487 C78.1293115,93.9724426 78.5756261,93.0967413 79.0723311,91.9133053 C80.3835088,88.7863905 79.2132184,87.1867898 79.2132184,87.1867898 C79.2132184,87.1867898 77.2551931,87.4635445 75.9440154,90.5904592 C74.6575186,93.658512 74.7860655,95.1197353 75.7393688,95.5751414 C74.2975875,96.2505054 72.8095293,96.8422234 71.2813646,97.3440994 C71.8027505,96.8164067 72.3992078,96.0274494 73.1005594,94.9359207 C74.933123,92.0847279 74.0569478,90.3054432 74.0569478,90.3054432 C74.0569478,90.3054432 72.0814401,90.2372872 70.2499048,93.0874473 C68.4461356,95.8932027 68.3247874,97.3554587 69.193764,97.9657647 C65.911192,98.8466294 62.4620233,99.3185581 58.903847,99.3185581 C55.3960609,99.3185581 51.9941975,98.8600541 48.7517322,98.0039734 C48.756874,98.0008754 48.7620159,97.9988101 48.7671578,97.9967447 C49.6813829,97.4029614 49.5826589,95.9376074 47.7500952,93.0874473 C45.9185599,90.2372872 43.9430522,90.3054432 43.9430522,90.3054432 C43.9430522,90.3054432 43.066877,92.0847279 44.8994406,94.9359207 C45.6460406,96.0987034 46.2743776,96.9155427 46.8194161,97.4401374 C45.2192652,96.9300001 43.6633343,96.3207267 42.1567654,95.619546 C42.1742477,95.6123174 42.1917301,95.6092194 42.2081841,95.6019907 C43.2108494,95.1775647 43.3671624,93.717374 42.0559846,90.5904592 C40.7448069,87.4635445 38.7878099,87.1867898 38.7878099,87.1867898 C38.7878099,87.1867898 37.6164912,88.7863905 38.9286973,91.9133053 C39.4737358,93.2165306 39.9601571,94.1418 40.4136703,94.7541713 C38.9132716,93.9631486 37.4673768,93.0812513 36.0862697,92.1115773 C36.111979,92.1074466 36.13666,92.1053813 36.1623694,92.1012506 C37.223652,91.8565086 37.62986,90.4458859 36.8791465,87.1382545 C36.1294614,83.8316557 34.2485641,83.217219 34.2485641,83.217219 C34.2485641,83.217219 32.8201517,84.5875677 33.5708652,87.8951992 C33.8876046,89.2944625 34.2105142,90.3013125 34.5570765,90.9849379 C33.2047638,89.9367812 31.9182671,88.8049785 30.7109552,87.5946931 C30.74592,87.5957258 30.778828,87.5998565 30.8148211,87.5977911 C31.9018131,87.5430598 32.5455756,86.2243444 32.3789789,82.8371977 C32.2113539,79.4490183 30.4662021,78.5154876 30.4662021,78.5154876 C30.4662021,78.5154876 28.8218309,79.6173429 28.989456,83.0055224 C29.0604139,84.4626151 29.2084998,85.5241964 29.4388557,86.2594551 C28.2737072,84.9810137 27.1918571,83.6271877 26.1984471,82.2052057 C26.2406105,82.2144997 26.2817455,82.225859 26.326994,82.2310223 C27.405759,82.3673343 28.2685654,81.1808003 28.690199,77.8153396 C29.1118326,74.4488461 27.553845,73.2261688 27.553845,73.2261688 C27.553845,73.2261688 25.7439055,74.0233875 25.3233003,77.3898809 C25.1371645,78.8676269 25.100143,79.9550249 25.2081223,80.7212636 C24.271273,79.2455829 23.4290341,77.7038116 22.687576,76.1052435 C22.7348812,76.1269295 22.7832148,76.1475828 22.8346336,76.1641055 C23.8743204,76.4852649 24.9284044,75.4680882 25.9259279,72.2265474 C26.9224229,68.9860393 25.6009615,67.509326 25.6009615,67.509326 C25.6009615,67.509326 23.6799576,67.9791893 22.6834625,71.2217627 C22.2371479,72.6705941 22.0129622,73.7456001 21.9944515,74.5231981 C21.3239512,72.8967481 20.7562884,71.2165994 20.3007184,69.4899807 C20.3459669,69.5219933 20.3932721,69.5529733 20.4446908,69.5798227 C21.4134198,70.077568 22.6279303,69.2586633 24.1694639,66.2412113 C25.7130543,63.2227265 24.6661689,61.5394798 24.6661689,61.5394798 C24.6661689,61.5394798 22.6927179,61.6664978 21.1511842,64.6860152 C20.4580597,66.0398413 20.0518517,67.0621813 19.8996523,67.825322 C19.5263522,66.1131606 19.2610316,64.3596925 19.1129456,62.5742118 C19.1499671,62.6103552 19.1869886,62.6454658 19.2301803,62.6785112 C20.0971002,63.3383852 21.4350156,62.7435692 23.475311,60.0410804 C25.5166347,57.337559 24.7772333,55.4963143 24.7772333,55.4963143 C24.7772333,55.4963143 22.8120093,55.277389 20.771714,57.9829757 C19.8677726,59.1788037 19.2929112,60.1051058 19.0080514,60.8248744 C18.9864555,60.2961491 18.9730867,59.7632931 18.9730867,59.2283717 C18.9730867,57.9984657 19.0358175,56.7788863 19.146882,55.5696336 C19.1725914,55.6037116 19.1972724,55.6377896 19.2270952,55.6698023 C19.967525,56.4721843 21.3877104,56.1190123 23.8640366,53.8120349 C26.3413912,51.5060902 25.9320981,49.5646768 25.9320981,49.5646768 C25.9320981,49.5646768 24.0347468,49.0070368 21.5573922,51.3140142 C20.4817123,52.3146682 19.76185,53.1170502 19.3515286,53.7686629 C19.5890831,52.0461749 19.9387305,50.3495035 20.3922437,48.6879428 C20.4076693,48.7147921 20.4189815,48.7416415 20.4364638,48.7684908 C21.0267509,49.6854988 22.4860146,49.5873955 25.3243287,47.7471834 C28.1626428,45.9080041 28.09477,43.9242513 28.09477,43.9242513 C28.09477,43.9242513 26.3228805,43.0444193 23.4845664,44.8846314 C22.2854815,45.6611967 21.4545548,46.3086787 20.9341972,46.8694168 C21.4586683,45.2501954 22.0849484,43.671248 22.8058391,42.1398033 C22.810981,42.153228 22.8140661,42.1676853 22.8202363,42.1821426 C23.2428983,43.1889927 24.6970201,43.345958 27.8109386,42.0282753 C30.9248572,40.7126579 31.2004616,38.7474932 31.2004616,38.7474932 C31.2004616,38.7474932 29.6075092,37.5723185 26.4935907,38.8889685 C25.2204628,39.4269879 24.3730821,39.9061452 23.7632559,40.3543226 C24.5448207,38.8869032 25.3901446,37.4690518 26.4349733,36.1100625 L26.4349733,36.1121278 C26.4349733,37.1768072 28.0186703,37.5847105 31.311526,36.8308638 C34.6064385,36.0780498 35.1864418,34.1903351 35.1864418,34.1903351 C35.1864418,34.1903351 33.8053346,32.7549284 30.5104222,33.5087751 C29.2013012,33.8072157 28.2305155,34.1118524 27.553845,34.4371424 C28.5595954,33.1514724 29.6404172,31.9267297 30.7983671,30.7691103 C30.8734384,31.8430837 32.189758,32.4781737 35.5340325,32.3108817 C38.9081298,32.1435897 39.8367521,30.392187 39.8367521,30.392187 C39.8367521,30.392187 38.7405047,28.7399203 35.365379,28.908245 C34.056258,28.973303 33.0700467,29.100321 32.3522412,29.2934296 C34.2403371,27.5988236 36.2970865,26.0746075 38.5070636,24.7527942 C39.1333438,25.3589695 40.5165078,25.1183582 43.1614874,23.8388842 C46.2054765,22.3673341 46.3833853,20.3908101 46.3833853,20.3908101 C46.3833853,20.3908101 44.7328439,19.297216 41.6888549,20.7687661 C38.6736603,22.2268914 37.8170242,23.4165235 38.2602537,24.3954915 C36.120206,25.6770309 34.1189889,27.1465156 32.2761415,28.7770963 C32.5373486,28.1223856 32.7841586,27.2559782 33.0237699,26.1396655 C33.7364335,22.8227401 32.2915671,21.4678814 32.2915671,21.4678814 C32.2915671,21.4678814 30.4178684,22.1040041 29.7062332,25.4209295 C28.9945979,28.7368223 29.4172599,30.144347 30.4805993,30.373599 C30.5104222,30.379795 30.5392167,30.3818603 30.5680111,30.385991 C29.4594232,31.4878464 28.4135662,32.6485637 27.4417521,33.8671104 C27.5795543,33.1834851 27.6690229,32.3026204 27.7101579,31.1894057 C27.8387048,27.7991609 26.1809648,26.7179589 26.1809648,26.7179589 C26.1809648,26.7179589 24.4471251,27.6711103 24.3196066,31.061355 C24.1910598,34.4505671 24.8512763,35.7630865 25.9382684,35.8033605 C25.9578075,35.8043931 25.9763182,35.8012951 25.9958573,35.8012951 C25.1093984,37.0590832 24.2908121,38.3633412 23.5514107,39.7140692 C23.5637512,39.0263132 23.4979352,38.1619712 23.3508777,37.0900632 C22.8911942,33.7297657 21.0719994,32.9532004 21.0719994,32.9532004 C21.0719994,32.9532004 19.528409,34.1934331 19.9891209,37.5547632 C20.4498327,40.9160933 21.3260079,42.0923006 22.4037446,41.942564 C22.4099148,41.9415313 22.4160851,41.939466 22.4222553,41.9384333 C21.7784928,43.305684 21.2087732,44.7080454 20.7182385,46.1434521 C20.6082024,45.4753167 20.3973856,44.656412 20.0785894,43.6609213 C19.0440445,40.4317726 17.1178988,39.9846279 17.1178988,39.9846279 C17.1178988,39.9846279 15.8139197,41.4757986 16.8484646,44.70598 C17.8758109,47.9155081 18.9350368,48.9264888 19.9644399,48.6104928 C19.5746859,50.0428015 19.26206,51.5009269 19.0306757,52.9807382 C18.80649,52.3518442 18.4640412,51.6031609 17.9920172,50.7037082 C16.4144905,47.7027788 14.4410395,47.5984794 14.4410395,47.5984794 C14.4410395,47.5984794 13.4136932,49.2941181 14.9912199,52.2950476 C16.5430373,55.2484743 17.7534343,56.070477 18.7087944,55.6099076 C18.600815,56.8067683 18.5401409,58.012923 18.5401409,59.2283717 C18.5401409,59.4937671 18.5442544,59.7601951 18.5493963,60.0255904 C18.2213448,59.4545257 17.7626897,58.7884557 17.1538919,58.0025964 C15.0827453,55.3228263 13.1206064,55.5644703 13.1206064,55.5644703 C13.1206064,55.5644703 12.4017725,57.4139764 14.4739475,60.0927138 C16.4998456,62.7115565 17.8285057,63.3197972 18.6892553,62.7208505 C18.8136886,64.1893025 19.01525,65.6360686 19.2908544,67.0559853 C18.8702492,66.5582399 18.3118418,65.9913059 17.5919795,65.3365952 C15.0889155,63.0595652 13.1977345,63.6388912 13.1977345,63.6388912 C13.1977345,63.6388912 12.8100372,65.5854679 15.3141296,67.862498 C17.7441789,70.0724047 19.155109,70.4503607 19.9037658,69.730592 C20.2770658,71.140182 20.7233804,72.5177594 21.2396245,73.8612588 C20.7429195,73.4492248 20.1022421,72.9948514 19.2918828,72.4836814 C16.4319728,70.6765147 14.670367,71.5770001 14.670367,71.5770001 C14.670367,71.5770001 14.6251185,73.5607528 17.4850285,75.3668868 C20.2513564,77.1151915 21.7054782,77.2463402 22.322503,76.4150435 C22.9333575,77.7306609 23.6110565,79.0070369 24.353543,80.240041 C23.7941072,79.9219796 23.085557,79.5853303 22.2011548,79.2238969 C19.072839,77.9444229 17.4932555,79.1381856 17.4932555,79.1381856 C17.4932555,79.1381856 17.7925125,81.1002523 20.9208283,82.380759 C23.9504201,83.619959 25.4055703,83.4939737 25.8673105,82.5656063 C26.7013224,83.756271 27.5980651,84.8984004 28.5523968,85.9909618 C27.9425706,85.7710038 27.1784882,85.5613724 26.2323835,85.3558718 C22.929244,84.6402337 21.5810448,86.0911304 21.5810448,86.0911304 C21.5810448,86.0911304 22.2145236,87.9726492 25.5166347,88.6872545 C28.7303056,89.3832719 30.1391789,88.9980872 30.4240387,87.9922698 C31.4585836,89.0249365 32.5486608,90.0008065 33.6891283,90.9167819 C33.0453657,90.8042212 32.2463186,90.7278039 31.262164,90.6906279 C27.88601,90.5625772 26.8093017,92.2272359 26.8093017,92.2272359 C26.8093017,92.2272359 27.7574632,93.968312 31.1336172,94.0963626 C34.4429269,94.222348 35.7602749,93.587258 35.8497435,92.5339379 C37.0580837,93.3776266 38.3137292,94.1583226 39.6146232,94.866732 C38.9523499,94.8646667 38.1368488,94.9307573 37.1382969,95.0691347 C33.7909374,95.5307367 33.018628,97.3575241 33.018628,97.3575241 C33.018628,97.3575241 34.253706,98.9065241 37.6010656,98.4449221 C40.9155171,97.9874507 42.0950629,97.1189781 41.9726863,96.050168 C43.3311692,96.6780294 44.7318156,97.2325714 46.168455,97.7086307 C45.5010398,97.8191261 44.6803968,98.0328881 43.681845,98.3550801 C40.465089,99.3939428 40.0198028,101.327095 40.0198028,101.327095 C40.0198028,101.327095 41.5058042,102.638582 44.7215318,101.599719 C47.9372594,100.560856 48.9388964,99.4899808 48.605703,98.4490528 C48.6036462,98.4418241 48.6005611,98.4366608 48.5985043,98.4294321 C51.8821047,99.2906761 55.3353868,99.7522781 58.903847,99.7522781 C62.5412082,99.7522781 66.075732,99.2535001 69.4446874,98.3251328 C69.427205,98.3654068 69.4086943,98.4056808 69.394297,98.4490528 C69.0611036,99.4899808 70.0627406,100.560856 73.2794966,101.599719 C76.4952242,102.638582 77.9801972,101.327095 77.9801972,101.327095 C77.9801972,101.327095 77.534911,99.3939428 74.318155,98.3550801 C73.1879712,97.9895161 72.2891718,97.7674927 71.5785649,97.6735201 C73.115985,97.1551214 74.6132985,96.5448154 76.0663919,95.8508634 C76.0509663,95.9055947 76.0375974,95.9613587 76.0293704,96.0202207 C75.8812845,97.1024554 77.0526033,97.9822874 80.3989344,98.4449221 C83.746294,98.9065241 84.981372,97.3575241 84.981372,97.3575241 C84.981372,97.3575241 84.2090626,95.5307367 80.8627314,95.0691347 C79.6451358,94.90081 78.6980027,94.83885 77.9729986,94.8780913 C79.4209501,94.0881013 80.8174829,93.2134326 82.15437,92.2582159 C82.1451146,92.3263719 82.1410011,92.3976259 82.1440863,92.4709453 C82.1841929,93.5635066 83.4902287,94.225446 86.8663828,94.0963626 C90.2425368,93.968312 91.1917267,92.2272359 91.1917267,92.2272359 C91.1917267,92.2272359 90.1150184,90.5625772 86.737836,90.6906279 C85.4739635,90.7391632 84.5072913,90.8475932 83.7935993,91.0221139 C85.104777,89.9822185 86.3511671,88.8607425 87.525571,87.6690451 C87.5265993,87.7475278 87.5327696,87.8270432 87.5512803,87.9096565 C87.7806079,88.9774338 89.1802258,89.4018599 92.4833653,88.6872545 C95.7854764,87.9726492 96.4189552,86.0911304 96.4189552,86.0911304 C96.4189552,86.0911304 95.070756,84.6402337 91.7686449,85.3558718 C90.511971,85.6274631 89.5699798,85.9083484 88.895366,86.2098871 C90.0162944,84.9551971 91.0611231,83.6302857 92.021625,82.244447 C92.0360223,82.3208643 92.0565898,82.3972817 92.087441,82.473699 C92.4987909,83.486745 93.9508559,83.660233 97.0791717,82.380759 C100.208516,81.1002523 100.506744,79.1381856 100.506744,79.1381856 C100.506744,79.1381856 98.927161,77.9444229 95.7988452,79.2238969 C94.6203278,79.7071849 93.7441526,80.1429703 93.1332981,80.5539716 C94.0146152,79.1371529 94.8126339,77.6635376 95.5180989,76.1382888 C95.5438083,76.2033468 95.5756879,76.2673722 95.6157945,76.3303649 C96.1947695,77.2566669 97.6550615,77.1740535 100.514971,75.3668868 C103.374881,73.5607528 103.329633,71.5770001 103.329633,71.5770001 C103.329633,71.5770001 101.568027,70.6765147 98.7081172,72.4836814 C97.6488913,73.1518168 96.87144,73.7259795 96.3407987,74.2309535 C96.9557667,72.6995088 97.4792094,71.1226267 97.9049566,69.507536 C97.9409497,69.5612347 97.9810563,69.6149333 98.0273331,69.665534" id="Fill-12" fill="#FFFFFF"></path>
                <text id="AUTHENTIC" font-family="RobotoCondensed-Regular, Roboto Condensed" font-size="12" font-style="condensed" font-weight="normal" letter-spacing="0.00333333333" fill="#FFFFFF">
                    <tspan x="31" y="67">AUTHENTIC</tspan>
                </text>
                <text id="100%" font-family="RobotoCondensed-Regular, Roboto Condensed" font-size="14" font-style="condensed" font-weight="normal" letter-spacing="0.00388888889" fill="#FFFFFF">
                    <tspan x="44" y="51">100%</tspan>
                </text>
                <path d="M325,61.0005159 C325,93.5845846 298.360725,120 265.49948,120 C232.639275,120 206,93.5845846 206,61.0005159 C206,28.4154154 232.639275,2 265.49948,2 C298.360725,2 325,28.4154154 325,61.0005159" id="Fill-26" fill="#D9341A"></path>
                <path d="M231.867909,36 C231.637648,36 231.419889,36.0821065 231.255267,36.2312193 C231.090646,36.3803322 231,36.5766327 231,36.7861457 L231,40.214798 C231,40.4233673 231.090646,40.6206116 231.255267,40.7697244 C231.419889,40.9178935 231.637648,41 231.867909,41 L257.133133,41 C257.363394,41 257.581153,40.9188373 257.744733,40.7697244 C257.909354,40.6206116 258,40.4233673 258,40.214798 L258,36.7861457 C258,36.5766327 257.909354,36.3793884 257.744733,36.2312193 C257.581153,36.0821065 257.363394,36 257.133133,36 L231.867909,36 Z M256.997334,42 L232.003696,42 C231.46979,42 230.966804,41.8119681 230.587504,41.4703457 C230.208203,41.1277926 230,40.6735372 230,40.1913564 L230,36.8095745 C230,36.3273936 230.208203,35.8731383 230.587504,35.5305851 C230.966804,35.1889628 231.46979,35 232.003696,35 L256.997334,35 C257.531241,35 258.034227,35.1889628 258.412496,35.5305851 C258.791797,35.8731383 259,36.3273936 259,36.8095745 L259,40.1913564 C259,40.6735372 258.790766,41.1277926 258.412496,41.4694149 C258.033196,41.8119681 257.531241,42 256.997334,42 L256.997334,42 Z M289.999512,47 C289.464747,47 288.963162,47.2079063 288.586485,47.5856515 C288.207856,47.9633968 288,48.4651049 288,49 C288,49.533919 288.207856,50.0366032 288.586485,50.4153245 C288.963162,50.7920937 289.464747,51 289.999512,51 C290.162479,51 290.325445,50.9814544 290.482557,50.9424109 C290.634789,50.9043436 290.783118,50.8477306 290.922664,50.7755002 C291.241766,50.6085896 291.512076,50.3587116 291.701391,50.0512445 C291.89656,49.7359688 292,49.3728648 292,49 C292,48.4651049 291.792144,47.9633968 291.413515,47.5856515 C291.035862,47.2079063 290.534277,47 289.999512,47 L289.999512,47 Z M289.999525,52 C289.198386,52 288.444708,51.6876582 287.878026,51.1218354 C287.312292,50.5550633 287,49.8012658 287,49 C287,48.1987342 287.312292,47.4458861 287.878026,46.8781646 C288.444708,46.3113924 289.198386,46 289.999525,46 C290.800664,46 291.554343,46.3113924 292.121025,46.8781646 C292.687708,47.4458861 293,48.1987342 293,49 C293,49.5591772 292.845278,50.1041139 292.55197,50.5778481 C292.267205,51.0382911 291.863787,51.4123418 291.384433,51.6620253 C291.175605,51.7712025 290.952539,51.8556962 290.722829,51.9126582 C290.487423,51.9705696 290.244423,52 289.999525,52 L289.999525,52 Z M248,56 C247.466081,56 246.963397,56.2088314 246.585652,56.5864845 C246.207906,56.9631617 246,57.4657233 246,58.0004879 C246,58.5342767 246.207906,59.0358624 246.585652,59.4135155 C246.963397,59.7921444 247.466081,60 248,60 C248.533919,60 249.035627,59.7921444 249.414348,59.4135155 C249.792094,59.0358624 250,58.5342767 250,58.0004879 C250,57.4657233 249.792094,56.9631617 249.414348,56.5864845 C249.035627,56.2088314 248.533919,56 248,56 L248,56 Z M247.999525,61 C247.198386,61 246.444708,60.6876582 245.878026,60.1208861 C245.311343,59.5541139 245,58.8012658 245,58 C245,57.1977848 245.311343,56.4449367 245.878026,55.8781646 C246.444708,55.3113924 247.198386,55 247.999525,55 C248.800664,55 249.554343,55.3113924 250.120076,55.8781646 C250.686758,56.4449367 251,57.1977848 251,58 C251,58.8012658 250.686758,59.5541139 250.120076,60.1208861 C249.553393,60.6876582 248.800664,61 247.999525,61 L247.999525,61 Z M283.998536,66 C283.464747,66 282.963162,66.2069302 282.585509,66.5856515 C282.207856,66.9633968 282,67.4651049 282,68 C282,68.533919 282.207856,69.0366032 282.585509,69.4143485 C282.963162,69.7920937 283.464747,70 283.998536,70 C284.239571,70 284.473774,69.9580283 284.697243,69.875061 C284.91193,69.795022 285.111003,69.6778917 285.288607,69.5295266 C285.506221,69.3450464 285.685777,69.1127379 285.807758,68.8560273 C285.934618,68.5876037 286,68.2996584 286,68 C286,67.4651049 285.791169,66.9633968 285.413515,66.5856515 C285.034887,66.2079063 284.533301,66 283.998536,66 L283.998536,66 Z M283.998576,71 C283.198386,71 282.444708,70.6877076 281.878026,70.1219744 C281.312292,69.5543427 281,68.8016137 281,68.0004746 C281,67.1993355 281.312292,66.4466065 281.878026,65.8789748 C282.444708,65.3122924 283.198386,65 283.998576,65 C284.799715,65 285.553393,65.3122924 286.120076,65.8789748 C286.687708,66.4466065 287,67.1993355 287,68.0004746 C287,68.4494542 286.902231,68.8822971 286.710489,69.2857143 C286.528239,69.6701471 286.259611,70.0175605 285.93308,70.2928334 C285.668249,70.5168486 285.370195,70.6915045 285.046512,70.8120551 C284.711438,70.9373517 284.359279,71 283.998576,71 L283.998576,71 Z M243.000488,72 C242.465723,72 241.964138,72.2088824 241.586485,72.5856515 C241.208831,72.9633968 241,73.466081 241,74 C241,74.533919 241.208831,75.0366032 241.586485,75.4143485 C241.964138,75.7920937 242.465723,76 243.000488,76 C243.534277,76 244.035862,75.7920937 244.413515,75.4143485 C244.792144,75.0366032 245,74.533919 245,74 C245,73.466081 244.792144,72.9643729 244.414491,72.5856515 C244.036838,72.2088824 243.534277,72 243.000488,72 L243.000488,72 Z M243,77 C242.198734,77 241.444937,76.6877076 240.878165,76.1210252 C240.311392,75.5543427 240,74.8006645 240,73.9995254 C240,73.1983863 240.311392,72.4456573 240.878165,71.8780256 C241.444937,71.3113431 242.197785,71 243,71 C243.801266,71 244.554114,71.3113431 245.120886,71.8780256 C245.687658,72.4456573 246,73.1993355 246,73.9995254 C246,74.8006645 245.687658,75.5543427 245.121835,76.1210252 C244.554114,76.6877076 243.800316,77 243,77 L243,77 Z M271.916607,23 C271.687194,23 271.467208,23.095814 271.295409,23.2706977 C271.104755,23.4651163 271,23.7265116 271,24.0074419 L271,27.9934884 C271,28.2744186 271.104755,28.535814 271.295409,28.7293023 C271.467208,28.904186 271.687194,29 271.916607,29 L298.08444,29 C298.311759,29 298.531745,28.904186 298.703543,28.7293023 C298.894197,28.535814 299,28.2744186 299,27.9934884 L299,24.0074419 C299,23.7265116 298.894197,23.4651163 298.703543,23.2706977 C298.531745,23.095814 298.311759,23 298.08444,23 L271.916607,23 Z M277,32 C277.044055,32.031861 277.085036,32.0668053 277.123968,32.1058606 C277.298138,32.2805821 277.395468,32.5138866 277.395468,32.7626077 L277.395468,73.5467053 C277.395468,73.9238981 277.406738,74.2353134 277.463087,74.5261732 C277.517387,74.8057275 277.612668,75.0739763 277.78274,75.4223914 C277.853432,75.5714186 277.931296,75.7183901 278.012234,75.8602228 C278.038872,75.9075004 278.066534,75.9537502 278.093172,76 L278.093172,40.6487118 C278.093172,40.4020462 278.189477,40.1697695 278.364672,39.9940202 C278.538842,39.8192988 278.77141,39.7216603 279.018321,39.7216603 L293.605557,39.7216603 L293.605557,32.7626077 C293.605557,32.5138866 293.700838,32.2805821 293.876032,32.1058606 C293.91394,32.0668053 293.955945,32.031861 294,32 L277,32 Z M275.008341,32 C275.008341,36.141007 275.006333,40.3474845 275.004324,44.4158602 L275.00131,50.704094 C274.999302,56.3181865 274.998297,62.955255 275.008341,69.618921 C275.024412,78.1249668 280.730485,82 286.026758,82 C288.950606,82 291.660514,80.8777953 293.655279,78.8430959 C295.849923,76.6027784 297.006003,73.4141621 297,69.6209669 C296.988928,62.958324 296.989932,56.3192094 296.991941,50.703071 C296.992946,48.6008552 296.99395,46.4986394 296.994954,44.3974467 C296.996963,40.3341858 297,36.1348692 297,32 L295.140807,32 L295.140807,38.9286167 C295.140807,39.175154 295.047397,39.4073695 294.875642,39.5812754 C294.704892,39.7562043 294.47689,39.8513411 294.23583,39.8513411 L279.93499,39.8513411 L279.93499,75.0897968 C279.93499,75.1910715 279.93499,75.2872312 279.93499,75.3772531 C279.935994,75.6708472 279.936999,75.9030628 279.92595,76.0831066 C279.914902,76.2508746 279.893809,76.5997095 279.623622,76.8002128 C279.486017,76.9004644 279.317276,76.9393375 279.149539,76.9086482 C278.806029,76.8452237 278.600124,76.5649283 278.049706,75.7138122 C277.952278,75.5624118 277.856858,75.4048735 277.769474,75.2483581 C277.677068,75.084682 277.589684,74.9158909 277.509331,74.7460769 C277.302422,74.3113121 277.17687,73.9491786 277.105557,73.5747693 C277.033239,73.1952452 277.017168,72.8239049 277.017168,72.3819793 L277.017168,32 L275.008341,32 Z M284.929018,84 C283.343581,84 281.799592,83.7108393 280.341612,83.1377187 C278.825602,82.5437952 277.475389,81.6711125 276.326206,80.544634 C273.772927,78.0410019 272.418569,74.4837016 272.411316,70.2586273 C272.399917,63.4820743 272.400953,56.732565 272.403026,51.023202 C272.404062,48.8919422 272.405098,46.7606825 272.406135,44.6294227 C272.408207,40.4209908 272.411316,36.0700589 272.411316,31.790897 C272.411316,31.5391816 272.507685,31.3041086 272.684881,31.1262436 C272.723222,31.086718 272.765708,31.051353 272.810266,31.0191085 L272.05796,31.0191085 C271.494249,31.0191085 270.967842,30.7725938 270.577182,30.3222105 C270.205174,29.8947104 270,29.3330314 270,28.7391078 L270,24.282081 C270,23.6881574 270.205174,23.1264784 270.577182,22.6979382 C270.967842,22.248595 271.494249,22 272.05796,22 L297.943076,22 C298.505751,22 299.031122,22.248595 299.422818,22.6979382 C299.794826,23.1264784 300,23.6891976 300,24.282081 L300,28.7391078 C300,29.3319912 299.794826,29.8947104 299.422818,30.3222105 C299.031122,30.7725938 298.505751,31.0191085 297.943076,31.0191085 L297.002176,31.0191085 C297.046734,31.051353 297.088183,31.086718 297.128597,31.1262436 C297.304756,31.3041086 297.401126,31.5391816 297.401126,31.790897 C297.401126,36.063818 297.399054,40.4105894 297.395945,44.6127804 C297.394909,46.7492409 297.393872,48.8867415 297.392836,51.0242421 C297.390764,56.7336051 297.389727,63.4831144 297.401126,70.256547 C297.40838,74.4275337 296.09858,77.9525895 293.613692,80.452061 C292.464509,81.6076635 291.10497,82.5032295 289.572381,83.1148355 C288.098857,83.7025182 286.537253,84 284.929018,84 L284.929018,84 Z M233.008342,43 C233.008342,46.1229238 233.006333,49.2933837 233.004324,52.3615375 L233.001311,57.1389288 C232.999302,61.3965217 232.998297,66.4322621 233.008342,71.492804 C233.02341,80.086528 238.732009,84 244.027756,84 C246.951869,84 249.661017,82.868431 251.655963,80.8109389 C253.850805,78.5498677 255.007994,75.3277379 255,71.4948708 C254.996945,70.0047133 254.994936,68.4856207 254.993931,66.8487209 C254.992927,65.391632 254.991922,63.8725394 254.991922,62.2025709 C254.991922,58.9029364 254.993931,55.4978954 254.99594,52.4927788 L254.99594,52.2985003 C254.997949,49.2510145 255,46.1022558 255,43 L253.141625,43 L253.141625,49.9981601 C253.141625,50.2461752 253.047202,50.4807561 252.876436,50.6564335 C252.70567,50.8341777 252.476643,50.931317 252.234558,50.931317 L237.933428,50.931317 L237.933428,77.0204411 C237.933428,77.1237807 237.933428,77.22092 237.933428,77.3118589 C237.934432,77.6074102 237.935437,77.8409578 237.924387,78.0238689 C237.914342,78.1923125 237.892243,78.5447007 237.622031,78.746213 C237.485419,78.8495526 237.316662,78.8888217 237.14891,78.8578198 C236.805369,78.7927158 236.598441,78.5105986 236.048977,77.6518463 C235.952545,77.499937 235.857117,77.3418273 235.767716,77.1806175 C235.67731,77.0163075 235.588914,76.8457971 235.507549,76.6732199 C235.299617,76.2340265 235.175058,75.8682042 235.103738,75.4899811 C235.031414,75.1065911 235.016347,74.7314682 235.016347,74.285041 L235.016347,43 L233.008342,43 Z M244.026998,86 C242.504883,86 241.023558,85.7059526 239.622814,85.1283593 C238.168349,84.5276624 236.87107,83.6465702 235.76878,82.5102869 C233.31549,79.982529 232.016221,76.3909494 232.008262,72.1241109 C231.998313,66.9803809 231.999308,61.8629052 232.001298,57.5341066 C232.001298,55.9168457 232.002293,54.2985345 232.004282,52.6802234 C232.006272,49.4898086 232.008262,46.1912263 232.008262,42.9462027 C232.008262,42.6931118 232.101777,42.4568237 232.270901,42.2772447 C232.440025,42.0987159 232.66486,42 232.904618,42 L235.309161,42 C235.547924,42 235.77276,42.0976658 235.942878,42.2761946 C236.112997,42.4547234 236.207507,42.6931118 236.207507,42.9462027 L236.207507,74.9595685 C236.207507,75.3449807 236.218451,75.663182 236.273167,75.96038 C236.326889,76.2460261 236.418415,76.5201203 236.582564,76.8761277 C236.653198,77.0284023 236.727812,77.1785765 236.806405,77.3234999 C236.832271,77.3718077 236.859132,77.4190653 236.885992,77.466323 L236.885992,51.0073035 C236.885992,50.7542126 236.978513,50.5158241 237.148632,50.3383455 C237.317756,50.1587665 237.543586,50.0600506 237.783344,50.0600506 L251.946968,50.0600506 L251.946968,42.9462027 C251.946968,42.6931118 252.041478,42.4557735 252.211597,42.2761946 C252.381716,42.0987159 252.606551,42 252.845314,42 L255.101625,42 C255.340388,42 255.566218,42.0987159 255.735342,42.2772447 C255.905461,42.4557735 256,42.6931118 256,42.9462027 C256,46.1712731 255.996987,49.4478018 255.994997,52.6172132 L255.994997,52.8146451 C255.993007,55.8674877 255.991018,59.3277961 255.991018,62.6809872 C255.991018,64.378061 255.992012,65.9207599 255.993007,67.4014989 C255.994997,69.0649673 255.996987,70.6076662 256,72.1220106 C256.006935,76.3331901 254.750444,79.8932646 252.364803,82.4157716 C251.260524,83.5835601 249.955286,84.487756 248.484904,85.1052556 C247.070232,85.6986014 245.570999,86 244.026998,86 L244.026998,86 Z M262.687075,89 L266.292826,89 L266.292826,57.1188984 C266.292826,56.8705226 266.387291,56.6366354 266.559137,56.4596677 C266.729978,56.2826999 266.958101,56.1854194 267.199289,56.1854194 L271,56.1854194 L271,53 L258,53 L258,56.1854194 L261.780612,56.1854194 C262.0218,56.1854194 262.249923,56.2826999 262.421769,56.4607026 C262.59261,56.6366354 262.687075,56.8705226 262.687075,57.1188984 L262.687075,89 Z M266.102652,90 L261.875181,90 C261.620794,90 261.381185,89.9034803 261.201742,89.7278967 C261.022298,89.5533398 260.923077,89.3202551 260.923077,89.0727951 L260.923077,57.4420666 L256.952104,57.4420666 C256.697717,57.4420666 256.459163,57.3465737 256.278665,57.1709901 C256.099222,56.9954064 256,56.7623217 256,56.5158885 L256,52.9272049 C256,52.6797449 256.099222,52.4466602 256.278665,52.2721033 C256.459163,52.0965197 256.697717,52 256.952104,52 L271.04684,52 C271.300172,52 271.539781,52.0954929 271.72028,52.2710765 C271.900778,52.4466602 272,52.6797449 272,52.9272049 L272,56.5158885 C272,56.7633485 271.900778,56.9964332 271.719224,57.1720169 C271.538725,57.3465737 271.300172,57.4420666 271.04684,57.4420666 L267.055812,57.4420666 L267.055812,89.0727951 C267.055812,89.3202551 266.956591,89.5533398 266.776092,89.7289235 C266.596649,89.9045071 266.357039,90 266.102652,90 L266.102652,90 Z M243,98.9443863 C243.221613,99 243.829784,99 244.285153,99 L284.714847,99 C285.171228,99 285.778387,99 286,98.9443863 C285.996964,98.9031245 285.987857,98.8340559 285.957499,98.7246225 C285.909938,98.5532965 285.822912,98.3209747 285.685289,97.9962625 C285.385758,97.2885334 285.014379,96.6130961 284.581272,95.9896846 C284.148166,95.366273 283.641188,94.7760502 283.074506,94.2360592 C282.380321,93.5731798 281.98668,93.2897294 281.571788,93.1524892 C281.130586,93.006279 280.56694,93 279.607629,93 L249.392371,93 C248.434071,93 247.870426,93.006279 247.429224,93.1524892 C247.01332,93.2897294 246.619679,93.5731798 245.925494,94.2360592 C245.358812,94.7760502 244.850822,95.366273 244.418728,95.9896846 C243.984609,96.6130961 243.614242,97.2885334 243.314711,97.9962625 C243.177088,98.3209747 243.091074,98.5532965 243.043513,98.7246225 C243.013155,98.8340559 243.003036,98.9031245 243,98.9443863 L243,98.9443863 Z M284.549579,100 L243.449858,100 C242.33886,100 241.667118,100 241.266953,99.5264811 C241.032409,99.2470826 240.953199,98.872307 241.026236,98.3785907 C241.073557,98.0632855 241.179513,97.6806553 241.392454,97.0590215 C241.722667,96.0996409 242.133119,95.1817774 242.611466,94.334605 C243.09187,93.4840664 243.652512,92.6806553 244.281049,91.9445691 C245.002169,91.0973968 245.55561,90.5520646 246.245869,90.2704219 C246.878521,90.0123429 247.534832,90 248.641716,90 L279.357721,90 C280.464604,90 281.120916,90.0123429 281.753568,90.2704219 C282.443827,90.5520646 282.997268,91.0973968 283.719417,91.9445691 C284.346925,92.6806553 284.907567,93.4851885 285.386942,94.334605 C285.866317,95.1817774 286.276769,96.0996409 286.605954,97.0590215 C286.816838,97.6716786 286.926909,98.0666517 286.9732,98.3785907 C287.047267,98.872307 286.968057,99.2470826 286.732484,99.5264811 C286.332319,100 285.660577,100 284.549579,100 L284.549579,100 Z" id="Fill-27" fill="#FFFFFF"></path>
                <path d="M543,59.0005159 C543,91.5845846 516.136866,118 483.000525,118 C449.863134,118 423,91.5845846 423,59.0005159 C423,26.4154154 449.863134,0 483.000525,0 C516.136866,0 543,26.4154154 543,59.0005159" id="Fill-28" fill="#D9341A"></path>
                <path d="M512,70.8083245 C512,86.931289 499.016529,100 483,100 C466.984504,100 454,86.931289 454,70.8083245 C454,50.4653528 474.869835,31.6406686 483,18 C491.131198,31.6406686 512,50.1003399 512,70.8083245" id="Fill-29" fill="#FFFFFF"></path>
                <path d="M510,73.6516512 L509.481142,73.6039277 C508.777802,73.539958 507.682436,73.6790668 506.727528,74.0111001 C506.727528,74.0111001 506.908866,73.7196825 506.793564,73.7470981 L505.394221,74.0608543 C505.394221,74.0608543 505.678283,73.4678651 505.562981,73.4942653 L504.055673,73.8334064 C504.055673,73.8334064 504.415205,73.1774629 504.300951,73.2038631 L502.584004,73.8770683 C502.584004,73.8770683 502.922572,73.1307549 502.80727,73.1571551 L501.113383,73.9207302 C501.113383,73.9207302 501.450903,73.1744167 501.335601,73.2008169 L499.678401,74.1471627 C499.678401,74.1471627 499.805233,73.3155563 499.69098,73.3409411 L498.142792,74.1898092 C498.142792,74.1898092 498.27172,73.50645 498.155371,73.5328503 L496.455195,74.6802437 C496.455195,74.6802437 496.615569,73.9075301 496.500267,73.9329149 L494.900718,75.0295387 C494.900718,75.0295387 494.999248,74.2700252 494.883947,74.2974407 L493.551688,75.333141 C493.551688,75.333141 493.629255,74.6457204 493.513953,74.6711052 L492.2362,75.767729 C492.2362,75.767729 492.28861,75.1381857 492.173309,75.1645859 L490.822182,76.3363487 C490.822182,76.3363487 490.958448,75.6793898 490.843146,75.7047747 L489.663924,76.8765375 C489.663924,76.8765375 489.773985,76.3211179 489.658683,76.3465027 L488.601052,77.3070639 C488.601052,77.3070639 488.71845,76.8034293 488.676522,76.8176448 C488.620968,76.8379526 487.094793,78.0290079 487.094793,78.0290079 C487.094793,78.0290079 487.18913,77.6522973 487.07278,77.6786975 L487.032949,77.7091593 C486.280343,78.2798098 484.804482,78.9418457 484.036153,79.2728636 C484.810771,78.6098124 486.388308,77.3415872 487.459565,76.8024139 L487.51512,76.7729675 C487.605265,76.6602589 487.111564,76.564812 487.111564,76.564812 C487.111564,76.564812 489.299152,75.5118501 489.350513,75.4600651 C489.389297,75.4214802 488.734173,75.2854176 488.734173,75.2854176 L490.409192,74.6274433 C490.499337,74.5137193 489.786563,74.3431334 489.786563,74.3431334 L491.771849,73.6597743 C491.861994,73.5460504 491.024484,73.356172 491.024484,73.356172 L493.086288,72.4768421 C493.176433,72.3631182 492.419635,72.1001315 492.419635,72.1001315 L494.356704,71.260402 C494.446848,71.1466781 493.602001,70.8775991 493.602001,70.8775991 L495.509721,69.9556227 C495.599866,69.8429142 494.654392,69.5545427 494.654392,69.5545427 L496.769654,68.3716106 C496.859799,68.2578866 495.868204,68.0304387 495.868204,68.0304387 L498.089334,66.758152 C498.179479,66.6454434 497.203607,66.3509796 497.203607,66.3509796 L499.112375,65.1782014 C499.20252,65.0654928 498.253901,64.8400757 498.253901,64.8400757 L500.122837,63.4408649 C500.212982,63.3281564 499.165833,63.3129255 499.165833,63.3129255 L500.93519,61.8507604 C501.024287,61.7380518 499.978186,61.7218056 499.978186,61.7218056 L501.652157,60.188563 C501.742302,60.074839 500.790539,60.131701 500.790539,60.131701 L502.068291,58.7294441 C502.158436,58.6157201 501.222396,58.5487042 501.222396,58.5487042 L502.313569,57.1769091 C502.403714,57.0642005 501.96976,57.1119239 501.96976,57.1119239 C502.851294,56.2376711 503.581888,55.1075393 503.870142,54.3033485 L504.083974,53.7093439 L503.545201,54.0606697 C502.815656,54.5368887 501.874375,55.5086193 501.22554,56.5565043 C501.22554,56.5565043 501.163697,56.1381626 501.073552,56.2508712 L499.98133,57.6226663 C499.98133,57.6226663 499.772739,56.8347218 499.682594,56.9484458 L498.506517,58.4268571 C498.506517,58.4268571 498.319938,57.5201117 498.229793,57.6338356 L497.124993,59.5925276 C497.124993,59.5925276 496.844076,58.6157201 496.753931,58.7294441 L495.743469,60.7592135 C495.743469,60.7592135 495.462552,59.782406 495.372407,59.8951146 L494.546427,62.0731313 C494.546427,62.0731313 493.992979,61.1755244 493.902834,61.288233 L493.102011,63.2885561 C493.102011,63.2885561 492.669106,62.5320887 492.578961,62.6447973 L491.875621,65.0502619 C491.875621,65.0502619 491.401835,64.1831168 491.31169,64.2958254 L490.663904,66.574366 C490.663904,66.574366 490.140854,65.767129 490.050709,65.8808529 L489.610466,67.8974223 C489.610466,67.8974223 489.126199,67.1754783 489.037102,67.2881868 L488.698535,69.3210025 C488.698535,69.3210025 488.236279,68.6752129 488.146135,68.7889368 L487.799181,70.9486765 C487.799181,70.9486765 487.395625,70.212517 487.30548,70.326241 L487.124142,72.354995 C487.124142,72.354995 486.777189,71.7356057 486.687044,71.8493296 L486.450151,73.5815891 C486.450151,73.5815891 486.153511,73.0058616 486.12521,73.0525696 C486.087475,73.1145086 485.586437,75.4265571 485.586437,75.4265571 C485.586437,75.4265571 485.371556,74.9929846 485.281411,75.1067085 L485.267785,75.1666167 C485.034037,76.1728706 484.249985,78.0645467 483.767814,79.0129232 C484.005755,77.858422 484.525661,75.5808968 485.045567,74.4974731 L485.075965,74.4345187 C485.075965,74.2751021 484.579119,74.5177809 484.579119,74.5177809 C484.579119,74.5177809 485.767775,72.1336395 485.778257,72.0544389 C485.784546,71.9945307 485.115796,72.308287 485.115796,72.308287 L486.128355,70.6146124 C486.128355,70.4541804 485.384135,70.774029 485.384135,70.774029 L486.65455,68.8529066 C486.65455,68.6934899 485.778257,69.0793391 485.778257,69.0793391 L486.994166,66.9327995 C486.994166,66.7733829 486.128355,67.0404311 486.128355,67.0404311 L487.262504,65.0126924 C487.262504,64.8522604 486.323319,65.172109 486.323319,65.172109 L487.355794,63.0925853 C487.355794,62.9311379 486.323319,63.3027716 486.323319,63.3027716 L487.355794,60.8516142 C487.355794,60.6911822 486.323319,61.1470934 486.323319,61.1470934 L487.396673,58.5466734 C487.396673,58.3872568 486.479501,58.7710752 486.479501,58.7710752 L487.180745,56.4671497 C487.180745,56.3067177 486.054981,56.7362287 486.054981,56.7362287 L486.859996,54.2576558 C486.859996,54.0972238 485.920812,54.7775368 485.920812,54.7775368 L486.457489,52.307087 C486.457489,52.1476704 485.518304,52.8279833 485.518304,52.8279833 L485.873643,50.3585489 C485.873643,50.1981169 485.02041,50.8784298 485.02041,50.8784298 L485.308664,48.7887522 C485.308664,48.6273048 484.733204,49.1888168 484.733204,49.1888168 L484.733204,47.2484019 C484.733204,47.0889853 484.202816,47.4179724 484.202816,47.4179724 C484.367383,46.058362 484.128394,44.5728429 483.81708,43.6681282 L483.541404,43 L483.289836,43.6681282 C482.978522,44.5728429 482.720665,46.058362 482.885232,47.4179724 C482.885232,47.4179724 482.426122,47.0889853 482.426122,47.2484019 L482.426122,49.1888168 C482.426122,49.1888168 481.646263,48.6273048 481.646263,48.7887522 L481.838083,50.8784298 C481.838083,50.8784298 481.058224,50.1981169 481.058224,50.3585489 L481.472262,52.8279833 C481.472262,52.8279833 480.539367,52.1476704 480.539367,52.307087 L481.079188,54.7775368 C481.079188,54.7775368 480.141052,54.0972238 480.141052,54.2576558 L480.812946,56.7362287 C480.812946,56.7362287 479.812966,56.3067177 479.812966,56.4671497 L480.678777,58.7710752 C480.678777,58.7710752 479.605423,58.3872568 479.605423,58.5466734 L480.679825,61.1470934 C480.679825,61.1470934 479.637917,60.6911822 479.637917,60.8516142 L480.679825,63.3027716 C480.679825,63.3027716 479.637917,62.9311379 479.637917,63.0925853 L480.679825,65.172109 C480.679825,65.172109 479.74064,64.8522604 479.74064,65.0126924 L480.866404,67.0404311 C480.866404,67.0404311 480.008979,66.7733829 480.008979,66.9327995 L481.216502,69.0793391 C481.216502,69.0793391 480.339161,68.6934899 480.339161,68.8529066 L481.61901,70.774029 C481.61901,70.774029 480.866404,70.4541804 480.866404,70.6146124 L481.887348,72.308287 C481.887348,72.308287 481.209165,71.9945307 481.216502,72.0544389 C481.225936,72.1336395 482.424025,74.5177809 482.424025,74.5177809 C482.424025,74.5177809 481.917746,74.2751021 481.917746,74.4345187 L481.948144,74.4974731 C482.503688,75.6560358 483.006823,77.8909145 483.231137,79.0129232 C482.754208,78.0879007 481.910409,76.2551173 481.656745,75.1666167 L481.643118,75.1067085 C481.552974,74.9929846 481.338093,75.4265571 481.338093,75.4265571 C481.338093,75.4265571 480.838103,73.1145086 480.800368,73.0525696 C480.771018,73.0058616 480.475427,73.5815891 480.475427,73.5815891 L480.237486,71.8493296 C480.147341,71.7356057 479.801436,72.354995 479.801436,72.354995 L479.61905,70.326241 C479.528905,70.212517 479.126397,70.9486765 479.126397,70.9486765 L478.778395,68.7889368 C478.689298,68.6752129 478.227043,69.3210025 478.227043,69.3210025 L477.888476,67.2881868 C477.798331,67.1754783 477.314064,67.8974223 477.314064,67.8974223 L476.873821,65.8808529 C476.784724,65.767129 476.261674,66.574366 476.261674,66.574366 L475.613888,64.2958254 C475.523743,64.1831168 475.048909,65.0502619 475.048909,65.0502619 L474.345569,62.6447973 C474.255424,62.5320887 473.822518,63.2885561 473.822518,63.2885561 L473.022744,61.288233 C472.932599,61.1755244 472.378103,62.0731313 472.378103,62.0731313 L471.553171,59.8951146 C471.463026,59.782406 471.181061,60.7592135 471.181061,60.7592135 L470.171647,58.7294441 C470.081502,58.6157201 469.799537,59.5925276 469.799537,59.5925276 L468.694737,57.6338356 C468.604592,57.5201117 468.418013,58.4268571 468.418013,58.4268571 L467.241936,56.9484458 C467.152839,56.8347218 466.9432,57.6226663 466.9432,57.6226663 L465.852026,56.2508712 C465.761881,56.1381626 465.698989,56.5565043 465.698989,56.5565043 C465.051203,55.5086193 464.108874,54.5368887 463.379329,54.0606697 L462.841604,53.7093439 L463.054388,54.3033485 C463.34369,55.1075393 464.074284,56.2376711 464.954769,57.1119239 C464.954769,57.1119239 464.520816,57.0642005 464.610961,57.1769091 L465.702134,58.5487042 C465.702134,58.5487042 464.767142,58.6157201 464.857287,58.7294441 L466.135039,60.131701 C466.135039,60.131701 465.183276,60.074839 465.273421,60.188563 L466.947392,61.7218056 C466.947392,61.7218056 465.900243,61.7380518 465.990388,61.8507604 L467.759745,63.3129255 C467.759745,63.3129255 466.712596,63.3281564 466.802741,63.4408649 L468.671677,64.8400757 C468.671677,64.8400757 467.723058,65.0654928 467.812155,65.1782014 L469.720922,66.3509796 C469.720922,66.3509796 468.746099,66.6454434 468.836244,66.758152 L471.057374,68.0304387 C471.057374,68.0304387 470.064731,68.2578866 470.154876,68.3716106 L472.270138,69.5545427 C472.270138,69.5545427 471.325712,69.8429142 471.415857,69.9556227 L473.322528,70.8775991 C473.322528,70.8775991 472.47873,71.1466781 472.568874,71.260402 L474.505943,72.1001315 C474.505943,72.1001315 473.749145,72.3631182 473.838241,72.4768421 L475.901094,73.356172 C475.901094,73.356172 475.063584,73.5460504 475.152681,73.6597743 L477.137966,74.3431334 C477.137966,74.3431334 476.426241,74.5137193 476.516385,74.6274433 L478.191405,75.2854176 C478.191405,75.2854176 477.535233,75.4214802 477.574017,75.4600651 C477.626426,75.5118501 479.814014,76.564812 479.814014,76.564812 C479.814014,76.564812 479.319265,76.6602589 479.40941,76.7729675 L479.466013,76.8024139 C480.50268,77.3233102 482.034096,78.5945815 482.82863,79.2728636 C482.037241,78.9266148 480.672488,78.2432557 479.966003,77.7091593 L479.926171,77.6786975 C479.81087,77.6522973 479.905207,78.0290079 479.905207,78.0290079 C479.905207,78.0290079 478.379032,76.8379526 478.323478,76.8176448 C478.280502,76.8034293 478.398948,77.3070639 478.398948,77.3070639 L477.341317,76.3465027 C477.226015,76.3211179 477.336076,76.8765375 477.336076,76.8765375 L476.156854,75.7047747 C476.041552,75.6793898 476.177818,76.3363487 476.177818,76.3363487 L474.826691,75.1645859 C474.71139,75.1381857 474.7638,75.767729 474.7638,75.767729 L473.484999,74.6711052 C473.369697,74.6457204 473.448312,75.333141 473.448312,75.333141 L472.115005,74.2974407 C472.000752,74.2700252 472.099282,75.0295387 472.099282,75.0295387 L470.499733,73.9329149 C470.384431,73.9075301 470.544805,74.6802437 470.544805,74.6802437 L468.843581,73.5328503 C468.72828,73.50645 468.857208,74.1898092 468.857208,74.1898092 L467.30902,73.3409411 C467.193719,73.3155563 467.320551,74.1471627 467.320551,74.1471627 L465.663351,73.2008169 C465.548049,73.1744167 465.886617,73.9207302 465.886617,73.9207302 L464.19273,73.1571551 C464.07638,73.1307549 464.414948,73.8770683 464.414948,73.8770683 L462.700097,73.2038631 C462.583747,73.1774629 462.943279,73.8334064 462.943279,73.8334064 L461.435971,73.4942653 C461.321717,73.4678651 461.604731,74.0608543 461.604731,74.0608543 L460.206436,73.7470981 C460.090086,73.7196825 460.271424,74.0111001 460.271424,74.0111001 C459.317564,73.6790668 458.222198,73.539958 457.518858,73.6039277 L457,73.6516512 L457.444436,73.9156532 C458.047149,74.2720559 459.094298,74.6142432 460.101616,74.7239056 C460.101616,74.7239056 459.806024,74.9076916 459.921326,74.9340918 L461.320669,75.2478481 C461.320669,75.2478481 460.774558,75.7504673 460.88986,75.7768675 L462.420228,76.0175155 C462.420228,76.0175155 461.799695,76.4531189 461.914997,76.4785037 L463.760873,76.6064431 C463.760873,76.6064431 463.118328,77.1324164 463.233629,77.1578012 L465.102565,77.1943553 C465.102565,77.1943553 464.458972,77.7203286 464.575322,77.7457134 L466.471511,77.6939284 C466.471511,77.6939284 465.998774,78.3011331 466.115124,78.3265179 L467.916975,78.1153163 C467.916975,78.1153163 467.465202,78.7793829 467.580504,78.8047677 L469.629729,78.4991346 C469.629729,78.4991346 469.132884,79.1307087 469.248185,79.1571089 L471.184206,78.849445 C471.184206,78.849445 470.749204,79.4942192 470.864506,79.519604 L472.533236,79.1530473 C472.533236,79.1530473 472.150644,79.7358826 472.265945,79.7622828 L473.910567,79.3297256 C473.910567,79.3297256 473.578288,79.8658528 473.694638,79.892253 L475.43779,79.4231417 C475.43779,79.4231417 475.017463,79.9531766 475.132765,79.9785614 L476.724977,79.4251725 C476.724977,79.4251725 476.372782,79.8831145 476.488084,79.9084993 L477.875897,79.4921884 C477.875897,79.4921884 477.539426,79.8993608 477.58345,79.9044377 C477.642149,79.9105301 479.556158,79.4871114 479.556158,79.4871114 C479.556158,79.4871114 479.298301,79.7896984 479.414651,79.8150832 L479.463916,79.8059447 C480.463897,79.6018508 482.195518,79.6434819 482.976425,79.6769898 C482.389435,79.8039139 481.527817,79.9643459 480.963887,79.9582535 L480.929296,79.9572381 C480.854874,79.9897307 481.067658,80.1572704 481.067658,80.1572704 C481.067658,80.1572704 479.721773,80.1217317 479.68299,80.1339164 C479.65364,80.1430549 479.934557,80.3694875 479.934557,80.3694875 L478.945059,80.2730252 C478.870637,80.3045023 479.169373,80.5634274 479.169373,80.5634274 L478.021597,80.3999492 C477.947175,80.4314264 478.30461,80.7350287 478.30461,80.7350287 L477.062496,80.6395818 C476.988074,80.6720744 477.287859,80.9939538 477.287859,80.9939538 L476.118071,80.9106916 C476.043649,80.9431842 476.382216,81.2874022 476.382216,81.2874022 L475.209283,81.2579558 C475.134861,81.2904484 475.515357,81.6661436 475.515357,81.6661436 L474.169472,81.7108209 C474.096098,81.7443288 474.515377,82.1007315 474.515377,82.1007315 L473.092973,82.1596243 C473.018551,82.1921169 473.382276,82.5139963 473.382276,82.5139963 L472.172656,82.6744283 C472.098234,82.7059054 472.52485,83.1090162 472.52485,83.1090162 L471.213555,83.2603097 C471.139133,83.2928023 471.643316,83.563912 471.643316,83.563912 L470.389672,83.8289295 C470.316298,83.8624374 470.82153,84.1325318 470.82153,84.1325318 L469.595139,84.4574574 C469.520717,84.4899499 469.998695,84.7021669 469.998695,84.7021669 L469.03016,85.1245702 C468.955738,85.1570627 469.364535,85.3662336 469.364535,85.3662336 L468.465182,85.7591905 C468.391808,85.7906676 468.615074,85.876976 468.615074,85.876976 C467.951565,86.0800545 467.293297,86.4455957 466.93691,86.764429 L466.673813,87 L467.029152,86.9634459 C467.511323,86.9157224 468.230386,86.6811668 468.827858,86.334918 C468.827858,86.334918 468.746099,86.5542427 468.820521,86.5217502 L469.719874,86.1298087 C469.719874,86.1298087 469.637067,86.6243048 469.711489,86.5918122 L470.650673,86.1074701 C470.650673,86.1074701 470.498685,86.5948584 470.573107,86.5623659 L471.637027,85.8881453 C471.637027,85.8881453 471.511243,86.4344264 471.585665,86.4019339 L472.622333,85.6688205 C472.622333,85.6688205 472.496549,86.2151017 472.570971,86.1826091 L473.584578,85.390603 C473.584578,85.390603 473.587722,85.9114993 473.662144,85.8800222 L474.555208,85.0372464 C474.555208,85.0372464 474.593992,85.5814968 474.667365,85.5500196 L475.655816,84.5569658 C475.655816,84.5569658 475.655816,85.1012162 475.730238,85.069739 L476.655796,84.1213625 C476.655796,84.1213625 476.694579,84.6493665 476.769001,84.616874 L477.523703,83.7426211 C477.523703,83.7426211 477.564583,84.215794 477.639005,84.1843168 L478.351779,83.2836637 C478.351779,83.2836637 478.401044,83.7111439 478.474418,83.6786514 L479.225976,82.7201209 C479.225976,82.7201209 479.224927,83.1790783 479.298301,83.1465857 L479.930364,82.2022708 C479.930364,82.2022708 479.934557,82.5942123 480.008979,82.5617197 L480.587584,81.7747906 C480.587584,81.7747906 480.579198,82.1342395 480.605403,82.1179932 C480.639994,82.0976854 481.50266,81.0944776 481.50266,81.0944776 C481.50266,81.0944776 481.493226,81.3635566 481.567648,81.3310641 C481.567648,81.3310641 482.714376,80.487273 483.00263,80.1461011 L483.00263,86.2912561 L483.867393,86.2912561 L483.867393,80.1461011 C484.155647,80.4852422 485.037181,80.8680451 485.428159,81.3056793 L485.462749,81.3310641 C485.537171,81.3635566 485.532979,81.0944776 485.532979,81.0944776 C485.532979,81.0944776 486.39879,82.0976854 486.434428,82.1179932 C486.459585,82.1342395 486.453296,81.7747906 486.453296,81.7747906 L487.032949,82.5617197 C487.107371,82.5942123 487.111564,82.2022708 487.111564,82.2022708 L487.743627,83.1465857 C487.817001,83.1790783 487.815952,82.7201209 487.815952,82.7201209 L488.56751,83.6786514 C488.641932,83.7111439 488.690149,83.2836637 488.690149,83.2836637 L489.403971,84.1843168 C489.477345,84.215794 489.519273,83.7426211 489.519273,83.7426211 L490.272927,84.616874 C490.347349,84.6493665 490.386132,84.1213625 490.386132,84.1213625 L491.31169,85.069739 C491.386112,85.1012162 491.386112,84.5569658 491.386112,84.5569658 L492.374562,85.5500196 C492.447936,85.5814968 492.48672,85.0372464 492.48672,85.0372464 L493.380832,85.8800222 C493.454206,85.9114993 493.45735,85.390603 493.45735,85.390603 L494.472005,86.1826091 C494.545379,86.2151017 494.420644,85.6688205 494.420644,85.6688205 L495.456262,86.4019339 C495.530684,86.4344264 495.405949,85.8881453 495.405949,85.8881453 L496.468821,86.5623659 C496.543243,86.5948584 496.391254,86.1074701 496.391254,86.1074701 L497.330439,86.5918122 C497.404861,86.6243048 497.322054,86.1298087 497.322054,86.1298087 L498.222455,86.5217502 C498.295829,86.5542427 498.21407,86.334918 498.21407,86.334918 C498.811542,86.6811668 499.530605,86.9157224 500.012776,86.9634459 L500.369163,87 L500.106066,86.764429 C499.74863,86.4455957 499.090363,86.0800545 498.426854,85.876976 C498.426854,85.876976 498.651168,85.7906676 498.576746,85.7591905 L497.677393,85.3662336 C497.677393,85.3662336 498.087238,85.1570627 498.012816,85.1245702 L497.043233,84.7021669 C497.043233,84.7021669 497.521211,84.4899499 497.446789,84.4574574 L496.220398,84.1325318 C496.220398,84.1325318 496.725629,83.8624374 496.652256,83.8289295 L495.398612,83.563912 C495.398612,83.563912 495.903843,83.2928023 495.829421,83.2603097 L494.517078,83.1090162 C494.517078,83.1090162 494.943694,82.7059054 494.869272,82.6744283 L493.659652,82.5139963 C493.659652,82.5139963 494.023377,82.1921169 493.948955,82.1596243 L492.526551,82.1007315 C492.526551,82.1007315 492.94583,81.7443288 492.872456,81.7108209 L491.526571,81.6661436 C491.526571,81.6661436 491.907066,81.2904484 491.833693,81.2579558 L490.659712,81.2874022 C490.659712,81.2874022 490.998279,80.9431842 490.923857,80.9106916 L489.755117,80.9939538 C489.755117,80.9939538 490.053854,80.6720744 489.979432,80.6395818 L488.738366,80.7350287 C488.738366,80.7350287 489.094753,80.4314264 489.020331,80.3999492 L487.872555,80.5634274 C487.872555,80.5634274 488.171291,80.3045023 488.096869,80.2730252 L487.107371,80.3694875 C487.107371,80.3694875 487.388288,80.1430549 487.358938,80.1339164 C487.320155,80.1217317 485.97427,80.1572704 485.97427,80.1572704 C485.97427,80.1572704 486.187054,79.9897307 486.112632,79.9572381 L486.078041,79.9582535 C485.512015,79.9643459 484.624192,79.7907138 484.036153,79.6627743 C484.834879,79.6312972 486.550778,79.604897 487.535036,79.8059447 L487.585349,79.8150832 C487.700651,79.7896984 487.443842,79.4871114 487.443842,79.4871114 C487.443842,79.4871114 489.356802,79.9105301 489.415501,79.9044377 C489.460574,79.8993608 489.124103,79.4921884 489.124103,79.4921884 L490.511916,79.9084993 C490.627218,79.8831145 490.273975,79.4251725 490.273975,79.4251725 L491.866187,79.9785614 C491.982537,79.9531766 491.561161,79.4231417 491.561161,79.4231417 L493.305362,79.892253 C493.420663,79.8658528 493.089433,79.3297256 493.089433,79.3297256 L494.734055,79.7622828 C494.849356,79.7358826 494.466764,79.1530473 494.466764,79.1530473 L496.135494,79.519604 C496.250796,79.4942192 495.814746,78.849445 495.814746,78.849445 L497.750766,79.1571089 C497.867116,79.1307087 497.370271,78.4991346 497.370271,78.4991346 L499.418448,78.8047677 C499.53375,78.7793829 499.083025,78.1153163 499.083025,78.1153163 L500.884876,78.3265179 C501.000178,78.3011331 500.528489,77.6939284 500.528489,77.6939284 L502.424678,77.7457134 C502.53998,77.7203286 501.898483,77.1943553 501.898483,77.1943553 L503.765322,77.1578012 C503.881672,77.1324164 503.238079,76.6064431 503.238079,76.6064431 L505.085003,76.4785037 C505.200305,76.4531189 504.579772,76.0175155 504.579772,76.0175155 L506.11014,75.7768675 C506.225442,75.7504673 505.679331,75.2478481 505.679331,75.2478481 L507.077626,74.9340918 C507.193976,74.9076916 506.899432,74.7239056 506.899432,74.7239056 C507.905702,74.6142432 508.952851,74.2720559 509.555564,73.9156532 L510,73.6516512 Z" id="Fill-30" fill="#D9341A"></path>
            </g>
        </g>
    </g>
</svg>