<?xml version="1.0" encoding="UTF-8"?>
<svg width="148px" height="148px" viewBox="0 0 148 148" version="1.1" xmlns="http://www.w3.org/2000/svg" xmlns:xlink="http://www.w3.org/1999/xlink">
    <!-- Generator: Sketch 63.1 (92452) - https://sketch.com -->
    <title>Group 20</title>
    <desc>Created with Sketch.</desc>
    <g id="Page-2" stroke="none" stroke-width="1" fill="none" fill-rule="evenodd">
        <g id="Product-Page_New_03" transform="translate(-384.000000, -8409.000000)">
            <g id="Group-20" transform="translate(386.000000, 8411.000000)">
                <rect id="Rectangle-Copy-15" stroke="#D9341A" stroke-width="3" x="1.56319402e-13" y="8.52651283e-14" width="144.295199" height="144.251686" rx="72.125843"></rect>
                <g id="Group-15" transform="translate(25.298509, 22.480782)" fill="#9B9B9B">
                    <path d="M38.3116281,46.276219 C39.1906625,46.2146507 39.9613228,46.8838708 40.0215306,47.7685797 C40.0817384,48.6519502 39.4141004,49.4175379 38.5310522,49.4791062 C38.0253064,49.5125672 37.4727323,49.5353206 36.8813576,49.5353206 C36.4853238,49.5353206 36.0692208,49.5219362 35.6410762,49.5005212 C35.1206129,51.3796911 34.2241852,53.0299878 32.9732002,54.4072426 C29.8142959,57.8858485 25.4271517,58.431932 22.9853896,58.431932 C22.224095,58.431932 21.6527895,58.3783944 21.3637919,58.3449334 C20.4847575,58.2418735 19.8559202,57.4441632 19.9589425,56.5634696 C20.0633027,55.6841145 20.8553702,55.0523708 21.7397564,55.1567691 C22.6776606,55.2691981 27.5116807,55.6466382 30.5983356,52.2483387 C31.4024447,51.3636298 31.9964953,50.3049237 32.3925291,49.113712 C30.47792,48.7576869 28.4027566,48.1420045 26.2700614,47.1020365 C20.3857491,44.2337594 17.165299,39.6509405 15.7698152,37.1748263 C15.3349808,36.4025463 15.607923,35.4241466 16.3799212,34.9878151 C17.1505815,34.5528221 18.1313002,34.8258639 18.5661346,35.5981438 C19.776981,37.7490171 22.5719624,41.7295379 27.6762488,44.2163597 C31.8198857,46.2360658 35.7440985,46.4515546 38.3116281,46.276219 M37.5423058,63.1606409 C36.146822,65.6367551 32.9277098,70.2209125 27.0420596,73.0891896 C25.5328499,73.8253317 24.0503993,74.3500002 22.6335082,74.7220866 C22.6736468,75.6389181 22.8676498,76.5289807 23.2262209,77.3775518 C24.945489,81.4490866 29.6296585,82.9695545 30.5515073,83.2332272 C31.3636441,83.4647774 31.8346032,84.3120099 31.6017995,85.1244431 C31.4104724,85.7976785 30.7976905,86.2353484 30.1327284,86.2353484 C29.9935814,86.2353484 29.8517585,86.2166102 29.7112736,86.176457 C28.5552832,85.8445239 22.6709709,83.9252008 20.4071563,78.5687634 C19.9642943,77.5207648 19.7140973,76.4272593 19.6177647,75.3069849 C18.472478,75.4568902 17.3967647,75.5211353 16.4307634,75.5211353 C15.8407266,75.5211353 15.2881525,75.4997203 14.7824067,75.4649208 C13.8980206,75.404691 13.2303826,74.6391033 13.2905904,73.7543944 C13.3507982,72.8696855 14.108079,72.2018039 15.0004929,72.2633721 C17.5653466,72.4387078 21.4922353,72.2232189 25.6372102,70.2035128 C30.7401585,67.7153526 33.53514,63.7348317 34.7459864,61.5852969 C35.1821587,60.813017 36.1615395,60.5399752 36.9321997,60.9749682 C37.704198,61.4099613 37.9771401,62.388361 37.5423058,63.1606409 M25.3856752,5.4230116 C27.7551879,5.77234447 30.6853025,6.75208263 32.9732002,9.27102691 C34.2308749,10.654974 35.1313165,12.3146397 35.6504419,14.2058556 C35.8859214,15.0597804 35.3828515,15.9431508 34.5279003,16.1773779 C34.3860774,16.2175311 34.2429165,16.2362692 34.1024316,16.2362692 C33.3986689,16.2362692 32.7524381,15.7678152 32.5557592,15.0557651 C32.171767,13.6557567 31.5134947,12.4364378 30.5983356,11.4285924 C27.5116807,8.03163137 22.6776606,8.40907148 21.7397564,8.52150045 C20.860722,8.62456034 20.0633027,7.99415505 19.9589425,7.1147999 C19.9576045,7.09873862 19.9602804,7.08535422 19.9589425,7.07063138 C18.8551322,7.35571912 17.6951279,7.88440296 16.6568773,8.83469544 C14.1428657,11.1381509 13.3454464,14.9901815 14.6887501,18.4674489 C19.8304991,16.0328263 25.8258614,16.7756606 29.9828778,20.3707107 C35.618331,25.2426327 35.1714551,33.3723179 35.1620894,33.4512859 C35.0670949,34.2690728 34.3740358,34.8713708 33.5712647,34.8713708 C33.5097189,34.8713708 33.4468352,34.8673555 33.3826135,34.8606633 C32.5102689,34.7589419 31.8814315,33.9719391 31.9737502,33.0992761 C31.9817779,32.9266174 32.1650773,26.5007664 27.8849693,22.7986411 C24.6752228,20.0240547 20.0124605,19.4726174 16.0066327,21.3919405 C15.2065375,21.7747344 14.2499019,21.4374475 13.8659097,20.6383987 C13.7441561,20.3827567 13.7026796,20.1123918 13.718735,19.8473806 C12.0409434,20.4229099 9.46137219,21.6730129 7.56683236,24.3485547 C3.43925087,30.1761229 6.56336846,37.1199502 6.6985016,37.405038 C3.11011472,38.7756006 0.555964619,41.9878569 0.0783158053,45.7488736 C-0.199978181,47.9506076 0.299077862,49.8324544 1.0122062,51.3181229 C1.15536705,50.9339906 1.44436465,50.6060727 1.84708816,50.4227064 C2.65119723,50.0546354 3.60381895,50.4079836 3.97309367,51.215063 C4.57650995,52.5361034 5.42075758,53.6363011 6.48309135,54.4835337 C10.0714782,57.3464571 14.7850826,56.2007524 15.692214,55.9424334 C16.5471652,55.6988373 17.4315514,56.1940602 17.6750586,57.0466465 C17.9172279,57.8992329 17.4221857,58.7866187 16.5699104,59.0288763 C16.025364,59.1854738 14.4211597,59.584329 12.3740934,59.584329 C10.0126084,59.584329 7.06510041,59.0516298 4.48285332,56.9931089 C4.05872258,56.6544836 3.66937859,56.2810588 3.29742798,55.8875574 C2.40367614,57.762712 0.815527279,62.1487802 2.75288157,66.8815044 C4.3557479,70.7964417 7.46113416,72.7171033 8.53015769,73.315386 C8.30939564,73.9832676 6.80018594,78.8163749 9.70621738,83.4661158 C12.997579,88.7342161 19.0143485,89.0541032 19.5187563,89.0728414 C21.4320275,95.7463038 28.0910139,99.8298845 34.5733906,98.5998581 C40.5205866,97.4702146 45.0334982,92.1137773 45.1592657,85.7735865 L45.1592657,74.0287746 C44.9117446,74.3794459 44.6588717,74.7261019 44.3698741,75.0459891 C41.2096318,78.5245949 36.8224877,79.0706785 34.3807256,79.0706785 C33.6194309,79.0706785 33.0481255,79.0171409 32.7604659,78.9836799 C31.8800935,78.88062 31.2512562,78.0829097 31.3542784,77.2022161 C31.4573007,76.3215225 32.2493682,75.6924557 33.1350924,75.7955155 C34.0743346,75.9079445 38.9070167,76.2853846 41.9936716,72.8870852 C42.9088307,71.8805782 43.567103,70.6599209 43.9524331,69.2612509 C44.1156633,68.6656451 44.595988,68.2507287 45.1592657,68.1262537 L45.1592657,24.6282887 C45.0334982,24.5506592 44.9130826,24.4609837 44.8073844,24.3445394 C41.7180535,20.9435631 36.8867094,21.326357 35.9501431,21.436109 C35.0684328,21.5378305 34.2710135,20.9114405 34.1679912,20.0320854 C34.063631,19.1513918 34.6924683,18.352343 35.5728407,18.2492831 C36.5977118,18.1261467 41.2404047,17.7768138 45.1592657,20.4510171 L45.1592657,4.79260631 C44.7779494,4.30675255 41.1333686,-0.185052444 35.1085714,0.00634449096 C31.2057658,0.130819421 27.6080132,2.17997122 25.3856752,5.4230116 Z" id="Fill-68"></path>
                    <path d="M76.611169,37.1744247 C75.2170232,39.6505389 71.997911,44.2333579 66.1122608,47.101635 C63.9795655,48.141603 61.9044022,48.7572854 59.9897931,49.1133105 C60.3871648,50.3058606 60.9798775,51.3645667 61.7826486,52.2492757 C64.8693035,55.6462366 69.7046615,55.270135 70.6425658,55.157706 C71.525614,55.0519692 72.3190195,55.683713 72.4233797,56.5630681 C72.526402,57.4437617 71.8975646,58.241472 71.0171923,58.3445319 C70.7295327,58.3793313 70.1582272,58.4315305 69.3969326,58.4315305 C66.9551705,58.4315305 62.5680263,57.8867854 59.409122,54.4068411 C58.158137,53.0309247 57.2630472,51.3792896 56.741246,49.5001197 C56.3131014,49.5228732 55.8969984,49.5349191 55.5009646,49.5349191 C54.9095899,49.5349191 54.3570124,49.5135041 53.85127,49.4787046 C52.9668838,49.4171364 52.3005838,48.6528871 52.3607916,47.7681782 C52.4196615,46.8834693 53.1809561,46.2142492 54.0693561,46.2758175 C56.6342098,46.45383 60.5624365,46.2370027 64.7074114,44.2172966 C69.8103597,41.7291364 72.6040032,37.7486155 73.8161876,35.5990807 C74.251022,34.8254623 75.2304027,34.5524206 76.001063,34.988752 C76.7730612,35.4237451 77.0460034,36.4021448 76.611169,37.1744247 M77.3818293,72.2629706 C78.2622016,72.2000639 79.0315239,72.8692839 79.0917318,73.7539929 C79.1519396,74.6387018 78.4843016,75.4042895 77.5999155,75.4645193 C77.0941697,75.4993187 76.5415955,75.5207338 75.9502208,75.5207338 C74.9855575,75.5207338 73.9098442,75.4564887 72.7645574,75.3065834 C72.6682249,76.4268577 72.4180279,77.5217018 71.9751658,78.5697004 C69.7113513,83.9261377 63.827039,85.8454608 62.6710486,86.1760555 C62.5305637,86.2162087 62.3887408,86.2349468 62.2495938,86.2349468 C61.5846317,86.2349468 60.9718498,85.7972769 60.7791847,85.12538 C60.547719,84.3116084 61.0186781,83.4643758 61.8308149,83.2328257 C62.7526637,82.969153 67.4368331,81.4500235 69.1574392,77.3784887 C69.5160103,76.5299176 69.7086754,75.639855 69.748814,74.7230235 C68.3319229,74.3495987 66.8494723,73.8249302 65.3402626,73.0887881 C59.4546124,70.220511 56.2355002,65.637692 54.8400164,63.1615778 C54.405182,62.3879595 54.6781242,61.4095597 55.4501224,60.9745667 C56.2194448,60.5395737 57.2001635,60.8126155 57.6349978,61.5848954 C58.8471822,63.7357687 61.6421636,67.7149511 66.745112,70.2031112 C70.8887489,72.2241558 74.8116238,72.4396447 77.3818293,72.2629706 M92.3040064,45.7484721 C91.8263576,41.9887938 89.2722075,38.7751991 85.6838206,37.4046364 C85.8176158,37.1195487 88.9430713,30.1757214 84.8154898,24.3481532 C82.92095,21.6726114 80.3413788,20.4225083 78.6635872,19.8483175 C78.6796426,20.1119902 78.6381661,20.3836936 78.5164125,20.6393356 C78.1337582,21.4383844 77.1744468,21.7756713 76.3756895,21.391539 C72.3685237,19.4722159 67.7070994,20.0249916 64.4986909,22.799578 C60.1797823,26.5324874 60.4045582,33.0386448 60.408572,33.1028899 C60.4768076,33.9742144 59.8372666,34.7598788 58.9675979,34.8442005 C58.9127419,34.8495543 58.8592238,34.8522311 58.8057057,34.8522311 C58.0029346,34.8522311 57.3138894,34.2659944 57.2188948,33.4508844 C57.2108671,33.3732548 56.7639912,25.2435696 62.3994444,20.3703092 C66.5564608,16.7765975 72.5518231,16.0351017 77.69491,18.4670474 C79.0368758,14.98978 78.2394564,11.1377493 75.724107,8.8342939 C74.6871943,7.88400143 73.52719,7.35531759 72.4247177,7.07022984 C72.4233797,7.08495268 72.4247177,7.09967553 72.4233797,7.11439837 C72.3190195,7.99375352 71.525614,8.62415881 70.6425658,8.52109892 C69.7046615,8.41000839 64.8706415,8.03122984 61.7826486,11.4295293 C60.8688275,12.4360362 60.2105552,13.6566936 59.826563,15.0553635 C59.629884,15.7674137 58.9836533,16.2345293 58.2798906,16.2345293 C58.1380677,16.2345293 57.9949069,16.2171295 57.853084,16.1769763 C56.9981327,15.9427493 56.4964008,15.0593788 56.7318803,14.2041156 C57.2510056,12.3142382 58.1527852,10.653234 59.409122,9.27062538 C61.6970197,6.7516811 64.6257963,5.77328138 66.996647,5.42394851 C64.7756469,2.17956969 61.1765564,0.130417889 57.2737508,0.00594295893 C51.2476157,-0.185453976 47.6030348,4.30635102 47.2230565,4.79220478 L47.2230565,20.4506156 C51.1392416,17.7777507 55.7832725,18.1270836 56.8094815,18.2488816 C57.6898539,18.3519415 58.3186912,19.1509902 58.214331,20.0316838 C58.1099707,20.9123774 57.3098755,21.537429 56.4321791,21.437046 C55.4956128,21.3259554 50.6642686,20.9445 47.5749378,24.3454763 C47.4705776,24.4605822 47.3488239,24.5502576 47.2230565,24.6278872 L47.2230565,68.1245138 C47.7863342,68.2476503 48.2666589,68.6652436 48.431227,69.2621879 C48.8152192,70.6608578 49.4734915,71.8801767 50.3873126,72.8880221 C53.4753055,76.2849831 58.3106635,75.907543 59.2458919,75.795114 C60.1249262,75.6920541 60.9236835,76.321121 61.0280437,77.2018146 C61.131066,78.0825082 60.5022287,78.8802185 59.6218563,78.9832783 C59.3341967,79.0180778 58.7615533,79.070277 58.0015966,79.070277 C55.5598345,79.070277 51.1726904,78.5255318 48.013786,75.0455876 C47.7234505,74.7270388 47.4719155,74.3790444 47.2230565,74.0297115 L47.2230565,85.7745235 C47.347486,92.1133758 51.8617356,97.4698131 57.8089316,98.5994566 C64.2913083,99.8308215 70.9502947,95.7472407 72.8635659,89.0724399 C73.3679737,89.0537017 79.3847432,88.7338145 82.6761048,83.4657143 C85.5821362,78.8173118 84.0729265,73.9828661 83.8521645,73.3149845 C84.921188,72.7180402 88.0265743,70.7973787 89.6294406,66.8811029 C91.5667949,62.1483787 89.9786461,57.7623105 89.0848942,55.8871559 C88.7129436,56.2806573 88.3222617,56.654082 87.8994689,56.9927074 C85.3185597,59.0512283 82.3697138,59.5852659 80.0082288,59.5852659 C77.9611625,59.5852659 76.3569582,59.1850723 75.8110738,59.0298132 C74.9587985,58.7862171 74.4650943,57.8988313 74.7072635,57.046245 C74.9507708,56.1936586 75.8364949,55.6970974 76.6901082,55.9420319 C77.5985775,56.2016893 82.309506,57.3460556 85.8992308,54.4831322 C86.9615646,53.6345612 87.8071502,52.5357018 88.4092285,51.2159999 C88.7771653,50.4102589 89.7324629,50.0555723 90.535234,50.4223049 C90.9366196,50.6056712 91.2269551,50.9349275 91.370116,51.3177213 C92.0819064,49.8333913 92.5823004,47.9515445 92.3040064,45.7484721" id="Fill-70"></path>
                </g>
            </g>
        </g>
    </g>
</svg>