<?xml version="1.0" encoding="UTF-8"?>
<svg width="148px" height="148px" viewBox="0 0 148 148" version="1.1" xmlns="http://www.w3.org/2000/svg" xmlns:xlink="http://www.w3.org/1999/xlink">
    <!-- Generator: Sketch 63.1 (92452) - https://sketch.com -->
    <title>Group 38</title>
    <desc>Created with Sketch.</desc>
    <g id="Page-1" stroke="none" stroke-width="1" fill="none" fill-rule="evenodd">
        <g id="Product-Detail-Page_Delta-8-Temple-Gummies-20-pc" transform="translate(-87.000000, -5810.000000)">
            <g id="Group-38" transform="translate(89.000000, 5812.000000)">
                <rect id="Rectangle-Copy-9" stroke="#D9341A" stroke-width="3" x="1.56319402e-13" y="8.52651283e-14" width="144.295199" height="144.251686" rx="72.125843"></rect>
                <g id="Group-35" transform="translate(31.000000, 14.000000)">
                    <g id="Group-13">
                        <g id="Group-4">
                            <path d="M76.447253,74.0127021 C71.1125469,65.9225661 61.1862195,68.2533975 55.0601572,67.7937139 C53.1658758,67.6611129 51.6080304,66.2481753 51.1867539,64.3770275 L48.8975258,54.1490683 L35.0626887,54.1490683 L32.7734606,64.3770275 C32.3536469,66.2481753 30.7958015,67.6611129 28.9015201,67.7937139 C22.7754577,68.2533975 12.8476676,65.9225661 7.51442429,74.0127021 C1.73503742,82.7673165 0.0206761391,105.57764 0.0206761391,105.57764 C11.4828835,105.57764 20.079539,105.57764 25.8106427,105.57764 C38.4590262,105.57764 57.4316014,105.57764 82.7283684,105.57764 C82.7283684,105.57764 82.2251771,82.7673165 76.447253,74.0127021 Z" id="Stroke-3" stroke="#3C3B46" stroke-width="2" stroke-linecap="round" stroke-linejoin="round"></path>
                            <path d="M53.0052915,68.0579028 L45.4104878,80.8389765 C44.1451543,82.9669617 41.1786969,82.9669617 39.9133633,80.837514 L32.3283684,68.0681405 C33.0682312,67.462652 33.6189246,66.59537 33.8375204,65.5832974 L36.0290837,55.4347826 L49.2947675,55.4347826 L51.4947383,65.5832974 C51.7147354,66.59537 52.2556199,67.462652 53.0052915,68.0579028" id="Fill-5" fill="#FFFFFF"></path>
                            <path d="M53.0052915,68.0579028 L45.4104878,80.8389765 C44.1451543,82.9669617 41.1786969,82.9669617 39.9133633,80.837514 L32.3283684,68.0681405 C33.0682312,67.462652 33.6189246,66.59537 33.8375204,65.5832974 L36.0290837,55.4347826 L49.2947675,55.4347826 L51.4947383,65.5832974 C51.7147354,66.59537 52.2556199,67.462652 53.0052915,68.0579028 Z" id="Stroke-7" stroke="#3C3B46" stroke-width="2" stroke-linecap="round" stroke-linejoin="round"></path>
                            <path d="M20.6020216,36.1490683 C14.7711511,28.6184619 16.3676104,16.5921663 20.7731239,8.76068447 C23.1417756,4.54988216 27.1902059,1.0803671 32.1655647,0.337626341 C38.0648761,-0.544650844 44.1739739,1.7373511 48.3979702,5.75774434 C48.3979702,5.75774434 53.5057472,1.36089345 59.537477,4.30569342 C67.2058379,8.04846731 70.4731489,30.2013282 63.0071351,35.0792891 L20.6020216,36.1490683 Z" id="Fill-9" fill="#FFFFFF"></path>
                            <path d="M20.6020216,36.1490683 C14.7711511,28.6184619 16.3676104,16.5921663 20.7731239,8.76068447 C23.1417756,4.54988216 27.1902059,1.0803671 32.1655647,0.337626341 C38.0648761,-0.544650844 44.1739739,1.7373511 48.3979702,5.75774434 C48.3979702,5.75774434 53.5057472,1.36089345 59.537477,4.30569342 C67.2058379,8.04846731 70.4731489,30.2013282 63.0071351,35.0792891 L20.6020216,36.1490683 Z" id="Stroke-11" stroke="#3C3B46" stroke-width="2" stroke-linecap="round" stroke-linejoin="round"></path>
                            <path d="M38.7899069,8.45918836 C35.6167991,7.03293027 31.9674984,8.35587285 29.7437531,10.4347826" id="Stroke-13" stroke="#3C3B46" stroke-width="2" stroke-linecap="round" stroke-linejoin="round"></path>
                            <path d="M64.6151232,35.3599556 C64.3832357,37.9802122 62.6916458,39.8470171 60.5006059,41.1871371 C60.5006059,41.1871371 59.1122535,59.2919255 42.6660758,59.2919255 C26.2213846,59.2919255 24.8330323,41.1871371 24.8330323,41.1871371 C22.6419923,39.8470171 20.9504025,37.9802122 20.7185149,35.3599556 C20.5237889,33.0644879 21.6906589,31.0133434 24.1388561,30.7061106 C24.1388561,30.7061106 32.721668,30.1282204 40.5835474,21.217007 C40.5835474,21.217007 40.3070661,24.5190278 38.0640001,27.7888623 C38.0640001,27.7888623 46.9500495,25.8869451 48.8110956,18.1490683 C48.8110956,18.1490683 52.1318441,22.7414668 50.7970043,26.9125174 C50.9382178,26.9125174 57.0104011,26.9037393 62.2635457,25.4568192 C61.9885509,27.3075309 61.5872071,29.0938701 61.1962685,30.7061106 C63.6444658,31.0133434 64.8098493,33.0644879 64.6151232,35.3599556" id="Fill-15" fill="#FFFFFF"></path>
                            <path d="M64.6151232,35.3599556 C64.3832357,37.9802122 62.6916458,39.8470171 60.5006059,41.1871371 C60.5006059,41.1871371 59.1122535,59.2919255 42.6660758,59.2919255 C26.2213846,59.2919255 24.8330323,41.1871371 24.8330323,41.1871371 C22.6419923,39.8470171 20.9504025,37.9802122 20.7185149,35.3599556 C20.5237889,33.0644879 21.6906589,31.0133434 24.1388561,30.7061106 C24.1388561,30.7061106 32.721668,30.1282204 40.5835474,21.217007 C40.5835474,21.217007 40.3070661,24.5190278 38.0640001,27.7888623 C38.0640001,27.7888623 46.9500495,25.8869451 48.8110956,18.1490683 C48.8110956,18.1490683 52.1318441,22.7414668 50.7970043,26.9125174 C50.9382178,26.9125174 57.0104011,26.9037393 62.2635457,25.4568192 C61.9885509,27.3075309 61.5872071,29.0938701 61.1962685,30.7061106 C63.6444658,31.0133434 64.8098493,33.0644879 64.6151232,35.3599556 Z" id="Stroke-17" stroke="#3C3B46" stroke-width="2" stroke-linecap="round" stroke-linejoin="round"></path>
                            <line x1="16.8206761" y1="106.863354" x2="16.8206761" y2="92.7204969" id="Stroke-19" stroke="#3C3B46" stroke-width="2" stroke-linecap="round" stroke-linejoin="round"></line>
                            <path d="M41.4670429,36.1490683 C41.1426541,37.651741 41.6007195,39.3525061 43.9765999,41.1947658 C45.9211501,42.7016834 45.7981676,43.3893471 42.5115034,43.863354" id="Stroke-21" stroke="#3C3B46" stroke-width="2" stroke-linecap="round" stroke-linejoin="round"></path>
                            <path d="M33.6206761,38.7204969 C32.1927915,38.7204969 31.0360608,37.5696678 31.0360608,36.1490683 C31.0360608,34.7284688 32.1927915,33.5776398 33.6206761,33.5776398 C35.0485608,33.5776398 36.2052915,34.7284688 36.2052915,36.1490683" id="Stroke-23" stroke="#3C3B46" stroke-width="2" stroke-linecap="round" stroke-linejoin="round"></path>
                            <path d="M33.76283,37.4347826 C33.76283,37.5119255 33.6982146,37.5762112 33.6206761,37.5762112 C33.5405531,37.5762112 33.4785223,37.5119255 33.4785223,37.4347826 C33.4785223,37.3550683 33.5405531,37.293354 33.6206761,37.293354 C33.6982146,37.293354 33.76283,37.3550683 33.76283,37.4347826 Z" id="Stroke-25" stroke="#3C3B46" stroke-width="2" stroke-linecap="round" stroke-linejoin="round"></path>
                            <path d="M50.4206761,36.1490683 C50.4206761,34.7284688 51.5774069,33.5776398 53.0052915,33.5776398 C54.4331761,33.5776398 55.5899069,34.7284688 55.5899069,36.1490683 C55.5899069,37.5696678 54.4331761,38.7204969 53.0052915,38.7204969" id="Stroke-27" stroke="#3C3B46" stroke-width="2" stroke-linecap="round" stroke-linejoin="round"></path>
                            <path d="M51.7129838,37.5762112 C51.6354454,37.5762112 51.57083,37.5119255 51.57083,37.4347826 C51.57083,37.3550683 51.6354454,37.293354 51.7129838,37.293354 C51.7931069,37.293354 51.8551377,37.3550683 51.8551377,37.4347826 C51.8551377,37.5119255 51.7931069,37.5762112 51.7129838,37.5762112 Z" id="Stroke-29" stroke="#3C3B46" stroke-width="2" stroke-linecap="round" stroke-linejoin="round"></path>
                            <path d="M13.052576,32.6751649 C11.918409,32.4824656 8.65319363,31.4945223 7.88720188,33.7306968 C7.08532864,36.0718493 10.7733215,36.8699694 12.3099852,38.4633337 C14.3177885,40.5441983 14.3645904,42.1418767 12.6594397,44.3147768 C11.0806543,46.3237387 9.80452136,49.5075911 11.3365049,50.9125702 C13.5907983,52.9819304 17.0120201,51.6661106 18.5939257,53.4967538 C20.62669,55.8537249 18.1134258,59.0246348 18.8060945,61.863354" id="Stroke-31" stroke="#3C3B46" stroke-width="2" stroke-linecap="round" stroke-linejoin="round"></path>
                            <path d="M50.4206761,50.9347826 C50.4206761,52.7102928 48.6843236,54.1490683 46.5429772,54.1490683 C44.4031826,54.1490683 42.66683,52.7102928 42.66683,50.9347826 C42.66683,49.1592724 44.4031826,47.7204969 46.5429772,47.7204969 C48.6843236,47.7204969 50.4206761,49.1592724 50.4206761,50.9347826" id="Fill-33" fill="#FFFFFF"></path>
                            <path d="M50.4206761,50.9347826 C50.4206761,52.7102928 48.6843236,54.1490683 46.5429772,54.1490683 C44.4031826,54.1490683 42.66683,52.7102928 42.66683,50.9347826 C42.66683,49.1592724 44.4031826,47.7204969 46.5429772,47.7204969 C48.6843236,47.7204969 50.4206761,49.1592724 50.4206761,50.9347826 Z" id="Stroke-35" stroke="#3C3B46" stroke-width="2" stroke-linecap="round" stroke-linejoin="round"></path>
                            <path d="M54.355083,65.5792038 C55.584925,63.3068603 55.6609829,62.0408191 55.3122646,59.9569718 C54.957806,57.8375031 52.5196478,52.6397585 51.0386711,52.7228749 C49.8203095,52.7926333 49.1917555,53.9518105 49.727031,55.7462346 C50.3010529,57.6712703 50.6052846,58.4029916 50.8449387,59.2579033 C48.837297,59.2029871 46.4005738,56.8534641 45.4993593,54.570731 C44.6684625,52.4675888 44.367101,50.2828143 44.3484453,49.8316109 C44.3025235,48.6620442 44.5407427,46.2264363 42.7282683,46.4490695 C42.2288692,46.5099226 41.8327941,47.0338529 41.5902698,47.8961858 C39.7605749,47.9971128 38.9454637,49.2943227 38.7488612,51.0857783 C37.227703,51.5562766 36.521656,52.8267704 36.3494494,54.4134035 C36.0050362,54.9224916 35.6821489,55.4909485 35.4080534,56.1811116 C33.1349265,61.9027865 39.1865529,69.1695363 43.4644515,72.5817621 C47.7423501,75.9939879 48.1255097,79.863354 48.1255097,79.863354 L56.8822146,72.4882561 C56.7774556,72.3620973 52.7966134,68.4571098 54.355083,65.5792038" id="Fill-37" fill="#FFFFFF"></path>
                            <path d="M54.355083,65.5792038 C55.584925,63.3068603 55.6609829,62.0408191 55.3122646,59.9569718 C54.957806,57.8375031 52.5196478,52.6397585 51.0386711,52.7228749 C49.8203095,52.7926333 49.1917555,53.9518105 49.727031,55.7462346 C50.3010529,57.6712703 50.6052846,58.4029916 50.8449387,59.2579033 C48.837297,59.2029871 46.4005738,56.8534641 45.4993593,54.570731 C44.6684625,52.4675888 44.367101,50.2828143 44.3484453,49.8316109 C44.3025235,48.6620442 44.5407427,46.2264363 42.7282683,46.4490695 C42.2288692,46.5099226 41.8327941,47.0338529 41.5902698,47.8961858 C39.7605749,47.9971128 38.9454637,49.2943227 38.7488612,51.0857783 C37.227703,51.5562766 36.521656,52.8267704 36.3494494,54.4134035 C36.0050362,54.9224916 35.6821489,55.4909485 35.4080534,56.1811116 C33.1349265,61.9027865 39.1865529,69.1695363 43.4644515,72.5817621 C47.7423501,75.9939879 48.1255097,79.863354 48.1255097,79.863354 L56.8822146,72.4882561 C56.7774556,72.3620973 52.7966134,68.4571098 54.355083,65.5792038 Z" id="Stroke-39" stroke="#3C3B46" stroke-width="2" stroke-linecap="round" stroke-linejoin="round"></path>
                            <path d="M46.5437531,56.2187405 C45.6603386,54.025837 45.3937689,51.5912545 45.3770278,51.1138273 C45.3358189,49.9454649 45.548302,47.5123651 43.9231284,47.7347691 C42.2515948,47.9631039 41.8163264,54.4632315 45.35256,61.863354" id="Stroke-41" stroke="#3C3B46" stroke-width="2" stroke-linecap="round" stroke-linejoin="round"></path>
                            <g id="Group-46" transform="translate(36.205292, 50.291925)">
                                <path d="M2.92846029,12.5722989 C0.457770676,8.91124445 -1.44539419,1.80858252 3.12742011,0.511991275" id="Fill-43" fill="#FFFFFF"></path>
                                <path d="M2.92846029,12.5722989 C0.457770676,8.91124445 -1.44539419,1.80858252 3.12742011,0.511991275" id="Stroke-45" stroke="#3C3B46" stroke-width="2" stroke-linecap="round" stroke-linejoin="round"></path>
                            </g>
                            <path d="M42.66683,61.863354 C40.7492339,58.3903592 37.9751369,48.0121801 42.6426853,47.7204969" id="Stroke-47" stroke="#3C3B46" stroke-width="2" stroke-linecap="round" stroke-linejoin="round"></path>
                            <g id="Group-52" transform="translate(43.959138, 67.006211)" stroke="#3C3B46" stroke-linecap="round" stroke-linejoin="round" stroke-width="2">
                                <path d="M8.57254604,38.9636621 C8.57254604,38.9636621 -1.23649943,12.114548 0.723874548,10.1402847 C2.68424852,8.16602138 17.3870533,0.466972533 17.3870533,0.466972533 L27.9724987,23.5641191" id="Stroke-51"></path>
                            </g>
                        </g>
                    </g>
                </g>
            </g>
        </g>
    </g>
</svg>