<?xml version="1.0" encoding="UTF-8"?>
<svg width="148px" height="148px" viewBox="0 0 148 148" version="1.1" xmlns="http://www.w3.org/2000/svg" xmlns:xlink="http://www.w3.org/1999/xlink">
    <!-- Generator: Sketch 63.1 (92452) - https://sketch.com -->
    <title>Group 37</title>
    <desc>Created with Sketch.</desc>
    <defs>
        <polygon id="path-1" points="0.125178244 0.13955025 83.3578676 0.13955025 83.3578676 76.9912227 0.125178244 76.9912227"></polygon>
        <polygon id="path-3" points="0.0738619795 0.0910046786 18.6847712 0.0910046786 18.6847712 28.9452654 0.0738619795 28.9452654"></polygon>
        <polygon id="path-5" points="3.17921154e-05 0.0910046786 18.6108102 0.0910046786 18.6108102 28.9452355 3.17921154e-05 28.9452355"></polygon>
    </defs>
    <g id="Page-1" stroke="none" stroke-width="1" fill="none" fill-rule="evenodd">
        <g id="Product-Detail-Page_Delta-8-Temple-Gummies-20-pc" transform="translate(-363.000000, -5537.000000)">
            <g id="Group-37" transform="translate(365.000000, 5539.000000)">
                <rect id="Rectangle-Copy-3" stroke="#D9341A" stroke-width="3" x="2.13162821e-13" y="8.52651283e-14" width="144.295199" height="144.251686" rx="72.125843"></rect>
                <g id="Group-34" transform="translate(25.298509, 26.227579)">
                    <g id="Group-30">
                        <path d="M49.6600361,58.811315 L48.9425272,58.0753541 C46.8615368,59.3221654 44.8867022,59.321325 42.9002257,58.0817172 L42.1641816,58.8049518 C43.3847434,59.568046 44.6259848,59.9487526 45.8797873,59.9487526 C47.1303729,59.9487526 48.3933663,59.5698469 49.6600361,58.811315" id="Fill-1" fill="#000000"></path>
                        <path d="M39.3532362,67.5574526 L39.812951,68.379046 C43.8610971,67.0769351 47.9632733,67.0769351 52.0112668,68.379046 L52.4709816,67.5574526 C48.1206326,66.1550457 43.7060272,66.1550457 39.3532362,67.5574526" id="Fill-3" fill="#000000"></path>
                        <g id="Group-7" transform="translate(3.747927, 14.987188)">
                            <mask id="mask-2" fill="white">
                                <use xlink:href="#path-1"></use>
                            </mask>
                            <g id="Clip-6"></g>
                            <path d="M63.9744111,22.8439105 C63.940253,22.8554738 63.8987052,22.8562057 63.8664723,22.8704037 C63.0764721,23.2202307 62.5314709,24.2984006 62.6593673,25.8146593 C60.0428888,22.3090704 55.3657264,21.0109047 51.5382986,21.0109047 C45.0479651,21.0109047 38.5543788,23.8282565 32.4248165,26.8319388 L32.4248165,21.0141248 L31.8580804,21.0109047 C27.3815601,20.9563082 23.6351579,22.7827274 20.7214867,26.334716 C21.0328737,24.5532328 20.4897947,23.2575554 19.6156638,22.8704037 C19.5878666,22.8582549 19.5516417,22.8579622 19.522366,22.8474234 C19.5957031,19.5823223 20.424294,15.6660159 22.5920264,13.9299077 L21.8805382,13.048168 L18.9464627,15.3341925 C19.3050161,9.75349985 22.218983,5.79635592 27.2416873,4.12640752 C32.9492655,2.23046207 37.8195292,1.26821816 41.7165977,1.26821816 C57.563178,1.26821816 60.9414161,10.0763946 60.973649,10.165681 L61.1095296,10.5403911 L61.5102222,10.5403911 C62.1995318,10.5403911 62.8008665,10.7751704 63.2484298,11.2195532 C63.7183196,11.6845744 63.975443,12.3404635 63.9744111,13.0669035 L63.9744111,22.8439105 Z M64.1775636,33.7667109 C64.1508015,33.7788597 64.1179772,33.7790061 64.0923979,33.7926186 C63.376474,34.1684997 62.9289107,35.128548 63.4533597,36.2209159 L66.0096604,41.9604213 C65.3889565,43.486926 64.3122614,44.4762485 63.0146678,44.7902146 C63.5351247,43.2642954 63.9952558,41.677925 64.3708128,40.0204181 C64.4386791,39.7162589 64.2460214,39.4141488 63.9387744,39.3457935 C63.6337453,39.2796337 63.3275333,39.4703553 63.2573012,39.77349 C60.0930123,53.7468114 51.4458879,63.134764 41.7409941,63.134764 C32.0372832,63.134764 23.3903066,53.7468114 20.2258699,39.7745146 C20.1568206,39.4715263 19.8584451,39.2873914 19.5443967,39.3469645 C19.2371497,39.4151734 19.0444919,39.7172835 19.1123583,40.0214427 C19.4917596,41.696075 19.9566221,43.2991318 20.4837326,44.8389562 C19.6119673,44.6372568 18.8506513,44.120713 18.2528653,43.3061576 C17.9559683,42.9027587 17.710082,42.4197339 17.5041171,41.8892849 L20.0221228,36.2352603 C20.5544082,35.128548 20.1056621,34.1684997 19.3897382,33.7914476 C19.3646025,33.7782742 19.3320739,33.7779815 19.3059032,33.7661254 L20.9395759,30.0218051 C21.1792522,29.4711569 21.20838,28.5762437 21.009808,27.7998911 C23.6913436,24.1346113 27.056866,22.2729167 31.2846907,22.1461593 L31.2846907,28.656016 L32.1097331,28.248226 C38.3572853,25.1575992 45.004643,22.1395726 51.5382986,22.1395726 C55.4917006,22.1395726 60.4045471,23.6182139 62.4936195,27.7164596 C62.2709468,28.5111085 62.2953432,29.4519823 62.5435952,30.0218051 L64.1775636,33.7667109 Z M69.2110615,49.1479764 L62.351381,46.581212 C62.4225003,46.399419 62.4939152,46.2177724 62.5631124,46.0337839 C64.2430643,45.8964878 65.6824527,44.9254616 66.6166136,43.323283 L69.2110615,49.1479764 Z M70.797272,62.0542522 L69.1329929,60.2875524 C66.9584592,57.9794258 66.3682138,54.6143532 67.6298781,51.7153263 L66.5831979,51.2677233 C66.1198139,52.3319879 65.8980283,53.4505562 65.8615076,54.5666362 L60.716082,50.2482483 C61.1476767,49.4052969 61.5616765,48.5398043 61.9435913,47.635377 L69.4041628,50.4268211 L70.797272,62.0542522 Z M17.621072,54.5669289 C17.5846992,53.450849 17.3632093,52.3319879 16.8999732,51.2677233 L15.853293,51.7153263 C17.1149573,54.6131822 16.5247119,57.9784012 14.3501782,60.2875524 L12.6856034,62.0545449 L14.0781212,50.4268211 L21.5392841,47.6356697 C21.921051,48.5398043 22.3350508,49.4050041 22.7663498,50.2479555 L17.621072,54.5669289 Z M16.892876,43.2615144 C17.0305309,43.5087353 17.171143,43.7525896 17.3309765,43.9698044 C18.247986,45.2202531 19.4870281,45.9026353 20.9141445,46.0194395 C20.9851159,46.208551 21.058453,46.3944424 21.1314943,46.581212 L14.2712225,49.1481228 L16.892876,43.2615144 Z M80.6905357,47.3238992 C80.4756994,45.8446724 79.8654933,44.4228231 78.9268967,43.2102845 C73.9297716,36.7610254 69.8845504,30.7327298 65.8070962,23.6606615 C65.6026099,23.3144938 65.3613072,23.1161609 65.1145338,22.9750591 L65.1145338,13.0679281 C65.1167516,12.0406954 64.7404554,11.1014317 64.0557294,10.4225624 C63.4867754,9.85698425 62.7318173,9.51198746 61.8989384,9.43045873 C61.0916389,7.65922149 56.7748042,0.13955025 41.7165977,0.13955025 C37.6959207,0.13955025 32.7042664,1.12052967 26.8786982,3.0571663 C21.0041894,5.00931827 17.7684855,9.79316643 17.7684855,16.5256536 L17.7684855,17.6875478 L19.6146288,16.2501832 C18.5793336,18.7379071 18.395843,21.5900953 18.3724816,22.9750591 C18.1231946,23.1168927 17.8790826,23.3166893 17.6704563,23.6662236 C13.5975857,30.7305342 9.55354731,36.7588299 4.55627442,43.2102845 C3.61767781,44.4216521 3.00761959,45.8436478 2.79160042,47.3238992 L0.497746004,63.058651 C-0.00437656895,66.5043741 0.0012419993,69.9995707 0.513418853,73.4463184 L1.0400857,76.980157 L2.1691222,76.814904 L1.64245536,73.2810654 C1.14462064,69.9433642 1.14033278,66.5583851 1.62678251,63.2196592 L3.92048907,47.4849074 C4.10871111,46.1962559 4.64099652,44.9563459 5.46042034,43.8980825 C10.4909611,37.4035948 14.5617616,31.3368035 18.6569586,24.2316554 C18.7549878,24.0706471 18.9476456,23.8127411 19.1503576,23.9010029 C19.4920553,24.0522043 19.8704215,24.9172578 19.5803259,26.3088083 C19.150949,26.3143704 18.5926408,26.5728618 18.0012125,27.5560368 L5.97939862,46.6075588 L6.94579236,47.2048994 L18.9744077,28.1435706 C19.3617932,27.4998303 19.5923024,27.4380617 19.5890495,27.4336705 C19.6178816,27.4458193 19.7203466,27.5384723 19.8228115,27.7908161 C20.0444492,28.3363414 20.0756471,29.1532388 19.8930436,29.5742022 L18.0795768,33.73085 C17.6939656,33.8700489 17.3160429,34.142592 17.0203288,34.6390829 L8.55920859,48.3544984 L9.5322559,48.9432032 L17.9978118,35.22003 C18.241776,34.81224 18.5768201,34.6436204 18.8552349,34.788967 C19.0935805,34.9135288 19.2282783,35.2596966 18.986532,35.7645307 L13.1398203,48.8924124 L11.0466079,66.1615729 C10.8372423,67.9052923 9.34196386,69.2202907 7.56827058,69.2202907 L7.56827058,70.3489586 C8.21218807,70.3489586 8.82283773,70.2081496 9.38380741,69.970882 L10.577901,76.9912812 L11.7025018,76.8037798 L10.4343318,69.3476336 C11.370267,68.6153388 12.0285266,67.5437556 12.1778623,66.2938924 L12.4587907,63.9487339 L15.183057,61.0570255 C16.4980977,59.661523 17.2889851,57.9257076 17.5441864,56.1123155 L23.3172652,51.2661132 C25.3778012,54.9998948 27.9138455,58.0692977 30.7770975,60.2787702 L30.5031183,70.7028841 L31.6430963,70.7315728 L31.8971147,61.0710772 C34.9267058,63.1191023 38.2632482,64.2634319 41.7409941,64.2634319 C45.2188879,64.2634319 48.5558738,63.1188095 51.5859086,61.070199 L51.838892,70.7315728 L52.9791656,70.7028841 L52.7062215,60.2780383 C55.5690299,58.0681268 58.1047784,54.9996021 60.1653144,51.266406 L65.9379497,56.1111445 C66.1928553,57.9254149 66.9841863,59.661523 68.3001141,61.0570255 L71.0243804,63.9487339 L71.3054567,66.2938924 C71.4546445,67.5434629 72.1124605,68.6146069 73.0479521,69.3467554 L71.7797821,76.8037798 L72.9042351,76.9912812 L74.0983287,69.9704428 C74.6595941,70.2078568 75.2706873,70.3489586 75.9149005,70.3489586 L75.9149005,69.2202907 C74.1412072,69.2202907 72.6459288,67.9052923 72.4365632,66.1615729 L70.3868208,49.0544452 L64.4898377,35.7501863 C64.2548928,35.2596966 64.3897385,34.9135288 64.6269012,34.788967 C64.906351,34.6414249 65.2437608,34.811069 65.489795,35.2277877 L73.9509152,48.9432032 L74.9239625,48.3544984 L66.4674259,34.6468406 C66.169346,34.1458122 65.7900927,33.870488 65.4034465,33.7301181 L63.5902753,29.5742022 C63.406489,29.1532388 63.4376869,28.3363414 63.6593246,27.7908161 C63.7628245,27.5362767 63.8664723,27.4447947 63.8763788,27.4358661 C63.8785966,27.4358661 64.1101408,27.4810948 64.5155648,28.1533775 L76.5373787,47.2048994 L77.5037725,46.6075588 L65.48876,27.5659901 C64.8930439,26.5778385 64.3329614,26.3171514 63.9022537,26.3110039 C63.611271,24.9179897 63.9897851,24.0522043 64.3317785,23.9010029 C64.5355255,23.8073254 64.7281833,24.0696225 64.8205939,24.2260933 C68.9214095,31.3378281 72.9933929,37.4057903 78.0227508,43.8980825 C78.8421746,44.9563459 79.37446,46.1962559 79.5614992,47.4849074 L81.8563886,63.2196592 C82.3429862,66.5594097 82.3373676,69.9445351 81.8396807,73.2810654 L81.3130139,76.814904 L82.4420504,76.980157 L82.9687172,73.4463184 C83.4819291,70.0007417 83.4875477,66.5065697 82.9854251,63.058651 L80.6905357,47.3238992 Z" id="Fill-5" fill="#000000" mask="url(#mask-2)"></path>
                        </g>
                        <path d="M30.9203999,50.3642377 L30.9460954,51.5184593 C34.5349593,51.4283489 37.363745,50.1004926 39.3532362,47.572162 L38.5108185,46.834963 C36.7320027,49.0950579 34.1779185,50.2819109 30.9203999,50.3642377" id="Fill-8" fill="#000000"></path>
                        <path d="M37.9062632,50.2696026 C38.4053278,51.1651841 38.1075771,52.3131745 37.2448034,52.8291708 C36.3820298,53.3501893 35.2719902,53.0354073 34.7741761,52.1435519 L33.7313453,52.7682557 C34.2880844,53.7686566 35.3038753,54.3285571 36.3467061,54.3285571 C36.8574931,54.3285571 37.3742195,54.1944143 37.8474946,53.9113859 C39.2857633,53.0512841 39.7801388,51.1369947 38.9514385,49.6450608 L37.9062632,50.2696026 Z" id="Fill-10" fill="#000000"></path>
                        <path d="M52.4709816,47.5721384 C54.4606148,50.1003882 57.2892585,51.4282021 60.8782643,51.5184593 L60.9038179,50.3641249 C57.6464413,50.2819504 55.092357,49.0949857 53.3133992,46.834963 L52.4709816,47.5721384 Z" id="Fill-12" fill="#000000"></path>
                        <path d="M54.775374,53.7436225 C54.3396443,53.5527845 53.9910905,53.1667632 53.7940426,52.6596123 C53.5981972,52.1524613 53.5779062,51.5837498 53.7363261,51.0588549 L52.6475277,50.58176 C52.3826929,51.4570073 52.4166615,52.4046788 52.7437219,53.2500511 C53.0707823,54.0954234 53.6514046,54.7361971 54.3793244,55.055226 C54.7051823,55.198445 55.0379542,55.2652563 55.366217,55.2652563 C56.5501575,55.2652563 57.6651088,54.3843962 58.0928725,52.9677775 L57.004074,52.4905016 C56.6758112,53.5759603 55.6820046,54.1376105 54.775374,53.7436225" id="Fill-14" fill="#000000"></path>
                        <g id="Group-18" transform="translate(73.084581, 0.000000)">
                            <mask id="mask-4" fill="white">
                                <use xlink:href="#path-3"></use>
                            </mask>
                            <g id="Clip-17"></g>
                            <path d="M12.9567123,20.4993427 L7.37286855,14.8860903 C7.24779567,14.7599111 7.06920126,14.6977944 6.90451961,14.7350644 C6.73458518,14.7654492 6.58821726,14.8781573 6.50899971,15.0405588 L1.87349514,24.5414173 L4.77828073,8.53342489 L9.0534732,13.193074 C9.19245884,13.3429024 9.39561353,13.4005287 9.58797874,13.3497876 C9.78048591,13.2957536 9.9291253,13.1355974 9.97725209,12.932633 L12.6477922,1.76809518 L17.505759,6.65660308 L12.9567123,20.4993427 Z M18.5159958,6.07839407 L12.7247383,0.249753958 C12.5836232,0.107858506 12.3814622,0.0581651614 12.1944918,0.112348868 C12.0073794,0.169825507 11.862999,0.326539156 11.8160079,0.526060927 L9.1561153,11.6455454 L4.8316603,6.93171261 C4.68955139,6.77724415 4.47773671,6.71752233 4.28210627,6.77948933 C4.08548205,6.84145633 3.9388302,7.0128385 3.90049913,7.22463392 L0.0837179054,28.2598864 C0.0324678395,28.5417315 0.185366236,28.820134 0.442894267,28.9136832 C0.501810548,28.9350872 0.56157863,28.9452654 0.62148868,28.9452654 C0.8215201,28.9452654 1.0117558,28.8291147 1.10800939,28.6318381 L7.14728308,16.2544534 L12.8177267,21.9545195 C12.9524533,22.0875839 13.142831,22.138325 13.3245486,22.097762 C13.5051306,22.0515113 13.6517824,21.9106636 13.7125443,21.7256607 L18.6549814,6.68489236 C18.7245452,6.47070207 18.6698879,6.23391029 18.5159958,6.07839407 L18.5159958,6.07839407 Z" id="Fill-16" fill="#D9341A" mask="url(#mask-4)"></path>
                        </g>
                        <g id="Group-21">
                            <mask id="mask-6" fill="white">
                                <use xlink:href="#path-5"></use>
                            </mask>
                            <g id="Clip-20"></g>
                            <path d="M12.1757663,15.0405288 C12.0965488,14.8782771 11.9501809,14.765569 11.7801045,14.7350345 C11.7501495,14.7293467 11.7192007,14.7271015 11.6892456,14.7271015 C11.55026,14.7271015 11.4145396,14.7835304 11.3118975,14.8860604 L5.72805376,20.4993128 L1.17914902,6.65657314 L6.03697383,1.76821492 L8.70765593,12.932603 C8.75578272,13.1355674 8.90428014,13.2957237 9.09678732,13.3497577 C9.28602925,13.3993014 9.49230722,13.3430222 9.63129285,13.1930441 L13.9076211,8.53339496 L16.8112709,24.5413873 L12.1757663,15.0405288 Z M14.4036536,6.77945939 C14.2080231,6.71749239 13.9963504,6.77721421 13.8542415,6.93168268 L9.52865075,11.6455155 L6.86875814,0.526030991 C6.82176708,0.32650922 6.6773867,0.169795571 6.49027427,0.112318932 C6.30103234,0.0581352256 6.10114288,0.10782857 5.96002774,0.249873701 L0.1687703,6.07851382 C0.0147361685,6.23403004 -0.0396371701,6.47067214 0.0297846643,6.68486242 L4.97222177,21.7257804 C5.03312558,21.9106337 5.17963547,22.0514814 5.36021742,22.0977321 C5.54094133,22.1382951 5.73231277,22.087554 5.8670394,21.9544896 L11.537483,16.2544235 L17.5767567,28.6319578 C17.6730103,28.8292344 17.8633879,28.9452355 18.0632774,28.9452355 C18.1231874,28.9452355 18.1829555,28.9350573 18.2417298,28.9136532 C18.4993998,28.820104 18.6522982,28.5417016 18.6009062,28.2598565 L14.7854027,7.22475367 C14.7469296,7.01280856 14.6004197,6.84157607 14.4036536,6.77945939 L14.4036536,6.77945939 Z" id="Fill-19" fill="#D9341A" mask="url(#mask-6)"></path>
                        </g>
                    </g>
                </g>
            </g>
        </g>
    </g>
</svg>