<?xml version="1.0" encoding="UTF-8"?>
<svg width="116px" height="116px" viewBox="0 0 116 116" version="1.1" xmlns="http://www.w3.org/2000/svg" xmlns:xlink="http://www.w3.org/1999/xlink">
    <!-- Generator: Sketch 63.1 (92452) - https://sketch.com -->
    <title>Group 53</title>
    <desc>Created with Sketch.</desc>
    <g id="Page-1" stroke="none" stroke-width="1" fill="none" fill-rule="evenodd">
        <g id="Product-Detail-Page_Delta-8-Temple-Gummies-10-pc-(25mg/each)_Desktop.pdf" transform="translate(-876.000000, -1905.000000)">
            <g id="Group-53" transform="translate(877.000000, 1906.000000)">
                <g id="Group-48">
                    <g id="Group-43" transform="translate(42.000000, 9.000000)" fill="#D9341A">
                        <path d="M13.78479,5.1427508 C7.51174597,15.0525473 0,26.9178148 0,38.8058935 C0,44.3817181 1.90374278,49.4313512 4.98019112,53.085411 C8.05494724,56.7393005 12.3057934,59 17,59 C21.6942066,59 25.9433605,56.7393005 29.0198089,53.085411 C32.0962572,49.4306703 34,44.3817181 34,38.8058935 C34,26.9813118 26.181963,14.5944492 19.8564603,4.57195823 C19.1152698,3.39785852 18.396078,2.25678409 17.604121,0.977820609 L16.9983078,0 L16.395879,0.977820609 C15.5159267,2.40710018 14.66305,3.75500818 13.78479,5.1427508 Z M0.918918919,38.6853897 C0.918918919,27.3448229 8.32294332,15.7047055 14.5040501,5.98297544 C15.2135811,4.86708989 15.9077617,3.77562609 16.5422461,2.765625 C17.0556328,3.58400938 17.6287155,4.4872721 18.2137375,5.40983312 C24.4528348,15.2483777 32.1621622,27.4074997 32.1621622,38.6853897 C32.1621622,43.7857757 30.4139187,48.403875 27.5860282,51.7460666 C24.7598434,55.0885998 20.8540116,57.15625 16.5405405,57.15625 C12.2270695,57.15625 8.32123771,55.0885998 5.49505286,51.7460666 C2.66716241,48.403875 0.918918919,43.7857757 0.918918919,38.6853897 L0.918918919,38.6853897 Z" id="Fill-38"></path>
                        <path d="M13.7580918,45.3528582 C12.0859195,33.0930271 10.9850461,32.8324259 12.6106799,19.8011529 C13.8768449,9.66101712 10.3110419,18.1615581 8.51209269,21.8776736 C4.24500442,30.6926976 1.43504896,42.4076665 7.47861964,51.0836686 C11.8147131,57.3063229 14.5668968,52.5080817 13.9009165,46.6049187 L13.7580918,45.3528582" id="Fill-39"></path>
                    </g>
                    <rect id="Rectangle-Copy-6" stroke="#000000" stroke-width="2" x="0" y="0" width="114" height="114" rx="14"></rect>
                    <text id="100%-PURE" font-family="Roboto-Regular, Roboto" font-size="16" font-weight="normal" fill="#4A4A4A">
                        <tspan x="39" y="87">100%</tspan>
                        <tspan x="39" y="106">PURE</tspan>
                    </text>
                </g>
            </g>
        </g>
    </g>
</svg>