<?xml version="1.0" encoding="UTF-8"?>
<svg width="1440px" height="25px" viewBox="0 0 1440 25" version="1.1" xmlns="http://www.w3.org/2000/svg" xmlns:xlink="http://www.w3.org/1999/xlink">
    <!-- Generator: Sketch 63.1 (92452) - https://sketch.com -->
    <title>Group 140</title>
    <desc>Created with Sketch.</desc>
    <g id="Page-2" stroke="none" stroke-width="1" fill="none" fill-rule="evenodd">
        <g id="1-copy-4" transform="translate(0.000000, -769.000000)">
            <g id="Group-140" transform="translate(-67.000000, 769.000000)">
                <polygon id="Fill-1" fill="#203162" points="506.819 25 521.299 25 521.299 0 506.819 0"></polygon>
                <polygon id="Fill-2" fill="#B0882D" points="519.983 25 534.463 25 534.463 0 519.983 0"></polygon>
                <polygon id="Fill-3" fill="#203162" points="534.464 25 548.945 25 548.945 0 534.464 0"></polygon>
                <polygon id="Fill-4" fill="#B0882D" points="548.945 25 563.425 25 563.425 0 548.945 0"></polygon>
                <polygon id="Fill-5" fill="#203162" points="563.425 25 577.905 25 577.905 0 563.425 0"></polygon>
                <polygon id="Fill-6" fill="#B0882D" points="576.589 25 591.069 25 591.069 0 576.589 0"></polygon>
                <polygon id="Fill-7" fill="#203162" points="591.069 25 605.55 25 605.55 0 591.069 0"></polygon>
                <polygon id="Fill-8" fill="#B0882D" points="605.55 25 620.03 25 620.03 0 605.55 0"></polygon>
                <polygon id="Fill-9" fill="#B0882D" points="633.194 25 647.674 25 647.674 0 633.194 0"></polygon>
                <polygon id="Fill-10" fill="#203162" points="647.675 25 662.156 25 662.156 0 647.675 0"></polygon>
                <polygon id="Fill-11" fill="#203162" points="620.03 25 634.51 25 634.51 0 620.03 0"></polygon>
                <polygon id="Fill-12" fill="#B0882D" points="662.156 25 676.637 25 676.637 0 662.156 0"></polygon>
                <polygon id="Fill-13" fill="#203162" points="676.637 25 691.117 25 691.117 0 676.637 0"></polygon>
                <polygon id="Fill-14" fill="#203162" points="566.057 25 580.538 25 580.538 0 566.057 0"></polygon>
                <polygon id="Fill-15" fill="#B0882D" points="579.221 25 593.702 25 593.702 0 579.221 0"></polygon>
                <polygon id="Fill-16" fill="#203162" points="593.702 25 608.182 25 608.182 0 593.702 0"></polygon>
                <polygon id="Fill-17" fill="#B0882D" points="608.183 25 622.663 25 622.663 0 608.183 0"></polygon>
                <polygon id="Fill-18" fill="#203162" points="622.663 25 637.144 25 637.144 0 622.663 0"></polygon>
                <polygon id="Fill-19" fill="#B0882D" points="635.827 25 650.307 25 650.307 0 635.827 0"></polygon>
                <polygon id="Fill-20" fill="#203162" points="650.307 25 664.788 25 664.788 0 650.307 0"></polygon>
                <polygon id="Fill-21" fill="#B0882D" points="664.788 25 679.268 25 679.268 0 664.788 0"></polygon>
                <polygon id="Fill-22" fill="#203162" points="679.268 25 693.75 25 693.75 0 679.268 0"></polygon>
                <polygon id="Fill-23" fill="#203162" points="337.002 25 351.483 25 351.483 0 337.002 0"></polygon>
                <polygon id="Fill-24" fill="#B0882D" points="351.483 25 365.963 25 365.963 0 351.483 0"></polygon>
                <polygon id="Fill-25" fill="#203162" points="364.646 25 379.127 25 379.127 0 364.646 0"></polygon>
                <polygon id="Fill-26" fill="#B0882D" points="379.127 25 393.607 25 393.607 0 379.127 0"></polygon>
                <polygon id="Fill-27" fill="#203162" points="393.607 25 408.088 25 408.088 0 393.607 0"></polygon>
                <polygon id="Fill-28" fill="#B0882D" points="408.088 25 422.568 25 422.568 0 408.088 0"></polygon>
                <polygon id="Fill-29" fill="#203162" points="421.252 25 435.733 25 435.733 0 421.252 0"></polygon>
                <polygon id="Fill-30" fill="#B0882D" points="435.733 25 450.213 25 450.213 0 435.733 0"></polygon>
                <polygon id="Fill-31" fill="#B0882D" points="464.693 25 479.175 25 479.175 0 464.693 0"></polygon>
                <polygon id="Fill-32" fill="#203162" points="477.858 25 492.339 25 492.339 0 477.858 0"></polygon>
                <polygon id="Fill-33" fill="#203162" points="450.213 25 464.693 25 464.693 0 450.213 0"></polygon>
                <polygon id="Fill-34" fill="#B0882D" points="492.339 25 506.819 25 506.819 0 492.339 0"></polygon>
                <polygon id="Fill-35" fill="#203162" points="168.501 25 182.981 25 182.981 0 168.501 0"></polygon>
                <polygon id="Fill-36" fill="#B0882D" points="181.665 25 196.145 25 196.145 0 181.665 0"></polygon>
                <polygon id="Fill-37" fill="#203162" points="196.145 25 210.625 25 210.625 0 196.145 0"></polygon>
                <polygon id="Fill-38" fill="#B0882D" points="210.626 25 225.107 25 225.107 0 210.626 0"></polygon>
                <polygon id="Fill-39" fill="#203162" points="225.107 25 239.587 25 239.587 0 225.107 0"></polygon>
                <polygon id="Fill-40" fill="#B0882D" points="238.271 25 252.751 25 252.751 0 238.271 0"></polygon>
                <polygon id="Fill-41" fill="#203162" points="252.751 25 267.231 25 267.231 0 252.751 0"></polygon>
                <polygon id="Fill-42" fill="#B0882D" points="267.231 25 281.713 25 281.713 0 267.231 0"></polygon>
                <polygon id="Fill-43" fill="#B0882D" points="294.877 25 309.357 25 309.357 0 294.877 0"></polygon>
                <polygon id="Fill-44" fill="#203162" points="309.357 25 323.837 25 323.837 0 309.357 0"></polygon>
                <polygon id="Fill-45" fill="#203162" points="281.713 25 296.193 25 296.193 0 281.713 0"></polygon>
                <polygon id="Fill-46" fill="#B0882D" points="323.837 25 338.318 25 338.318 0 323.837 0"></polygon>
                <polygon id="Fill-51" fill="#203162" points="56.605 25 71.086 25 71.086 0 56.605 0"></polygon>
                <polygon id="Fill-52" fill="#B0882D" points="71.086 25 85.566 25 85.566 0 71.086 0"></polygon>
                <polygon id="Fill-53" fill="#203162" points="84.25 25 98.731 25 98.731 0 84.25 0"></polygon>
                <polygon id="Fill-54" fill="#B0882D" points="98.731 25 113.212 25 113.212 0 98.731 0"></polygon>
                <polygon id="Fill-55" fill="#B0882D" points="126.376 25 140.857 25 140.857 0 126.376 0"></polygon>
                <polygon id="Fill-56" fill="#203162" points="140.857 25 155.337 25 155.337 0 140.857 0"></polygon>
                <polygon id="Fill-57" fill="#203162" points="113.212 25 127.692 25 127.692 0 113.212 0"></polygon>
                <polygon id="Fill-58" fill="#B0882D" points="155.337 25 169.817 25 169.817 0 155.337 0"></polygon>
                <polygon id="Fill-59" fill="#203162" points="1186.102 25 1200.583 25 1200.583 0 1186.102 0"></polygon>
                <polygon id="Fill-60" fill="#B0882D" points="1199.267 25 1213.747 25 1213.747 0 1199.267 0"></polygon>
                <polygon id="Fill-61" fill="#203162" points="1213.747 25 1228.228 25 1228.228 0 1213.747 0"></polygon>
                <polygon id="Fill-62" fill="#B0882D" points="1228.228 25 1242.708 25 1242.708 0 1228.228 0"></polygon>
                <polygon id="Fill-63" fill="#203162" points="1242.708 25 1257.189 25 1257.189 0 1242.708 0"></polygon>
                <polygon id="Fill-64" fill="#B0882D" points="1255.872 25 1270.353 25 1270.353 0 1255.872 0"></polygon>
                <polygon id="Fill-65" fill="#203162" points="1270.353 25 1284.834 25 1284.834 0 1270.353 0"></polygon>
                <polygon id="Fill-66" fill="#B0882D" points="1284.834 25 1299.314 25 1299.314 0 1284.834 0"></polygon>
                <polygon id="Fill-67" fill="#B0882D" points="1312.479 25 1326.959 25 1326.959 0 1312.479 0"></polygon>
                <polygon id="Fill-68" fill="#203162" points="1326.959 25 1341.44 25 1341.44 0 1326.959 0"></polygon>
                <polygon id="Fill-69" fill="#203162" points="1299.314 25 1313.795 25 1313.795 0 1299.314 0"></polygon>
                <polygon id="Fill-70" fill="#B0882D" points="1341.44 25 1355.92 25 1355.92 0 1341.44 0"></polygon>
                <polygon id="Fill-71" fill="#203162" points="1355.92 25 1370.401 25 1370.401 0 1355.92 0"></polygon>
                <polygon id="Fill-72" fill="#203162" points="1245.341 25 1259.822 25 1259.822 0 1245.341 0"></polygon>
                <polygon id="Fill-73" fill="#B0882D" points="1258.505 25 1272.986 25 1272.986 0 1258.505 0"></polygon>
                <polygon id="Fill-74" fill="#203162" points="1272.986 25 1287.466 25 1287.466 0 1272.986 0"></polygon>
                <polygon id="Fill-75" fill="#B0882D" points="1287.467 25 1301.948 25 1301.948 0 1287.467 0"></polygon>
                <polygon id="Fill-76" fill="#203162" points="1301.948 25 1316.428 25 1316.428 0 1301.948 0"></polygon>
                <polygon id="Fill-77" fill="#B0882D" points="1315.111 25 1329.592 25 1329.592 0 1315.111 0"></polygon>
                <polygon id="Fill-78" fill="#203162" points="1329.592 25 1344.072 25 1344.072 0 1329.592 0"></polygon>
                <polygon id="Fill-79" fill="#B0882D" points="1344.072 25 1358.553 25 1358.553 0 1344.072 0"></polygon>
                <polygon id="Fill-80" fill="#203162" points="1358.553 25 1373.033 25 1373.033 0 1358.553 0"></polygon>
                <polygon id="Fill-81" fill="#203162" points="1016.285 25 1030.766 25 1030.766 0 1016.285 0"></polygon>
                <polygon id="Fill-82" fill="#B0882D" points="1030.766 25 1045.246 25 1045.246 0 1030.766 0"></polygon>
                <polygon id="Fill-83" fill="#203162" points="1043.929 25 1058.41 25 1058.41 0 1043.929 0"></polygon>
                <polygon id="Fill-84" fill="#B0882D" points="1058.41 25 1072.89 25 1072.89 0 1058.41 0"></polygon>
                <polygon id="Fill-85" fill="#203162" points="1072.89 25 1087.372 25 1087.372 0 1072.89 0"></polygon>
                <polygon id="Fill-86" fill="#B0882D" points="1087.372 25 1101.852 25 1101.852 0 1087.372 0"></polygon>
                <polygon id="Fill-87" fill="#203162" points="1100.536 25 1115.017 25 1115.017 0 1100.536 0"></polygon>
                <polygon id="Fill-88" fill="#B0882D" points="1115.017 25 1129.497 25 1129.497 0 1115.017 0"></polygon>
                <polygon id="Fill-89" fill="#B0882D" points="1143.978 25 1158.458 25 1158.458 0 1143.978 0"></polygon>
                <polygon id="Fill-90" fill="#203162" points="1157.141 25 1171.622 25 1171.622 0 1157.141 0"></polygon>
                <polygon id="Fill-91" fill="#203162" points="1129.497 25 1143.978 25 1143.978 0 1129.497 0"></polygon>
                <polygon id="Fill-92" fill="#B0882D" points="1171.622 25 1186.102 25 1186.102 0 1171.622 0"></polygon>
                <polygon id="Fill-93" fill="#203162" points="1386.79 25 1401.271 25 1401.271 0 1386.79 0"></polygon>
                <polygon id="Fill-94" fill="#B0882D" points="1399.954 25 1414.434 25 1414.434 0 1399.954 0"></polygon>
                <polygon id="Fill-95" fill="#203162" points="1414.434 25 1428.915 25 1428.915 0 1414.434 0"></polygon>
                <polygon id="Fill-96" fill="#B0882D" points="1428.915 25 1443.395 25 1443.395 0 1428.915 0"></polygon>
                <polygon id="Fill-97" fill="#203162" points="1443.395 25 1457.876 25 1457.876 0 1443.395 0"></polygon>
                <polygon id="Fill-98" fill="#B0882D" points="1456.559 25 1471.039 25 1471.039 0 1456.559 0"></polygon>
                <polygon id="Fill-99" fill="#203162" points="1471.04 25 1485.522 25 1485.522 0 1471.04 0"></polygon>
                <polygon id="Fill-100" fill="#B0882D" points="1485.521 25 1500.001 25 1500.001 0 1485.521 0"></polygon>
                <polygon id="Fill-103" fill="#203162" points="1500.002 25 1514.483 25 1514.483 0 1500.002 0"></polygon>
                <polygon id="Fill-106" fill="#203162" points="1446.029 25 1460.509 25 1460.509 0 1446.029 0"></polygon>
                <polygon id="Fill-107" fill="#B0882D" points="1459.192 25 1473.673 25 1473.673 0 1459.192 0"></polygon>
                <polygon id="Fill-108" fill="#203162" points="1473.673 25 1488.153 25 1488.153 0 1473.673 0"></polygon>
                <polygon id="Fill-109" fill="#B0882D" points="1488.153 25 1502.635 25 1502.635 0 1488.153 0"></polygon>
                <polygon id="Fill-110" fill="#203162" points="1502.635 25 1517.115 25 1517.115 0 1502.635 0"></polygon>
                <polygon id="Fill-115" fill="#B0882D" points="1372.31 25 1386.79 25 1386.79 0 1372.31 0"></polygon>
                <polygon id="Fill-116" fill="#203162" points="847.784 25 862.264 25 862.264 0 847.784 0"></polygon>
                <polygon id="Fill-117" fill="#B0882D" points="860.948 25 875.429 25 875.429 0 860.948 0"></polygon>
                <polygon id="Fill-118" fill="#203162" points="875.43 25 889.911 25 889.911 0 875.43 0"></polygon>
                <polygon id="Fill-119" fill="#B0882D" points="889.91 25 904.39 25 904.39 0 889.91 0"></polygon>
                <polygon id="Fill-120" fill="#203162" points="904.391 25 918.871 25 918.871 0 904.391 0"></polygon>
                <polygon id="Fill-121" fill="#B0882D" points="917.555 25 932.035 25 932.035 0 917.555 0"></polygon>
                <polygon id="Fill-122" fill="#203162" points="932.035 25 946.515 25 946.515 0 932.035 0"></polygon>
                <polygon id="Fill-123" fill="#B0882D" points="946.515 25 960.996 25 960.996 0 946.515 0"></polygon>
                <polygon id="Fill-124" fill="#B0882D" points="974.16 25 988.64 25 988.64 0 974.16 0"></polygon>
                <polygon id="Fill-125" fill="#203162" points="988.641 25 1003.121 25 1003.121 0 988.641 0"></polygon>
                <polygon id="Fill-126" fill="#203162" points="960.996 25 975.476 25 975.476 0 960.996 0"></polygon>
                <polygon id="Fill-127" fill="#B0882D" points="1003.121 25 1017.602 25 1017.602 0 1003.121 0"></polygon>
                <polygon id="Fill-128" fill="#203162" points="679.284 25 693.764 25 693.764 0 679.284 0"></polygon>
                <polygon id="Fill-129" fill="#B0882D" points="693.764 25 708.244 25 708.244 0 693.764 0"></polygon>
                <polygon id="Fill-130" fill="#203162" points="706.929 25 721.409 25 721.409 0 706.929 0"></polygon>
                <polygon id="Fill-131" fill="#B0882D" points="721.409 25 735.89 25 735.89 0 721.409 0"></polygon>
                <polygon id="Fill-132" fill="#203162" points="735.89 25 750.37 25 750.37 0 735.89 0"></polygon>
                <polygon id="Fill-133" fill="#B0882D" points="750.37 25 764.85 25 764.85 0 750.37 0"></polygon>
                <polygon id="Fill-134" fill="#203162" points="763.534 25 778.014 25 778.014 0 763.534 0"></polygon>
                <polygon id="Fill-135" fill="#B0882D" points="778.014 25 792.495 25 792.495 0 778.014 0"></polygon>
                <polygon id="Fill-136" fill="#B0882D" points="805.659 25 820.14 25 820.14 0 805.659 0"></polygon>
                <polygon id="Fill-137" fill="#203162" points="820.14 25 834.62 25 834.62 0 820.14 0"></polygon>
                <polygon id="Fill-138" fill="#203162" points="792.495 25 806.975 25 806.975 0 792.495 0"></polygon>
                <polygon id="Fill-139" fill="#B0882D" points="834.62 25 849.101 25 849.101 0 834.62 0"></polygon>
            </g>
        </g>
    </g>
</svg>