<?xml version="1.0" encoding="UTF-8"?>
<svg width="115px" height="115px" viewBox="0 0 115 115" version="1.1" xmlns="http://www.w3.org/2000/svg" xmlns:xlink="http://www.w3.org/1999/xlink">
    <!-- Generator: Sketch 63.1 (92452) - https://sketch.com -->
    <title>Group 55</title>
    <desc>Created with Sketch.</desc>
    <g id="Page-1" stroke="none" stroke-width="1" fill="none" fill-rule="evenodd">
        <g id="Product-Detail-Page_Delta-8-Temple-Gummies-10-pc-(25mg/each)_Desktop.pdf" transform="translate(-1160.000000, -1905.000000)">
            <g id="Group-55" transform="translate(1160.000000, 1905.000000)">
                <g id="Group-51">
                    <path d="M63.1158951,32.7127185 L63.4001067,18.6977632 L64.3166471,18.7163642 L65.7780665,18.7468021 C65.8184279,18.7468021 65.8671979,18.7129822 65.9142862,18.6571794 C66.0067811,18.5455738 66.0656415,18.3764744 66.0706867,18.1769372 C66.0740501,17.975709 66.0219167,17.8049186 65.9344669,17.689931 C65.8890603,17.6324372 65.841972,17.5952354 65.8016106,17.5952354 L52.7968279,17.3263674 C52.7581482,17.3263674 52.7076965,17.3618783 52.6606082,17.4176811 C52.5681133,17.5275956 52.5092529,17.698386 52.5058894,17.8962323 C52.5008442,18.0974605 52.5529777,18.2682509 52.6421092,18.3832384 C52.685834,18.4407322 52.7346041,18.4779341 52.7732838,18.4796251 L54.2347032,18.5100629 L55.1512435,18.5286639 L54.8670319,32.5436191 L54.8518964,33.2132526 L54.211159,33.4043349 C51.0091538,34.3648193 48.2326251,36.3314449 46.254916,38.945721 C44.3276587,41.4906664 43.1571778,44.6562065 43.088227,48.1075245 C42.9990956,52.4330863 44.6640038,56.3866294 47.4253969,59.2799195 C50.1867901,62.1732096 54.0480316,64.0062467 58.3498853,64.0958694 C62.6534206,64.183801 66.5836129,62.5097173 69.4627269,59.7331058 C72.3384773,56.9564942 74.1631494,53.0739728 74.2505992,48.7484111 C74.3212316,45.2970931 73.2802436,42.0858962 71.4606167,39.4648561 C69.5888563,36.7711032 66.8947321,34.691181 63.7347701,33.6004901 L63.1024413,33.382352 L63.1158951,32.7127185 Z M65.4299967,20.3097588 L65.1954054,31.8590196 C68.4611192,33.1307779 71.2458365,35.3588984 73.2187664,38.1957672 C75.2642678,41.1411593 76.4355367,44.7376917 76.3562145,48.5953585 C76.2583275,53.4449967 74.2128261,57.79441 70.9842418,60.9076743 C67.7573453,64.0192429 63.3473658,65.8946624 58.5222103,65.7963131 C53.6953672,65.6962681 49.3663977,63.6411067 46.2694546,60.398971 C43.1708238,57.1568352 41.3042194,52.7260294 41.4037941,47.8763911 C41.4814287,44.0187244 42.7978405,40.474758 44.9631691,37.6158454 C47.0474877,34.8620648 49.9216534,32.7492504 53.2363107,31.6131463 L53.4725898,20.0638855 L52.9257726,20.0537114 C52.3013208,20.040146 51.7561914,19.7281413 51.3764572,19.2346991 C51.0422911,18.7972143 50.8414539,18.2122055 50.8549556,17.583109 C50.8667696,16.9540126 51.0912346,16.3791779 51.4439655,15.9552584 C51.8422644,15.478773 52.4008956,15.1888121 53.0236596,15.2003309 L66.0763887,15.4702946 C66.6991527,15.4821644 67.2459699,15.7941691 67.6240164,16.2876113 C67.9581824,16.7250961 68.1590196,17.3101049 68.1472057,17.9392013 C68.133704,18.5682978 67.9092389,19.1448282 67.5565081,19.5670519 C67.1582091,20.045233 66.6012657,20.3351939 65.9768139,20.3216285 L65.4299967,20.3097588 L65.4299967,20.3097588 Z" id="Fill-20" fill="#D9341A"></path>
                    <path d="M69.2348184,43.1817222 C60.1563675,51.5454754 63.9771788,47.8841277 56.3897762,55.4062121 C53.7499429,51.921315 55.0512215,53.4334957 51.2439652,49.6186361 C50.5831597,49.069875 49.6207558,49.1828034 49.0938058,49.8727248 C48.5668557,50.5608817 48.6752956,51.5631205 49.3377955,52.1118815 C59.7107474,62.5436344 52.5350775,62.8224262 71.222318,45.6079164 C71.8661798,45.0362168 71.9424266,44.0286845 71.3934497,43.3599372 C70.8444728,42.6894253 69.8786802,42.6100226 69.2348184,43.1817222" id="Fill-26" fill="#D9341A"></path>
                    <path d="M52.9416931,43.0016455 C53.4916921,42.9703381 53.9668495,43.3895091 53.9981786,43.9408669 C54.0312481,44.4922247 53.6100464,44.9653141 53.0583069,44.9983608 C52.5065674,45.0296681 52.0331505,44.6087578 52.0018214,44.0591393 C51.9687519,43.5077815 52.3899536,43.0346921 52.9416931,43.0016455" id="Fill-23" fill="#D9341A"></path>
                    <path d="M56.9402815,45.0018887 C57.4928718,44.9681942 57.96628,45.3893758 57.9982898,45.9419662 C58.0302996,46.4928718 57.6091179,46.96628 57.0582123,46.9982898 C56.5073068,47.0302996 56.0338986,46.6091179 56.0018888,46.0582123 C55.9681942,45.5073067 56.3893759,45.0338985 56.9402815,45.0018887" id="Fill-24" fill="#D9341A"></path>
                    <path d="M56.471182,41.000872 C56.7455295,40.9847338 56.98299,41.1945299 56.9991281,41.4700313 C57.0152662,41.7466855 56.805471,41.9829943 56.528818,41.9991324 C56.2533178,42.0152706 56.01701,41.8043218 56.0008719,41.5288203 C55.9847338,41.2533189 56.194529,41.0170101 56.471182,41.000872" id="Fill-25" fill="#D9341A"></path>
                    <text id="100%-TESTED" font-family="Roboto-Regular, Roboto" font-size="16" font-weight="normal" fill="#4A4A4A">
                        <tspan x="40.6640625" y="88">100%</tspan>
                        <tspan x="31.3671875" y="107">TESTED</tspan>
                    </text>
                    <path d="M100.535275,2.13754647 L14.4647249,2.13754647 C11.0765531,2.13754647 7.99390026,3.52441845 5.76086501,5.75920475 C3.52611335,7.99399104 2.13754647,11.0749752 2.13754647,14.4631996 L2.13754647,100.535084 C2.13754647,103.925025 3.52611335,107.006009 5.76086501,109.240795 C7.99390026,111.475582 11.0765531,112.862454 14.4647249,112.862454 L100.535275,112.862454 C103.923447,112.862454 107.004383,111.475582 109.239135,109.240795 C111.473887,107.006009 112.862454,103.925025 112.862454,100.535084 L112.862454,14.4631996 C112.862454,11.0749752 111.473887,7.99399104 109.239135,5.75920475 C107.004383,3.52441845 103.923447,2.13754647 100.535275,2.13754647 Z M14.4822313,0 L100.517769,0 C104.501626,0 108.123471,1.62989154 110.746777,4.25315908 C113.3718,6.8781423 115,10.4999329 115,14.4820152 L115,100.516269 C115,104.500067 113.3718,108.121858 110.746777,110.746841 C108.123471,113.370108 104.501626,115 100.517769,115 L14.4822313,115 C10.4983738,115 6.87652921,113.370108 4.25322253,110.746841 C1.62820016,108.121858 0,104.500067 0,100.516269 L0,14.4820152 C0,10.4999329 1.62820016,6.8781423 4.25322253,4.25315908 C6.87652921,1.62989154 10.4983738,0 14.4822313,0 L14.4822313,0 Z" id="Fill-19" fill="#4A4A4A"></path>
                </g>
            </g>
        </g>
    </g>
</svg>